<svg xmlns="http://www.w3.org/2000/svg" xmlns:xlink="http://www.w3.org/1999/xlink" width="102" height="92" viewBox="0 0 102 92">
    <defs>
        <path id="611coc912a" d="M0.033 0L92.033 0 92.033 92 0.033 92z"/>
        <path id="vvw5qne11c" d="M0 0.355L21.594 0.355 21.594 21.949 0 21.949z"/>
    </defs>
    <g fill="none" fill-rule="evenodd">
        <g>
            <g>
                <g transform="translate(-286 -140) translate(286 140) translate(6)">
                    <mask id="vl08viacbb" fill="#fff">
                        <use xlink:href="#611coc912a"/>
                    </mask>
                    <path fill="#F6F7F8" d="M46.033 0c25.404 0 46 20.595 46 46 0 25.404-20.596 46-46 46-25.405 0-46-20.596-46-46 0-25.405 20.595-46 46-46" mask="url(#vl08viacbb)"/>
                </g>
                <path fill="#B2B5B2" d="M14.613 32.974h-7.59c-3.867 0-7 3.134-7 7v7.591c0 3.865 3.133 7 7 7h7.59c3.866 0 7-3.135 7-7v-7.59c0-3.867-3.134-7-7-7m0 4c1.654 0 3 1.345 3 3v7.59c0 1.653-1.346 3-3 3h-7.59c-1.655 0-3-1.347-3-3v-7.59c0-1.655 1.345-3 3-3h7.59M37.201 32.974h-.04c-5.95 0-10.775 4.824-10.775 10.774v.041c0 5.952 4.824 10.776 10.774 10.776h.041c5.951 0 10.775-4.824 10.775-10.776v-.04c0-5.95-4.824-10.775-10.775-10.775m0 4c3.735 0 6.775 3.04 6.775 6.815 0 3.736-3.04 6.776-6.816 6.776-3.735 0-6.774-3.04-6.774-6.817 0-3.735 3.04-6.774 6.774-6.774h.041M41.002 59.363H33.41c-3.866 0-7 3.134-7 7v7.59c0 3.867 3.134 7 7 7H41c3.867 0 7-3.133 7-7v-7.59c0-3.866-3.133-7-7-7m0 4c1.655 0 3 1.346 3 3v7.59c0 1.654-1.345 3-3 3h-7.59c-1.654 0-3-1.346-3-3v-7.59c0-1.654 1.346-3 3-3H41M20.924 80.273l-.006.006c-.894.894-2.357.894-3.252 0L.67 63.284c-.894-.895-.894-2.358 0-3.252l.006-.006c.894-.895 2.357-.895 3.252 0L20.924 77.02c.895.895.895 2.357 0 3.252" transform="translate(-286 -140) translate(286 140)"/>
                <g transform="translate(-286 -140) translate(286 140) translate(0 59)">
                    <mask id="i3d0m5zbyd" fill="#fff">
                        <use xlink:href="#vvw5qne11c"/>
                    </mask>
                    <path fill="#B2B5B2" d="M.67 21.273l.007.006c.894.894 2.357.894 3.252 0L20.924 4.284c.894-.895.894-2.358 0-3.252l-.006-.006c-.894-.895-2.357-.895-3.252 0L.67 18.02c-.895.895-.895 2.357 0 3.252" mask="url(#i3d0m5zbyd)"/>
                </g>
                <path stroke="#008C73" stroke-linecap="round" stroke-linejoin="round" stroke-width="4" d="M12.031 15.984L36.031 15.984M24.031 27.984L24.031 3.984" transform="translate(-286 -140) translate(286 140)"/>
                <path fill="#F6F7F8" d="M48.719 67.994c-3.136 0-5.687-2.552-5.687-5.687V25.68c0-3.135 2.55-5.687 5.687-5.687h44.625c3.136 0 5.688 2.552 5.688 5.687v36.626c0 3.135-2.552 5.687-5.688 5.687H48.719z" transform="translate(-286 -140) translate(286 140)"/>
                <path fill="#B2B5B2" d="M93.344 17.994H48.719c-4.246 0-7.688 3.44-7.688 7.687v36.626c0 4.246 3.442 7.687 7.688 7.687h44.625c4.245 0 7.687-3.441 7.687-7.687V25.68c0-4.246-3.442-7.687-7.687-7.687m0 4c2.033 0 3.688 1.654 3.688 3.687v36.626c0 2.033-1.655 3.687-3.688 3.687H48.719c-2.034 0-3.688-1.654-3.688-3.687V25.68c0-2.033 1.654-3.687 3.688-3.687h44.625" transform="translate(-286 -140) translate(286 140)"/>
                <path stroke="#B2B5B2" stroke-linecap="round" stroke-linejoin="round" stroke-width="4" d="M44.566 33.978L97.566 33.978" transform="translate(-286 -140) translate(286 140)"/>
                <path fill="#B2B5B2" d="M52.032 26.977c0 1.104-.896 2-2 2s-2-.896-2-2 .896-2 2-2 2 .896 2 2M59.007 26.977c0 1.104-.896 2-2 2s-2-.896-2-2 .896-2 2-2 2 .896 2 2M66.024 26.977c0 1.104-.896 2-2 2s-2-.896-2-2 .896-2 2-2 2 .896 2 2" transform="translate(-286 -140) translate(286 140)"/>
                <path stroke="#B2B5B2" stroke-linecap="round" stroke-linejoin="round" stroke-width="4" d="M66.033 59.977L57.033 50.977 66.033 41.977M76.016 59.977L85.016 50.977 76.016 41.977" transform="translate(-286 -140) translate(286 140)"/>
            </g>
        </g>
    </g>
</svg>