<svg xmlns="http://www.w3.org/2000/svg" xmlns:xlink="http://www.w3.org/1999/xlink" width="313" height="249" viewBox="0 0 313 249">
    <defs>
        <circle id="a" cx="34.796" cy="34.755" r="34.543"/>
        <circle id="b" cx="33.645" cy="33.287" r="33.287"/>
        <circle id="c" cx="41.135" cy="40.824" r="40.824"/>
        <circle id="d" cx="28.737" cy="28.843" r="28.408"/>
    </defs>
    <g fill="none" fill-rule="evenodd" transform="translate(7 1)">
        <circle cx="157.317" cy="123.345" r="123.345" stroke="#21435A" stroke-dasharray="2,6" stroke-opacity=".297" stroke-width="2"/>
        <g fill-rule="nonzero">
            <path fill="#21435A" d="M215.723 73.51h-22.176l-17.785-10.018-.6-.285h-.535a2.302 2.302 0 0 0-2.304 2.31v1.81h-16.486v6.183h-55.77c-2.208 0-4 1.792-4 4v90.905a4.005 4.005 0 0 0 4 4.019h.12v8.245h20.611v-8.245h35.034v6.182h16.485v1.483a2.303 2.303 0 0 0 2.309 2.309l.662-.043 17.64-9.931h2.063v8.245h20.61v-8.245h.126c2.207 0 4-1.792 4-4l-.005-90.924c0-2.207-1.792-4-4-4zm-99.044 103.048h-12.366v-4.12h12.366v4.12zm4.12-8.163v-.082h-20.61v.126l-.122-90.804h55.766v4.12h-46.68a4.837 4.837 0 0 0-4.84 4.845v72.772c0 2.657 2.165 4.82 4.84 4.82h46.68v4.121l-35.034.082zm35.033-76.336v68.01h-6.182a2.068 2.068 0 0 0-2.063-2.063 2.068 2.068 0 0 0-2.062 2.062h-8.246a2.068 2.068 0 0 0-2.062-2.062 2.068 2.068 0 0 0-2.063 2.062h-8.245a2.068 2.068 0 0 0-2.062-2.062 2.068 2.068 0 0 0-2.063 2.062h-8.23a2.068 2.068 0 0 0-2.063-2.062c-.99 0-1.792.72-1.98 1.671-.034-.101-.078-.203-.078-.328V86.596c0-.126.044-.227.082-.31.184.933.99 1.652 1.98 1.652a2.068 2.068 0 0 0 2.063-2.062h8.245c0 1.135.928 2.062 2.063 2.062a2.068 2.068 0 0 0 2.063-2.062h8.245c0 1.135.927 2.062 2.062 2.062a2.068 2.068 0 0 0 2.063-2.062h8.245c0 1.135.927 2.062 2.063 2.062a2.068 2.068 0 0 0 2.062-2.062h6.183l-.02 6.183zm4.125 82.437V71.453h12.366v103.043h-12.366zm16.486-105.868l8.7 4.883h-.31l20.461 11.5v7.048a2.068 2.068 0 0 0-2.063 2.063c0 1.135.928 2.062 2.063 2.062v2.063a2.068 2.068 0 0 0-2.063 2.062c0 1.135.928 2.063 2.063 2.063v41.216a2.068 2.068 0 0 0-2.063 2.063c0 1.135.928 2.062 2.063 2.062v2.063a2.068 2.068 0 0 0-2.063 2.062c0 1.135.928 2.063 2.063 2.063v6.864l-28.85 16.239-.001-108.376zm35.033 107.93h-12.365v-4.12h12.365v4.12zm4.125-8.244H200.58l8.84-4.99v-9.438h2.062a2.068 2.068 0 0 0 2.062-2.063 2.068 2.068 0 0 0-2.062-2.062h-2.063v-2.063h2.063a2.068 2.068 0 0 0 2.062-2.063 2.068 2.068 0 0 0-2.062-2.062h-2.063v-41.206h2.063a2.068 2.068 0 0 0 2.062-2.063 2.068 2.068 0 0 0-2.062-2.063h-2.063V96.18h2.063a2.068 2.068 0 0 0 2.062-2.063 2.068 2.068 0 0 0-2.062-2.062h-2.063v-9.617l-8.612-4.845 14.795-.082v90.804z"/>
            <path fill="#10B3D4" d="M164.078 75.408c0-2.748 4.12-2.748 4.12 0 0 2.749-4.12 2.749-4.12 0zM164.078 87.774c0-2.749 4.12-2.749 4.12 0 0 2.748-4.12 2.748-4.12 0zM164.078 157.84c0-2.743 4.12-2.743 4.12 0 0 2.75-4.12 2.75-4.12 0zM164.078 145.475c0-2.743 4.12-2.743 4.12 0 0 2.749-4.12 2.749-4.12 0zM164.078 100.14c0-2.75 4.12-2.75 4.12 0 0 2.748-4.12 2.748-4.12 0zM164.078 170.206c0-2.743 4.12-2.743 4.12 0 0 2.749-4.12 2.749-4.12 0z"/>
            <path fill="#21435A" d="M180.563 133.11a2.068 2.068 0 0 0-2.062 2.063c0 1.135.927 2.062 2.062 2.062 4.555 0 8.265-3.71 8.265-8.264v-12.322c0-4.555-3.71-8.265-8.265-8.265a2.068 2.068 0 0 0-2.062 2.063c0 1.135.927 2.062 2.062 2.062a4.143 4.143 0 0 1 4.145 4.145v12.322c0 2.26-1.855 4.134-4.145 4.134z"/>
            <path fill="#21435A" d="M180.563 100.14a2.068 2.068 0 0 0-2.062 2.062c0 1.135.927 2.062 2.062 2.062 6.82 0 12.385 5.565 12.385 12.385v12.322c0 6.82-5.564 12.385-12.385 12.385a2.068 2.068 0 0 0-2.062 2.063c0 1.135.927 2.062 2.062 2.062 9.11 0 16.51-7.4 16.51-16.51V116.65c0-9.11-7.4-16.51-16.51-16.51z"/>
            <g fill="#10B3D4">
                <path d="M115.974 92.525c.373 0 .677.301.677.677v4.06a.677.677 0 1 1-1.354 0v-4.06c0-.376.302-.677.677-.677zM115.974 100.647c1.192 0 2.031 1.259 2.031 2.709 0 1.452-.839 2.708-2.03 2.708-1.196 0-2.032-1.256-2.032-2.708 0-1.45.836-2.709 2.031-2.709zm0 1.354c-.304 0-.677.562-.677 1.355 0 .792.373 1.354.677 1.354.302 0 .677-.562.677-1.354 0-.793-.375-1.355-.677-1.355zM115.974 108.773c.373 0 .677.304.677.677v4.063a.677.677 0 1 1-1.354 0v-4.063c0-.373.302-.677.677-.677zM124.097 108.773c.376 0 .677.304.677.677v4.063a.677.677 0 1 1-1.354 0v-4.063c0-.373.304-.677.677-.677zM132.223 92.525c.372 0 .677.301.677.677v4.06a.677.677 0 1 1-1.355 0v-4.06c0-.376.305-.677.678-.677zM140.348 100.647c.373 0 .677.304.677.677v4.063a.677.677 0 1 1-1.354 0v-4.063c0-.373.304-.677.677-.677zM148.473 92.525c.373 0 .678.301.678.677v4.06a.677.677 0 1 1-1.355 0v-4.06c0-.376.302-.677.677-.677zM140.348 108.773c.373 0 .677.304.677.677v4.063a.678.678 0 0 1-.677.677.678.678 0 0 1-.677-.677v-4.063c0-.373.304-.677.677-.677zM132.223 100.647c.372 0 .677.304.677.677v4.063a.677.677 0 1 1-1.355 0v-4.063c0-.373.305-.677.678-.677zM132.223 108.773c.372 0 .677.304.677.677v4.063a.678.678 0 0 1-.677.677.678.678 0 0 1-.678-.677v-4.063c0-.373.305-.677.678-.677zM124.097 92.525c1.195 0 2.032 1.256 2.032 2.706 0 1.452-.837 2.708-2.032 2.708-1.192 0-2.031-1.256-2.031-2.708 0-1.45.839-2.706 2.031-2.706zm0 1.354c-.301 0-.677.562-.677 1.352 0 .792.376 1.354.677 1.354.302 0 .677-.562.677-1.354 0-.79-.375-1.352-.677-1.352zM124.097 100.647c1.195 0 2.032 1.259 2.032 2.709 0 1.452-.837 2.708-2.032 2.708-1.192 0-2.031-1.256-2.031-2.708 0-1.45.839-2.709 2.031-2.709zm0 1.354c-.301 0-.677.562-.677 1.355 0 .792.376 1.354.677 1.354.302 0 .677-.562.677-1.354 0-.793-.375-1.355-.677-1.355zM140.348 92.525c1.193 0 2.032 1.256 2.032 2.706 0 1.452-.84 2.708-2.032 2.708-1.194 0-2.031-1.256-2.031-2.708 0-1.45.837-2.706 2.031-2.706zm0 1.354c-.304 0-.677.562-.677 1.352 0 .792.373 1.354.677 1.354.302 0 .677-.562.677-1.354 0-.79-.375-1.352-.677-1.352zM148.473 100.647c1.193 0 2.032 1.259 2.032 2.709 0 1.452-.84 2.708-2.032 2.708-1.194 0-2.03-1.256-2.03-2.708 0-1.45.836-2.709 2.03-2.709zm0 1.354c-.304 0-.677.562-.677 1.355 0 .792.373 1.354.677 1.354.302 0 .678-.562.678-1.354 0-.793-.376-1.355-.678-1.355zM148.473 108.773c1.193 0 2.032 1.256 2.032 2.708 0 1.453-.84 2.709-2.032 2.709-1.194 0-2.03-1.256-2.03-2.709 0-1.452.836-2.708 2.03-2.708zm0 1.354c-.304 0-.677.562-.677 1.354 0 .793.373 1.355.677 1.355.302 0 .678-.562.678-1.355 0-.792-.376-1.354-.678-1.354zM115.974 117.217c.373 0 .677.302.677.677v4.06a.677.677 0 1 1-1.354 0v-4.06c0-.375.302-.677.677-.677zM115.974 125.34c1.192 0 2.031 1.258 2.031 2.708 0 1.452-.839 2.708-2.03 2.708-1.196 0-2.032-1.256-2.032-2.708 0-1.45.836-2.709 2.031-2.709zm0 1.354c-.304 0-.677.561-.677 1.354 0 .792.373 1.354.677 1.354.302 0 .677-.562.677-1.354 0-.793-.375-1.354-.677-1.354zM115.974 133.465c.373 0 .677.304.677.677v4.063a.677.677 0 1 1-1.354 0v-4.063c0-.373.302-.677.677-.677zM124.097 133.465c.376 0 .677.304.677.677v4.063a.677.677 0 1 1-1.354 0v-4.063c0-.373.304-.677.677-.677zM132.223 117.217c.372 0 .677.302.677.677v4.06a.677.677 0 1 1-1.355 0v-4.06c0-.375.305-.677.678-.677zM140.348 125.34c.373 0 .677.304.677.677v4.062a.677.677 0 1 1-1.354 0v-4.062c0-.373.304-.678.677-.678zM148.473 117.217c.373 0 .678.302.678.677v4.06a.677.677 0 1 1-1.355 0v-4.06c0-.375.302-.677.677-.677zM140.348 133.465c.373 0 .677.304.677.677v4.063a.678.678 0 0 1-.677.677.678.678 0 0 1-.677-.677v-4.063c0-.373.304-.677.677-.677zM132.223 125.34c.372 0 .677.304.677.677v4.062a.677.677 0 1 1-1.355 0v-4.062c0-.373.305-.678.678-.678zM132.223 133.465c.372 0 .677.304.677.677v4.063a.678.678 0 0 1-.677.677.678.678 0 0 1-.678-.677v-4.063c0-.373.305-.677.678-.677zM124.097 117.217c1.195 0 2.032 1.256 2.032 2.706 0 1.452-.837 2.708-2.032 2.708-1.192 0-2.031-1.256-2.031-2.708 0-1.45.839-2.706 2.031-2.706zm0 1.354c-.301 0-.677.562-.677 1.352 0 .792.376 1.354.677 1.354.302 0 .677-.562.677-1.354 0-.79-.375-1.352-.677-1.352zM124.097 125.34c1.195 0 2.032 1.258 2.032 2.708 0 1.452-.837 2.708-2.032 2.708-1.192 0-2.031-1.256-2.031-2.708 0-1.45.839-2.709 2.031-2.709zm0 1.354c-.301 0-.677.561-.677 1.354 0 .792.376 1.354.677 1.354.302 0 .677-.562.677-1.354 0-.793-.375-1.354-.677-1.354zM140.348 117.217c1.193 0 2.032 1.256 2.032 2.706 0 1.452-.84 2.708-2.032 2.708-1.194 0-2.031-1.256-2.031-2.708 0-1.45.837-2.706 2.031-2.706zm0 1.354c-.304 0-.677.562-.677 1.352 0 .792.373 1.354.677 1.354.302 0 .677-.562.677-1.354 0-.79-.375-1.352-.677-1.352zM148.473 125.34c1.193 0 2.032 1.258 2.032 2.708 0 1.452-.84 2.708-2.032 2.708-1.194 0-2.03-1.256-2.03-2.708 0-1.45.836-2.709 2.03-2.709zm0 1.354c-.304 0-.677.561-.677 1.354 0 .792.373 1.354.677 1.354.302 0 .678-.562.678-1.354 0-.793-.376-1.354-.678-1.354zM148.473 133.465c1.193 0 2.032 1.256 2.032 2.709 0 1.452-.84 2.708-2.032 2.708-1.194 0-2.03-1.256-2.03-2.708 0-1.453.836-2.709 2.03-2.709zm0 1.354c-.304 0-.677.562-.677 1.355 0 .792.373 1.354.677 1.354.302 0 .678-.562.678-1.354 0-.793-.376-1.355-.678-1.355zM115.974 141.779c.373 0 .677.302.677.677v4.06a.677.677 0 1 1-1.354 0v-4.06c0-.375.302-.677.677-.677zM115.974 149.902c1.192 0 2.031 1.258 2.031 2.708 0 1.453-.839 2.709-2.03 2.709-1.196 0-2.032-1.256-2.032-2.709 0-1.45.836-2.708 2.031-2.708zm0 1.354c-.304 0-.677.562-.677 1.354s.373 1.354.677 1.354c.302 0 .677-.562.677-1.354s-.375-1.354-.677-1.354zM132.223 141.779c.372 0 .677.302.677.677v4.06a.677.677 0 1 1-1.355 0v-4.06c0-.375.305-.677.678-.677zM140.348 149.902c.373 0 .677.304.677.677v4.063a.677.677 0 1 1-1.354 0v-4.063c0-.373.304-.677.677-.677zM148.473 141.779c.373 0 .678.302.678.677v4.06a.677.677 0 1 1-1.355 0v-4.06c0-.375.302-.677.677-.677zM132.223 149.902c.372 0 .677.304.677.677v4.063a.677.677 0 1 1-1.355 0v-4.063c0-.373.305-.677.678-.677zM124.097 141.779c1.195 0 2.032 1.256 2.032 2.706 0 1.452-.837 2.709-2.032 2.709-1.192 0-2.031-1.257-2.031-2.709 0-1.45.839-2.706 2.031-2.706zm0 1.354c-.301 0-.677.562-.677 1.352 0 .792.376 1.354.677 1.354.302 0 .677-.562.677-1.354 0-.79-.375-1.352-.677-1.352zM124.097 149.902c1.195 0 2.032 1.258 2.032 2.708 0 1.453-.837 2.709-2.032 2.709-1.192 0-2.031-1.256-2.031-2.709 0-1.45.839-2.708 2.031-2.708zm0 1.354c-.301 0-.677.562-.677 1.354s.376 1.354.677 1.354c.302 0 .677-.562.677-1.354s-.375-1.354-.677-1.354zM140.348 141.779c1.193 0 2.032 1.256 2.032 2.706 0 1.452-.84 2.709-2.032 2.709-1.194 0-2.031-1.257-2.031-2.709 0-1.45.837-2.706 2.031-2.706zm0 1.354c-.304 0-.677.562-.677 1.352 0 .792.373 1.354.677 1.354.302 0 .677-.562.677-1.354 0-.79-.375-1.352-.677-1.352zM148.473 149.902c1.193 0 2.032 1.258 2.032 2.708 0 1.453-.84 2.709-2.032 2.709-1.194 0-2.03-1.256-2.03-2.709 0-1.45.836-2.708 2.03-2.708zm0 1.354c-.304 0-.677.562-.677 1.354s.373 1.354.677 1.354c.302 0 .678-.562.678-1.354s-.376-1.354-.678-1.354z"/>
            </g>
        </g>
        <g transform="translate(23.027 6.68)">
            <use fill="#10B3D4" xlink:href="#a"/>
            <circle cx="34.796" cy="34.755" r="38.043" stroke="#F4F4F9" stroke-width="7"/>
        </g>
        <path fill="#FFF" fill-rule="nonzero" d="M76.884 23.637a2.348 2.348 0 0 1 2.335 2.335v31.137a2.348 2.348 0 0 1-2.335 2.336H55.087a2.348 2.348 0 0 1-2.335-2.336V25.972a2.348 2.348 0 0 1 2.335-2.335h21.797zm0 1.557H55.087a.76.76 0 0 0-.778.778v.778h23.353v-.778a.76.76 0 0 0-.778-.778zm.778 3.113H54.309v24.91h23.353v-24.91zm-18.488 1.168c.1 0 .192.046.268.122a.385.385 0 0 1 0 .547l-3.296 3.308a.4.4 0 0 1-.56 0 .4.4 0 0 1 0-.56l3.308-3.295a.405.405 0 0 1 .28-.122zm1.642 1.107c.1 0 .204.033.28.11a.4.4 0 0 1 0 .559l-3.856 3.843a.385.385 0 0 1-.547 0 .385.385 0 0 1 0-.547l3.856-3.856a.365.365 0 0 1 .267-.11zm16.846 24.192H54.309v2.335a.76.76 0 0 0 .778.779h21.796a.76.76 0 0 0 .779-.779v-2.335zm-11.677.778a.778.778 0 1 1 .001 1.556.778.778 0 0 1 0-1.556z"/>
        <g fill="#FFF" fill-rule="nonzero">
            <path d="M40.648 42.99c.017-.409.05-.848.05-1.305 0-1.059-.865-1.924-1.925-1.924-1.043 0-1.891.832-1.924 1.908-.016.408-.032.799-.032 1.19v.44c0 .114 0 .229.016.343 0 .13.016.244.016.375l.05.734c.015.244.048.473.08.7.017.082.033.18.033.262 0 .048.016.097.016.147.016.065.016.113.033.18.016.064.016.113.032.179.016.065.016.114.032.18.017.048.017.097.033.147v.016c0 .016.016.032.016.049 0 .016 0 .032.016.032.017.081.033.163.05.228v.017c0 .016 0 .032.015.048.033.098.05.196.082.294 0 .016.016.032.016.048.032.114.065.212.097.31.016.032.016.081.033.113.016.065.032.131.065.18.016.033.016.065.032.081.033.081.065.18.098.261.163.032.293.049.424.065.113.016.244.016.391.032-.795-1.744-1.089-3.847-.975-6.618.049-.685.554-1.207 1.19-1.207.669 0 1.19.538 1.19 1.19 0 .425-.016.831-.048 1.272v.032c-.065 1.615-.147 3.13 1.223 4.891.065-.032.13-.049.195-.081.164-.065.326-.147.506-.245-1.289-1.614-1.223-2.983-1.126-4.565z"/>
            <path d="M36.361 47.864c.098.032.212.08.326.113-.75-2.673-.701-5.673-.685-6.244v-.016a2.766 2.766 0 0 1 2.755-2.771 2.762 2.762 0 0 1 2.755 2.755c0 .325-.016.652-.032.994-.065 1.402-.147 2.983 1.043 4.45.016-.016.032-.016.049-.032.18-.13.375-.277.537-.424-1.027-1.255-.962-2.576-.88-3.978.016-.342.032-.685.032-1.027a3.51 3.51 0 0 0-3.505-3.505 3.51 3.51 0 0 0-3.504 3.505v.065c-.017.962-.017 3.456.57 5.87.197.099.376.18.54.245z"/>
            <path d="M42.637 38.327c-.978-1.06-2.429-1.68-3.88-1.68-2.771 0-5.054 2.266-5.07 5.054 0 .082 0 2.169.358 4.63l.016.017.033.032c.196.196.408.376.636.554.065.049.13.098.212.164a37.235 37.235 0 0 1-.49-5.38c0-2.38 1.941-4.32 4.321-4.32 1.24 0 2.495.537 3.343 1.45.717.799 1.06 1.81.978 2.837a2.436 2.436 0 0 0-.032.342c-.017.114-.033.212-.033.326a16.63 16.63 0 0 0-.081.897c.114-.734.44-1.386.913-1.908a4.641 4.641 0 0 0-1.224-3.015z"/>
            <path d="M39.133 42.532v-.847a.391.391 0 0 0-.376-.375.391.391 0 0 0-.375.375v.831c-.032 1.892-.048 3.668 1.19 5.738l.31-.048c.147-.033.31-.065.49-.098-1.288-1.989-1.272-3.733-1.24-5.576z"/>
            <path d="M38.757 35.083a6.623 6.623 0 0 0-6.619 6.618c0 1.223.342 2.43.978 3.457l.017.016c-.196-1.598-.294-2.935-.294-3.537 0-1.581.603-3.049 1.712-4.158a5.9 5.9 0 0 1 4.157-1.711c1.581 0 3.048.602 4.157 1.711a6.017 6.017 0 0 1 1.647 3.244c.229-.147.473-.277.718-.375-.604-2.983-3.278-5.265-6.473-5.265z"/>
            <path d="M43.681 47.179c-.212.196-.44.375-.7.554a12.3 12.3 0 0 1-.587.375 6.54 6.54 0 0 1-.831.408 4.986 4.986 0 0 1-.637.228 7.73 7.73 0 0 1-.93.229 5.497 5.497 0 0 1-1.026.097h-.261c-.244 0-.489-.016-.733-.032a8.105 8.105 0 0 1-.881-.147 8.23 8.23 0 0 1-1.027-.31 9.185 9.185 0 0 1-.815-.375 8.56 8.56 0 0 1-1.027-.67 8.675 8.675 0 0 1-.7-.619 8.464 8.464 0 0 1-1.06-1.336 7.325 7.325 0 0 1-1.092-3.864c0-4.06 3.31-7.37 7.369-7.37 3.537 0 6.505 2.511 7.205 5.854a3.25 3.25 0 0 1 .57-.049h.114c-.734-3.684-3.994-6.472-7.89-6.472-4.435 0-8.038 3.603-8.038 8.038 0 2.005.75 3.945 2.12 5.428a9.143 9.143 0 0 0 1.696 1.419c.325.195.668.375 1.026.537.294.131.603.245.897.326.359.098.702.18 1.044.228.293.05.62.082.945.082h.31c.228 0 .456-.017.7-.033a8.042 8.042 0 0 0 2.675-.7c.277-.132.554-.278.814-.441.212-.131.408-.261.603-.408.228-.18.457-.358.685-.57.18-.18.358-.359.538-.555a3.222 3.222 0 0 1-.554-.375l-.522.523zM46.974 42.549v.375h-.897v-.375c0-.245.196-.457.44-.457a.467.467 0 0 1 .457.457z"/>
            <path d="M46.534 40.788a3.02 3.02 0 0 0-3.016 3.016 3.02 3.02 0 0 0 3.016 3.016 3.02 3.02 0 0 0 3.015-3.016 3.019 3.019 0 0 0-3.015-3.016zm1.565 4.353a.515.515 0 0 1-.521.522H45.49a.515.515 0 0 1-.521-.522v-1.646a.56.56 0 0 1 .473-.554v-.376c0-.603.489-1.109 1.092-1.109.602 0 1.091.49 1.091 1.11v.375c.261.048.473.277.473.554l.001 1.646z"/>
        </g>
        <g transform="translate(231.424 147.058)">
            <use fill="#10B3D4" xlink:href="#b"/>
            <circle cx="33.645" cy="33.287" r="36.787" stroke="#F4F4F9" stroke-width="7"/>
        </g>
        <path fill="#FFF" fill-rule="nonzero" d="M269.676 161.583h-17.723a2.318 2.318 0 0 0-2.315 2.316v33.531a2.318 2.318 0 0 0 2.315 2.316h17.685a2.318 2.318 0 0 0 2.315-2.316l-.001-33.531c.04-1.277-.998-2.316-2.275-2.316zm1.397 35.847c0 .758-.639 1.398-1.397 1.398h-17.723c-.758 0-1.397-.64-1.397-1.398V163.9c0-.758.64-1.397 1.397-1.397h17.685c.757 0 1.397.64 1.397 1.397v33.531h.038z"/>
        <path fill="#FFF" fill-rule="nonzero" d="M268.758 164.856H252.87c-.757 0-1.397.64-1.397 1.397v25.507c0 .758.64 1.397 1.397 1.397h15.888c.758 0 1.397-.639 1.397-1.397l-.001-25.507c0-.798-.638-1.397-1.397-1.397zm.44 26.906c0 .24-.2.479-.48.479h-15.846c-.24 0-.48-.2-.48-.48v-25.508c0-.24.199-.478.478-.478h15.888c.24 0 .479.2.479.478l.001 25.509h-.04zM258.5 164.098h4.59c.24 0 .478-.2.478-.478 0-.28-.2-.479-.478-.479h-4.59c-.241 0-.48.2-.48.479 0 .279.24.478.48.478zM261.055 193.917a2.062 2.062 0 0 0-2.075 2.076c0 1.157.918 2.075 2.075 2.075a2.062 2.062 0 0 0 2.076-2.075c0-1.117-.96-2.076-2.076-2.076zm0 3.273a1.158 1.158 0 1 1 1.157-1.157c-.04.64-.52 1.157-1.157 1.157z"/>
        <path fill="#FFF" fill-rule="nonzero" d="M265.206 174.477c-.2-.2-.479-.2-.64 0l-7.823 7.825c-.2.2-.2.479 0 .64.08.079.2.12.32.12s.24-.041.32-.12l7.823-7.786c.2-.2.2-.479 0-.679zM259.018 176.153c-.2-.2-.478-.2-.639 0l-3.273 3.273c-.2.2-.2.48 0 .64.08.08.2.12.32.12s.24-.04.32-.12l3.272-3.273c.2-.16.2-.479 0-.64zM265.884 177.79l-3.273 3.274c-.2.2-.2.479 0 .64.08.079.2.12.32.12s.24-.041.32-.12l3.272-3.274c.2-.2.2-.479 0-.64-.16-.199-.44-.199-.639 0z"/>
        <g fill="#FFF" fill-rule="nonzero">
            <path d="M285.355 181.467c.016-.408.048-.847.048-1.304 0-1.06-.864-1.924-1.924-1.924-1.043 0-1.89.831-1.923 1.908-.017.408-.033.798-.033 1.19v.44c0 .114 0 .229.016.342 0 .131.017.245.017.376l.048.733c.017.245.049.473.082.702.016.08.032.18.032.26 0 .049.016.098.016.147.016.065.016.114.033.18.016.065.016.114.032.18.016.065.016.113.033.18.016.048.016.097.032.146v.017c0 .016.016.032.016.048s0 .033.017.033c.016.08.032.163.048.228v.016c0 .017 0 .033.017.049.032.097.048.196.08.293 0 .016.017.033.017.049.032.114.065.212.097.31.017.032.017.08.033.113.016.065.032.131.065.18.016.032.016.065.032.08.033.082.065.18.098.262.163.032.293.048.424.065.114.016.244.016.392.032-.796-1.744-1.09-3.847-.976-6.619.049-.685.554-1.206 1.19-1.206.67 0 1.19.538 1.19 1.19 0 .424-.015.831-.048 1.272v.032c-.065 1.614-.147 3.13 1.223 4.89.065-.032.13-.048.196-.08.163-.065.325-.147.505-.245-1.289-1.614-1.223-2.983-1.125-4.565z"/>
            <path d="M281.068 186.341c.097.033.212.082.325.114-.75-2.674-.7-5.673-.685-6.244v-.017a2.766 2.766 0 0 1 2.755-2.77 2.762 2.762 0 0 1 2.755 2.754c0 .326-.016.653-.032.995-.065 1.402-.147 2.983 1.043 4.45.016-.016.032-.016.049-.032.18-.131.375-.277.538-.425-1.027-1.255-.962-2.576-.881-3.977.016-.342.032-.685.032-1.027a3.51 3.51 0 0 0-3.505-3.505 3.51 3.51 0 0 0-3.504 3.505v.065c-.017.962-.017 3.456.57 5.869.197.1.376.18.54.245z"/>
            <path d="M287.343 176.804c-.978-1.06-2.429-1.68-3.88-1.68-2.77 0-5.054 2.267-5.07 5.055 0 .081 0 2.169.358 4.63l.016.017.033.032c.196.196.408.375.636.554.065.049.131.097.212.163a37.235 37.235 0 0 1-.489-5.38c0-2.38 1.94-4.32 4.32-4.32 1.24 0 2.495.538 3.343 1.45.717.8 1.06 1.81.978 2.838a2.436 2.436 0 0 0-.032.342c-.016.114-.033.212-.033.326a16.63 16.63 0 0 0-.08.897c.113-.734.44-1.386.912-1.908a4.641 4.641 0 0 0-1.223-3.016z"/>
            <path d="M283.839 181.01v-.847a.391.391 0 0 0-.376-.376.391.391 0 0 0-.375.376v.83c-.032 1.892-.048 3.669 1.191 5.74.097-.017.212-.033.31-.05.147-.032.309-.065.489-.097-1.288-1.989-1.272-3.733-1.24-5.576z"/>
            <path d="M283.463 173.56a6.623 6.623 0 0 0-6.619 6.62c0 1.222.342 2.428.978 3.455l.017.017c-.196-1.599-.294-2.935-.294-3.538 0-1.58.603-3.048 1.712-4.157a5.9 5.9 0 0 1 4.157-1.712c1.581 0 3.049.603 4.158 1.712a6.017 6.017 0 0 1 1.647 3.244c.228-.147.472-.277.717-.375-.604-2.984-3.277-5.266-6.473-5.266z"/>
            <path d="M288.387 185.656c-.212.196-.44.376-.7.554a12.3 12.3 0 0 1-.587.376 6.54 6.54 0 0 1-.831.408 4.986 4.986 0 0 1-.636.228 7.73 7.73 0 0 1-.93.228 5.497 5.497 0 0 1-1.027.098h-.261c-.244 0-.489-.016-.733-.033a8.105 8.105 0 0 1-.881-.147 8.23 8.23 0 0 1-1.027-.31 9.185 9.185 0 0 1-.815-.375 8.56 8.56 0 0 1-1.027-.668 8.675 8.675 0 0 1-.7-.62 8.464 8.464 0 0 1-1.06-1.337 7.325 7.325 0 0 1-1.092-3.864c0-4.06 3.31-7.369 7.369-7.369 3.537 0 6.505 2.511 7.205 5.853a3.25 3.25 0 0 1 .57-.048h.114c-.733-3.685-3.994-6.472-7.89-6.472-4.434 0-8.037 3.603-8.037 8.037 0 2.005.75 3.945 2.12 5.429a9.143 9.143 0 0 0 1.695 1.418c.325.196.668.376 1.027.538.293.131.602.245.897.326.358.097.7.18 1.043.228.293.049.62.081.945.081h.31c.228 0 .457-.016.701-.032a8.042 8.042 0 0 0 2.674-.701c.277-.131.554-.277.815-.44.212-.132.408-.261.602-.409.229-.18.457-.358.685-.57.18-.18.358-.358.538-.554a3.222 3.222 0 0 1-.554-.375l-.522.522zM291.68 181.026v.376h-.897v-.376c0-.244.196-.456.44-.456a.467.467 0 0 1 .457.456z"/>
            <path d="M291.24 179.266a3.02 3.02 0 0 0-3.016 3.016 3.02 3.02 0 0 0 3.016 3.015 3.02 3.02 0 0 0 3.015-3.015 3.019 3.019 0 0 0-3.015-3.016zm1.565 4.353a.515.515 0 0 1-.521.522h-2.087a.515.515 0 0 1-.522-.522v-1.647a.56.56 0 0 1 .473-.554v-.375c0-.603.489-1.11 1.092-1.11.602 0 1.092.49 1.092 1.11v.375c.26.049.472.277.472.554l.001 1.647z"/>
        </g>
        <g>
            <g transform="translate(0 117.54)">
                <use fill="#10B3D4" xlink:href="#c"/>
                <circle cx="41.135" cy="40.824" r="44.324" stroke="#F4F4F9" stroke-width="7"/>
            </g>
            <g fill="#FFF" fill-rule="nonzero">
                <path d="M67.357 169.418H28.36l.817.817V145.427c0-.026.01-.163-.01-.02.01-.078.033-.153.057-.225-.047.154.03-.056.042-.082.053-.077.053-.084 0-.018a2.29 2.29 0 0 1 .1-.113c.016-.016.2-.154.068-.06.063-.042.13-.077.198-.11-.151.072.077-.01.096-.014.229-.056-.145.002.096-.005H65.898c.25 0-.138-.04.098.005.016.002.252.08.096.014.03.014.28.168.154.07.058.047.112.1.163.154.159.166-.072-.119.05.077.01.019.097.236.041.082.026.072.042.15.056.224-.025-.138-.01-.005-.01.042V170.23c0 .446.372.817.818.817a.824.824 0 0 0 .817-.817v-24.554c0-.492-.065-.96-.31-1.403-.407-.738-1.233-1.13-2.053-1.13H29.83c-1.259 0-2.279 1.058-2.279 2.305v24.779c0 .446.371.817.817.817h38.998a.824.824 0 0 0 .818-.817.839.839 0 0 0-.827-.81z"/>
                <path d="M71.802 170.26v1.997c0-.297-.002-.054-.042.067-.06.185.08-.163-.002.01a1.7 1.7 0 0 1-.17.278c.128-.182.02-.033-.01.002a2.497 2.497 0 0 1-.28.264c.18-.15-.1.063-.154.098a3.69 3.69 0 0 1-.297.166l-.154.074c-.18.084.168-.067-.014.007a5.004 5.004 0 0 1-.371.133 7.575 7.575 0 0 1-1.205.278c-.261.04.15-.016-.037.005a3.914 3.914 0 0 1-.173.019 4.875 4.875 0 0 1-.191.016c-.082.005-.166 0-.248 0l-5.43.002c-3.372.003-6.741.003-10.113.005-3.84.002-7.683.002-11.524.005l-9.671.004-4.549.003h-.046a6.763 6.763 0 0 1-.806-.042 4.57 4.57 0 0 1-.654-.159c-.046-.014-.37-.14-.186-.063a3.908 3.908 0 0 1-.834-.488c.192.145-.04-.04-.08-.075a4.097 4.097 0 0 1-.179-.17c-.054-.054-.105-.112-.156-.168-.047-.052-.236-.295-.056-.061a3.401 3.401 0 0 1-.323-.51 1.93 1.93 0 0 1-.046-.1.82.82 0 0 1 .11.404v-2.003l-.818.817H72.62a.824.824 0 0 0 .817-.817.824.824 0 0 0-.817-.817H23.093a.824.824 0 0 0-.817.817v1.996c0 .56.57 1.198.92 1.562 1.086 1.14 2.59 1.506 4.114 1.506l5.24-.002c3.338-.002 6.68-.002 10.018-.005l11.53-.004c3.256-.003 6.516-.003 9.773-.005l4.75-.002c1.013 0 2.091-.3 2.997-.731.871-.416 1.819-1.303 1.819-2.347v-1.97a.824.824 0 0 0-.817-.817.831.831 0 0 0-.817.821zM47.857 147.384a.824.824 0 0 0 .817-.817.824.824 0 0 0-.817-.817.824.824 0 0 0-.818.817c0 .446.372.817.818.817zM38.527 150.153c-1.814 1.726-3.63 3.449-5.445 5.174-.766.726.392 1.882 1.156 1.156l5.445-5.174c.765-.728-.393-1.882-1.156-1.156zM34.497 149.61l-2.006 1.905c-.766.726.392 1.882 1.156 1.155l2.005-1.905c.766-.728-.392-1.882-1.155-1.156z"/>
                <path d="M44.347 172.073h7.019a.824.824 0 0 0 .817-.817.824.824 0 0 0-.817-.818h-7.019a.824.824 0 0 0-.817.818c0 .446.371.817.817.817z"/>
            </g>
            <g fill="#FFF" fill-rule="nonzero">
                <path d="M16.154 157.932c.016-.408.049-.847.049-1.304 0-1.06-.865-1.924-1.924-1.924-1.043 0-1.891.831-1.924 1.908-.016.408-.032.799-.032 1.19v.44c0 .114 0 .229.016.343 0 .13.016.244.016.375l.049.734c.016.244.049.472.081.7.016.082.033.18.033.262 0 .048.016.097.016.147.016.065.016.113.032.18.017.064.017.113.033.179.016.065.016.114.032.18.017.048.017.097.033.147v.016c0 .016.016.032.016.049 0 .016 0 .032.016.032.016.081.033.163.049.228v.017c0 .016 0 .032.016.048.033.098.049.196.081.293 0 .017.017.033.017.05.032.113.065.211.097.309.016.032.016.08.033.113.016.065.032.131.065.18.016.032.016.065.032.081.032.081.065.18.097.26.164.033.294.05.425.066.113.016.244.016.391.032-.796-1.744-1.089-3.847-.975-6.618.049-.685.554-1.207 1.19-1.207.669 0 1.19.538 1.19 1.19 0 .424-.016.831-.048 1.272v.032c-.065 1.615-.147 3.13 1.222 4.891.065-.032.131-.049.196-.081.164-.065.326-.147.506-.245-1.29-1.614-1.223-2.983-1.126-4.565z"/>
                <path d="M11.867 162.807c.098.032.212.08.326.113-.75-2.674-.701-5.673-.685-6.244v-.016a2.766 2.766 0 0 1 2.755-2.771 2.762 2.762 0 0 1 2.755 2.755c0 .325-.016.652-.032.994-.065 1.402-.148 2.983 1.043 4.45.016-.016.032-.016.048-.032.18-.131.376-.277.538-.424-1.027-1.255-.962-2.577-.88-3.978.016-.342.032-.685.032-1.027a3.51 3.51 0 0 0-3.505-3.505 3.51 3.51 0 0 0-3.505 3.505v.065c-.016.962-.016 3.456.57 5.87.197.098.377.18.54.245z"/>
                <path d="M18.143 153.27c-.978-1.06-2.43-1.68-3.88-1.68-2.771 0-5.054 2.266-5.07 5.054 0 .082 0 2.169.358 4.63l.016.017.033.032c.195.196.407.376.636.554.065.049.13.098.212.164a37.235 37.235 0 0 1-.49-5.38c0-2.38 1.94-4.32 4.321-4.32 1.24 0 2.494.537 3.343 1.45.717.799 1.059 1.81.978 2.837a2.436 2.436 0 0 0-.033.342c-.016.114-.032.212-.032.326a16.63 16.63 0 0 0-.081.897c.113-.734.44-1.386.913-1.908a4.641 4.641 0 0 0-1.224-3.015z"/>
                <path d="M14.638 157.475v-.847a.391.391 0 0 0-.375-.375.391.391 0 0 0-.376.375l.001.831c-.032 1.891-.048 3.668 1.19 5.738l.31-.048c.147-.033.31-.065.49-.098-1.288-1.989-1.272-3.733-1.24-5.576z"/>
                <path d="M14.263 150.026a6.623 6.623 0 0 0-6.62 6.618c0 1.223.343 2.43.98 3.457l.015.016c-.195-1.598-.293-2.935-.293-3.538 0-1.58.603-3.048 1.712-4.157a5.9 5.9 0 0 1 4.157-1.712c1.581 0 3.048.603 4.157 1.712a6.017 6.017 0 0 1 1.647 3.244c.228-.147.473-.277.718-.375-.604-2.983-3.278-5.265-6.473-5.265z"/>
                <path d="M19.187 162.122c-.212.195-.44.375-.701.554a12.3 12.3 0 0 1-.587.375 6.54 6.54 0 0 1-.83.408 4.986 4.986 0 0 1-.637.228 7.73 7.73 0 0 1-.93.229 5.497 5.497 0 0 1-1.026.097h-.261c-.245 0-.49-.016-.734-.032a8.105 8.105 0 0 1-.88-.148 8.23 8.23 0 0 1-1.027-.309 9.185 9.185 0 0 1-.815-.375 8.56 8.56 0 0 1-1.027-.67 8.675 8.675 0 0 1-.701-.62 8.464 8.464 0 0 1-1.06-1.335 7.325 7.325 0 0 1-1.091-3.864c0-4.06 3.31-7.37 7.369-7.37 3.537 0 6.505 2.511 7.205 5.854a3.25 3.25 0 0 1 .57-.05h.114c-.734-3.683-3.994-6.47-7.89-6.47-4.435 0-8.038 3.602-8.038 8.036 0 2.005.75 3.946 2.12 5.429a9.143 9.143 0 0 0 1.695 1.419c.326.195.67.375 1.027.537.294.131.603.245.897.326.358.098.701.18 1.043.228.294.05.62.082.946.082h.31c.228 0 .456-.017.7-.033a8.042 8.042 0 0 0 2.674-.701c.277-.13.554-.277.815-.44.212-.131.408-.261.603-.408.228-.18.457-.358.685-.57.18-.18.358-.359.538-.555a3.222 3.222 0 0 1-.554-.375l-.522.522zM22.48 157.492v.375h-.897v-.375c0-.245.196-.457.44-.457a.467.467 0 0 1 .457.457z"/>
                <path d="M22.04 155.731a3.02 3.02 0 0 0-3.016 3.016 3.02 3.02 0 0 0 3.015 3.016 3.02 3.02 0 0 0 3.016-3.016 3.019 3.019 0 0 0-3.016-3.016zm1.565 4.353a.515.515 0 0 1-.522.522h-2.087a.515.515 0 0 1-.521-.522v-1.646a.56.56 0 0 1 .473-.555v-.375c0-.603.489-1.109 1.091-1.109.603 0 1.092.49 1.092 1.11v.374c.261.05.473.278.473.555l.001 1.646z"/>
            </g>
        </g>
        <g>
            <g transform="translate(225.771 21.013)">
                <use fill="#10B3D4" xlink:href="#d"/>
                <circle cx="28.737" cy="28.843" r="31.908" stroke="#F4F4F9" stroke-width="7"/>
            </g>
            <path fill="#FFF" fill-rule="nonzero" d="M253.085 41.214h-1.691v-5.576a.591.591 0 0 0-.577-.576h-6.192a.591.591 0 0 0-.576.576v5.576h-1.692a.591.591 0 0 0-.576.577v16.226c0 2.423 1.999 4.422 4.422 4.422h6.92a.591.591 0 0 0 .578-.577V41.791c-.04-.308-.27-.577-.616-.577zm-7.883-4.999h.424V39.1c0 .231.153.385.384.385.232 0 .385-.154.385-.385v-2.884h.384V39.1c0 .231.154.385.385.385s.385-.154.385-.385v-2.884h.384V39.1c0 .231.153.385.385.385.23 0 .384-.154.384-.385v-2.884h.385V39.1c0 .231.153.385.384.385s.385-.154.385-.385v-2.884h.423v4.999h-5.077v-4.999zm7.306 25.07h-6.344a3.266 3.266 0 0 1-3.269-3.268v-15.65h9.613v18.919zM249.24 47.98h1.538v1.538h-.385c0 1.346-1 2.46-2.307 2.653v3.806c.346.153.577.5.577.885a.953.953 0 0 1-.961.961.953.953 0 0 1-.962-.961c0-.385.232-.73.577-.885v-1.499a2.69 2.69 0 0 1-2.307-2.652c0-.04 0-.077.04-.077a.793.793 0 0 1-.424-.692.77.77 0 0 1 .769-.77.77.77 0 0 1 .769.77.672.672 0 0 1-.424.653c0 .039.04.077.04.116 0 .922.652 1.69 1.537 1.883V46.75l-.308.308a.372.372 0 0 1-.537 0 .372.372 0 0 1 0-.538l.96-.961c.04-.04.077-.077.116-.077.077-.039.193-.039.308 0 .04.04.077.04.116.077l.961.961a.372.372 0 0 1 0 .538.417.417 0 0 1-.269.116.417.417 0 0 1-.27-.116l-.308-.308v4.654a1.934 1.934 0 0 0 1.538-1.884h-.384v-1.54z"/>
            <g fill="#FFF" fill-rule="nonzero">
                <path d="M267.259 50.441c.016-.408.049-.847.049-1.304 0-1.06-.865-1.924-1.924-1.924-1.043 0-1.892.831-1.924 1.908-.016.408-.033.799-.033 1.19v.44c0 .114 0 .229.017.343 0 .13.016.244.016.375l.049.734c.016.244.048.472.08.7.017.082.033.18.033.262 0 .048.017.097.017.147.016.065.016.113.032.18.016.064.016.113.032.179.017.065.017.114.033.18.016.048.016.097.032.147v.016c0 .016.017.032.017.049 0 .016 0 .032.016.032.016.081.032.163.049.228v.017c0 .016 0 .032.016.048.032.098.049.196.081.294 0 .016.016.032.016.048.033.114.065.212.098.31.016.032.016.08.032.113.016.065.033.131.065.18.016.032.016.065.033.081.032.081.065.18.097.26.163.033.293.05.424.066.114.016.245.016.392.032-.796-1.744-1.09-3.847-.975-6.618.048-.685.554-1.207 1.19-1.207.668 0 1.19.538 1.19 1.19 0 .424-.016.831-.049 1.272v.032c-.065 1.615-.147 3.13 1.223 4.891.065-.032.13-.049.196-.081.163-.065.326-.147.505-.245-1.288-1.614-1.223-2.983-1.125-4.565z"/>
                <path d="M262.972 55.316c.097.032.212.08.326.113-.75-2.674-.702-5.673-.685-6.244v-.016a2.766 2.766 0 0 1 2.755-2.771 2.762 2.762 0 0 1 2.755 2.755c0 .325-.017.652-.033.994-.065 1.402-.147 2.983 1.043 4.45.017-.016.033-.016.049-.032.18-.131.375-.277.538-.424-1.027-1.255-.962-2.577-.88-3.978.015-.342.032-.685.032-1.027a3.51 3.51 0 0 0-3.505-3.505 3.51 3.51 0 0 0-3.505 3.505v.065c-.016.962-.016 3.456.57 5.87.197.098.377.18.54.245z"/>
                <path d="M269.248 45.778c-.978-1.059-2.43-1.679-3.88-1.679-2.772 0-5.055 2.266-5.07 5.054 0 .082 0 2.169.357 4.63l.017.017.032.032c.196.196.408.376.636.554.065.049.131.098.212.164a37.235 37.235 0 0 1-.489-5.38c0-2.38 1.94-4.32 4.321-4.32 1.239 0 2.494.537 3.342 1.45.718.799 1.06 1.81.979 2.837a2.436 2.436 0 0 0-.033.342c-.016.114-.032.212-.032.326a16.63 16.63 0 0 0-.082.897c.114-.734.44-1.386.914-1.908a4.641 4.641 0 0 0-1.224-3.015z"/>
                <path d="M265.743 49.984v-.847a.391.391 0 0 0-.375-.375.391.391 0 0 0-.376.375l.001.831c-.032 1.892-.049 3.668 1.19 5.738l.31-.048c.147-.033.31-.065.489-.098-1.288-1.989-1.272-3.733-1.239-5.576z"/>
                <path d="M265.367 42.535a6.623 6.623 0 0 0-6.618 6.618c0 1.223.342 2.43.978 3.457l.016.016c-.196-1.598-.293-2.935-.293-3.538 0-1.58.603-3.048 1.712-4.157a5.9 5.9 0 0 1 4.157-1.712c1.58 0 3.048.603 4.157 1.712a6.017 6.017 0 0 1 1.647 3.244c.228-.147.473-.277.717-.375-.604-2.983-3.277-5.265-6.473-5.265z"/>
                <path d="M270.292 54.63c-.212.196-.44.376-.701.555a12.3 12.3 0 0 1-.587.375 6.54 6.54 0 0 1-.831.408 4.986 4.986 0 0 1-.636.228 7.73 7.73 0 0 1-.93.229 5.497 5.497 0 0 1-1.027.097h-.26c-.245 0-.49-.016-.734-.032a8.105 8.105 0 0 1-.88-.148 8.23 8.23 0 0 1-1.028-.309 9.185 9.185 0 0 1-.814-.375 8.56 8.56 0 0 1-1.027-.67 8.675 8.675 0 0 1-.701-.62 8.464 8.464 0 0 1-1.06-1.335 7.325 7.325 0 0 1-1.092-3.864c0-4.06 3.31-7.37 7.37-7.37 3.536 0 6.505 2.511 7.205 5.854a3.25 3.25 0 0 1 .57-.05h.114c-.734-3.683-3.994-6.47-7.89-6.47-4.435 0-8.038 3.602-8.038 8.036 0 2.006.75 3.946 2.12 5.429a9.143 9.143 0 0 0 1.695 1.419c.326.195.669.375 1.027.537.293.131.603.245.897.326.358.098.701.18 1.043.228.293.05.62.082.946.082h.309c.229 0 .457-.017.701-.033a8.042 8.042 0 0 0 2.674-.701c.277-.13.554-.277.815-.44.212-.131.408-.261.603-.408.228-.18.456-.358.685-.57.18-.18.358-.359.537-.555a3.222 3.222 0 0 1-.554-.375l-.521.523zM273.584 50v.376h-.896v-.375c0-.245.195-.457.44-.457a.467.467 0 0 1 .456.457z"/>
                <path d="M273.144 48.24a3.02 3.02 0 0 0-3.016 3.016 3.02 3.02 0 0 0 3.016 3.016 3.02 3.02 0 0 0 3.016-3.016 3.019 3.019 0 0 0-3.016-3.016zm1.566 4.353a.515.515 0 0 1-.522.522h-2.087a.515.515 0 0 1-.522-.522v-1.646a.56.56 0 0 1 .473-.555v-.375c0-.603.49-1.109 1.092-1.109.603 0 1.092.49 1.092 1.11v.374c.26.05.473.278.473.555v1.646z"/>
            </g>
        </g>
    </g>
</svg>
