<svg xmlns="http://www.w3.org/2000/svg" width="16" height="16" viewBox="0 0 16 16">
    <g fill="none" fill-rule="evenodd">
        <g>
            <g>
                <path d="M0 0H16V16H0z" transform="translate(-589 -311) translate(589 311)"/>
                <path fill="#05de87" fill-rule="nonzero" d="M8 15c3.866 0 7-3.134 7-7s-3.134-7-7-7-7 3.134-7 7 3.134 7 7 7zm0-2c-2.761 0-5-2.239-5-5s2.239-5 5-5 5 2.239 5 5-2.239 5-5 5z" transform="translate(-589 -311) translate(589 311)"/>
                <path fill="#05de87" fill-rule="nonzero" d="M7.689 8.542l-1.506-1.41c-.403-.377-1.036-.355-1.413.048-.378.403-.356 1.036.047 1.413l2.22 2.078c.398.372 1.02.358 1.4-.032l2.868-2.94c.386-.396.378-1.03-.018-1.415-.395-.386-1.028-.378-1.414.018L7.69 8.542z" transform="translate(-589 -311) translate(589 311)"/>
            </g>
        </g>
    </g>
</svg>
