<svg width="11" height="12" viewBox="0 0 11 12" fill="none" xmlns="http://www.w3.org/2000/svg">
<path d="M10.3809 0H0.527842C0.236333 0 0 0.244224 0 0.545468V2.72734C0 2.88105 0.0627428 3.0276 0.17278 3.13099L3.87084 6.60482V11.4545C3.87084 11.6436 3.96554 11.8192 4.12115 11.9185C4.20595 11.9727 4.30216 12 4.39868 12C4.47937 12 4.56027 11.9809 4.63474 11.9424L6.7461 10.8515C6.92494 10.7591 7.0379 10.5702 7.0379 10.3636V6.60482L10.736 3.13099C10.846 3.0276 10.9087 2.88105 10.9087 2.72734V0.545468C10.9087 0.244224 10.6724 0 10.3809 0ZM6.15499 5.95989C6.04495 6.06327 5.98221 6.20982 5.98221 6.36354V10.0265L4.92653 10.572V6.36354C4.92653 6.20982 4.86378 6.06327 4.75375 5.95989L1.89323 3.27281H9.01551L6.15499 5.95989ZM9.85305 2.18187H1.05568V1.09094H9.85305V2.18187Z" fill="#162D45"/>
</svg>
