<svg xmlns="http://www.w3.org/2000/svg" width="16" height="16" viewBox="0 0 16 16">
    <g fill="none" fill-rule="nonzero">
        <circle cx="8" cy="8" r="8" fill="#FFC05F"/>
        <path fill="#FFF" d="M8 12l1.667-2.133A2.85 2.85 0 0 0 8 9.333c-.625 0-1.204.2-1.667.534L8 12zm0-8a8.529 8.529 0 0 0-5 1.6l.833 1.067A7.104 7.104 0 0 1 8 5.333c1.565 0 3.01.498 4.167 1.334L13 5.6A8.529 8.529 0 0 0 8 4zm0 2.667a5.68 5.68 0 0 0-3.333 1.066L5.5 8.8C6.194 8.298 7.06 8 8 8s1.806.298 2.5.8l.833-1.067A5.68 5.68 0 0 0 8 6.667z"/>
    </g>
</svg>
