<?xml version="1.0" encoding="utf-8"?>
<!-- Generator: Adobe Illustrator 19.0.0, SVG Export Plug-In . SVG Version: 6.00 Build 0)  -->
<svg version="1.1" id="Isolation_Mode" xmlns="http://www.w3.org/2000/svg" xmlns:xlink="http://www.w3.org/1999/xlink" x="0px"
	 y="0px" viewBox="0 0 697.7 119.5" style="enable-background:new 0 0 697.7 119.5;" xml:space="preserve">
<style type="text/css">
	.st0{fill:#00A6C4;}
</style>
<g>
	<g>
		<path class="st0" d="M399.6,64.3v22.6c-6.2,4.7-15.4,8-23.8,8c-18.1,0-32.2-13.6-32.2-31.1c0-17.5,14.3-30.9,32.9-30.9
			c8.8,0,17.5,3.3,23.6,8.6l-5.9,7.6c-4.7-4.4-11.3-7-17.7-7c-12.5,0-22.3,9.5-22.3,21.7c0,12.3,9.9,21.8,22.4,21.8
			c4.6,0,9.7-1.6,14.1-4.2V64.3H399.6z"/>
		<path class="st0" d="M461.2,94.4l-32.7-44v44h-10.3V33.1h10.2l32.9,44.1V33.1h10.2v61.3H461.2z"/>
		<path class="st0" d="M551.4,63.7c0,17.5-14.2,31.1-32.5,31.1c-18.3,0-32.5-13.6-32.5-31.1c0-17.6,14.2-30.9,32.5-30.9
			C537.3,32.8,551.4,46.2,551.4,63.7z M496.9,63.7c0,12.2,10.1,21.8,22.1,21.8c12,0,21.8-9.6,21.8-21.8c0-12.2-9.8-21.6-21.8-21.6
			C506.9,42.1,496.9,51.6,496.9,63.7z"/>
		<path class="st0" d="M608.1,38.9l-4.3,9.1c-6.7-4-13.3-5.7-18-5.7c-6,0-10,2.3-10,6.4c0,13.4,33.1,6.2,33,28.3
			c0,11-9.6,17.7-23.1,17.7c-9.6,0-18.7-3.9-25.1-9.7l4.5-8.9c6.3,5.8,14.2,8.9,20.8,8.9c7.2,0,11.5-2.7,11.5-7.4
			c0-13.7-33.1-6-33.1-27.9c0-10.5,9-17.1,22.3-17.1C594.6,32.6,602.4,35.2,608.1,38.9z"/>
		<path class="st0" d="M624.9,94.4V33.1h10.3v61.3H624.9z"/>
		<path class="st0" d="M696.9,38.9l-4.3,9.1c-6.7-4-13.3-5.7-18-5.7c-6,0-10,2.3-10,6.4c0,13.4,33.1,6.2,33,28.3
			c0,11-9.6,17.7-23.1,17.7c-9.6,0-18.7-3.9-25.1-9.7l4.5-8.9c6.3,5.8,14.2,8.9,20.8,8.9c7.2,0,11.5-2.7,11.5-7.4
			c0-13.7-33.1-6-33.1-27.9c0-10.5,9-17.1,22.3-17.1C683.4,32.6,691.2,35.2,696.9,38.9z"/>
	</g>
	<g>
		<path class="st0" d="M200.7,29.9l-4.4,4.4c3.5,5.5,4.6,12.4,2.2,19c-4,11.2-16.4,17.1-27.7,13.1c-1.6-0.6-3.1-1.3-4.4-2.2
			l-14.1,14.1L140,65.9c-5.7,3.8-13,4.9-19.9,2.5c-11.6-4.2-17.6-16.9-13.4-28.4c0.6-1.8,1.5-3.4,2.5-4.9l-5.3-5.3l-1,1.7
			c-5.5,9-8.5,19.4-8.5,30.1c-0.1,31.9,25.9,58,57.8,58h0.1c31.9,0,57.8-25.9,57.9-57.8c0-10.6-2.9-21-8.4-30.1L200.7,29.9z"/>
		<path class="st0" d="M115.7,41.6c-1.5,2-2.4,4.5-2.4,7.2c0,6.5,5.3,11.8,11.8,11.8c2.7,0,5.2-0.9,7.2-2.5L115.7,41.6z"/>
		<g>
			<path class="st0" d="M173.6,57.1c1.9,1.3,4.1,2,6.6,2c6.5,0,11.8-5.3,11.8-11.8c0-2.4-0.7-4.7-2-6.6L173.6,57.1z"/>
		</g>
		<g>
			<path class="st0" d="M152.5,69.5l-47.8-48l1.9-2C118.4,7,134.5,0,151.8,0h0.1c17.5,0,34.3,7.5,46,20.5l1.8,2L152.5,69.5z
				 M112.5,21.5l40,40.1l39.5-39.3c-10.6-10.6-25-16.7-40-16.7h-0.1C137,5.6,123.1,11.2,112.5,21.5z"/>
		</g>
		<g>
			<g>
				<path class="st0" d="M99.8,100.4l-5.6-0.4c-23.8-1.5-56.6-7.4-77.8-26.5C3.3,61.8,0.8,50.7,0.7,50.2L0,46.8h86.6L86.1,50
					c-0.4,2.9-0.6,5.9-0.6,8.8c0,13.2,3.8,26,11.1,36.9L99.8,100.4z"/>
			</g>
			<g>
				<path class="st0" d="M204.6,100.4l3.1-4.7c7.3-10.9,11.1-23.6,11.1-36.7c0-3-0.2-6.1-0.6-9l-0.4-3.2h86.6l-0.7,3.4
					c-0.1,0.5-2.6,11.6-15.6,23.3c-21.2,19.1-54.1,25-77.9,26.5L204.6,100.4z"/>
			</g>
		</g>
	</g>
</g>
</svg>
