<?xml version="1.0" encoding="UTF-8"?>
<svg width="114px" height="34px" viewBox="0 0 114 34" version="1.1" xmlns="http://www.w3.org/2000/svg" xmlns:xlink="http://www.w3.org/1999/xlink">
    <!-- Generator: Sketch 55.2 (78181) - https://sketchapp.com -->
    <title>Logo / Nav</title>
    <desc>Created with Sketch.</desc>
    <defs>
        <polygon id="path-1" points="0 0.0209037037 33.7708575 0.0209037037 33.7708575 33.8740741 0 33.8740741"></polygon>
        <polygon id="path-3" points="0 33.9790963 113.266883 33.9790963 113.266883 0.125925926 0 0.125925926"></polygon>
    </defs>
    <g id="Symbols" stroke="none" stroke-width="1" fill="none" fill-rule="evenodd">
        <g id="Nav-/-Connected" transform="translate(-16.000000, -8.000000)">
            <g id="Logo-/-Nav" transform="translate(16.000000, 8.000000)">
                <g id="Group-27" transform="translate(-0.000000, 0.000000)">
                    <g id="Group-3" transform="translate(0.000000, 0.105022)">
                        <mask id="mask-2" fill="white">
                            <use xlink:href="#path-1"></use>
                        </mask>
                        <g id="Clip-2"></g>
                        <path d="M29.2437699,17.8711556 L25.7610856,17.8711556 L21.408484,17.8711556 C20.9747187,20.0657926 19.0438162,21.7204593 16.7271352,21.7204593 C14.0912542,21.7204593 11.9544608,19.5785852 11.9544608,16.9361556 C11.9544608,14.2939778 14.0912542,12.1519778 16.7271352,12.1519778 C19.1154195,12.1519778 21.0940575,13.9105333 21.4445369,16.2062889 L25.7610856,16.2062889 L29.2437699,16.2062889 C29.7024079,16.2062889 30.074117,16.5790296 30.074117,17.0387852 C30.074117,17.4984148 29.7024079,17.8711556 29.2437699,17.8711556 M16.8854162,0.0209037037 C7.55990215,0.0209037037 -2.51239669e-05,7.59925185 -2.51239669e-05,16.9474889 C-2.51239669e-05,26.2957259 7.55990215,33.8740741 16.8854162,33.8740741 C26.2109302,33.8740741 33.7708575,26.2957259 33.7708575,16.9474889 C33.7708575,7.59925185 26.2109302,0.0209037037 16.8854162,0.0209037037" id="Fill-1" fill="#001428" mask="url(#mask-2)"></path>
                    </g>
                    <path d="M37.2874843,13.6086259 C37.2874843,10.5884185 39.2325818,8.2427963 42.5525884,8.2427963 C44.0590215,8.2427963 45.6969785,8.87318148 46.7646215,10.1046111 L45.0388562,11.5706407 C44.483114,11.0282778 43.6641983,10.5444704 42.5525884,10.5444704 C41.0754248,10.5444704 39.8469884,11.6733963 39.8469884,13.6086259 C39.8469884,15.2946481 40.885362,16.6726556 42.6550942,16.6726556 C43.298519,16.6726556 43.8542612,16.5406852 44.4539702,16.2181889 L44.4539702,14.9866333 L42.4355107,14.9866333 L42.4355107,12.9635074 L46.7938909,12.9635074 L46.7938909,17.6403963 C45.8432,18.3734111 44.2637818,18.9159 42.6550942,18.9159 C39.6568,18.9159 37.2874843,16.9952778 37.2874843,13.6086259" id="Fill-4" fill="#001428"></path>
                    <path d="M48.2830261,11.6293474 L50.5645336,11.6293474 L50.5645336,12.4649919 L50.593803,12.4649919 C51.1495451,11.8199993 51.9100476,11.497377 52.7437864,11.497377 C54.2209501,11.497377 55.303165,12.2303919 55.303165,14.5028511 L55.303165,18.7985622 L53.0216575,18.7985622 L53.0216575,15.0599474 C53.0216575,13.8724659 52.6267088,13.5352363 51.8809038,13.5352363 C51.0911319,13.5352363 50.5645336,14.0777252 50.5645336,15.1919178 L50.5645336,18.7985622 L48.2830261,18.7985622 L48.2830261,11.6293474 Z" id="Fill-6" fill="#001428"></path>
                    <path d="M61.662154,15.2213089 C61.662154,14.2243533 61.0040317,13.5351607 60.1118797,13.5351607 C59.1904582,13.5351607 58.5469078,14.2389607 58.5469078,15.2213089 C58.5469078,16.1741904 59.2050301,16.9073311 60.1118797,16.9073311 C60.9746367,16.9073311 61.662154,16.2035311 61.662154,15.2213089 M56.2362565,15.2213089 C56.2362565,13.0367459 57.8011028,11.4974274 60.1118797,11.4974274 C62.3641177,11.4974274 63.9729309,13.0075311 63.9729309,15.2213089 C63.9729309,17.4203533 62.3641177,18.930457 60.1118797,18.930457 C57.8011028,18.930457 56.2362565,17.3910126 56.2362565,15.2213089" id="Fill-8" fill="#001428"></path>
                    <path d="M64.3678797,17.8748578 L65.435397,16.3940948 C66.0349805,16.9365837 66.6493871,17.2005244 67.3073838,17.2005244 C67.7608714,17.2005244 67.9949012,17.0392133 67.9949012,16.7753985 C67.9949012,16.5406726 67.7754433,16.3940948 66.8832912,16.1155467 C65.6841243,15.7491022 64.6310532,15.1626652 64.6310532,13.7845319 C64.6310532,12.3331096 65.8156483,11.4973393 67.3073838,11.4973393 C68.3898499,11.4973393 69.1794962,11.7758874 70.0131094,12.3916652 L68.9308945,13.9896652 C68.4335656,13.4912504 67.8194102,13.242043 67.3367788,13.242043 C67.0734797,13.242043 66.7663392,13.3594059 66.7663392,13.6379541 C66.7663392,13.8578207 67.0295127,14.0191319 67.7462995,14.2682133 C69.3258433,14.8108281 70.188726,15.2213467 70.188726,16.6286948 C70.188726,17.96288 69.238035,18.9304948 67.27824,18.9304948 C66.1520582,18.9304948 65.157526,18.5786578 64.3678797,17.8748578" id="Fill-10" fill="#001428"></path>
                    <mask id="mask-4" fill="white">
                        <use xlink:href="#path-3"></use>
                    </mask>
                    <g id="Clip-13"></g>
                    <path d="M71.1859967,18.7986 L73.4675041,18.7986 L73.4675041,11.6293852 L71.1859967,11.6293852 L71.1859967,18.7986 Z M70.9666645,9.41560741 C70.9666645,8.71180741 71.5369785,8.12537037 72.3267504,8.12537037 C73.1165223,8.12537037 73.7015339,8.6972 73.7015339,9.41560741 C73.7015339,10.1632296 73.1165223,10.7350593 72.3267504,10.7350593 C71.5369785,10.7350593 70.9666645,10.1632296 70.9666645,9.41560741 L70.9666645,9.41560741 Z" id="Fill-12" fill="#001428" mask="url(#mask-4)"></path>
                    <path d="M74.3288919,17.8748578 L75.3964093,16.3940948 C75.9959927,16.9365837 76.6103993,17.2005244 77.268396,17.2005244 C77.7218836,17.2005244 77.9559134,17.0392133 77.9559134,16.7753985 C77.9559134,16.5406726 77.7364555,16.3940948 76.8443035,16.1155467 C75.6451365,15.7491022 74.5920655,15.1626652 74.5920655,13.7845319 C74.5920655,12.3331096 75.7766605,11.4973393 77.268396,11.4973393 C78.3508621,11.4973393 79.1405084,11.7758874 79.9741217,12.3916652 L78.8919068,13.9896652 C78.3945779,13.4912504 77.7804225,13.242043 77.2977911,13.242043 C77.0344919,13.242043 76.7273514,13.3594059 76.7273514,13.6379541 C76.7273514,13.8578207 76.990525,14.0191319 77.7073117,14.2682133 C79.2868555,14.8108281 80.1497382,15.2213467 80.1497382,16.6286948 C80.1497382,17.96288 79.1990473,18.9304948 77.2392522,18.9304948 C76.1130704,18.9304948 75.1185382,18.5786578 74.3288919,17.8748578" id="Fill-14" fill="#001428" mask="url(#mask-4)"></path>
                    <path d="M84.3469607,17.2737504 L85.780283,15.5291726 C86.5699293,16.3941578 87.5207458,16.7607281 88.2372813,16.7607281 C89.0563226,16.7607281 89.4073045,16.3500837 89.4073045,15.8808837 C89.4073045,15.30918 89.0416251,15.0599726 87.8717276,14.6640615 C86.2920582,14.1216985 84.71264,13.3739504 84.71264,11.3213578 C84.71264,9.59151333 86.1898036,8.28666889 88.1203293,8.25732815 C89.4804152,8.22798741 90.7236747,8.75574296 91.7180813,9.60612074 L90.3432979,11.3947726 C89.4511458,10.6910985 88.807721,10.4125504 88.2227094,10.4125504 C87.6230003,10.4125504 87.2574466,10.7203133 87.2574466,11.2188541 C87.2427491,11.7172689 87.6230003,11.9812096 88.7491821,12.4210689 C90.5773276,13.124743 91.9812549,13.593817 91.9812549,15.6024615 C91.9812549,18.0508393 89.8899359,18.9304319 88.1641706,18.9304319 C86.8332284,18.9304319 85.4585706,18.4172837 84.3469607,17.2737504" id="Fill-15" fill="#001428" mask="url(#mask-4)"></path>
                    <path d="M98.0932502,15.2213089 C98.0932502,14.2389607 97.4352536,13.5205533 96.5869428,13.5205533 C95.7093626,13.5205533 95.0512403,14.1950126 95.0512403,15.2213089 C95.0512403,16.2328719 95.6800932,16.9073311 96.5869428,16.9073311 C97.4058585,16.9073311 98.0932502,16.2474793 98.0932502,15.2213089 M92.725766,15.2213089 C92.725766,13.0221385 94.1443907,11.4974274 95.9872337,11.4974274 C96.7477362,11.4974274 97.4643974,11.8053163 97.9616007,12.3916274 L97.9909957,12.37702 L97.9909957,11.6293978 L100.287075,11.6293978 L100.287075,18.7984867 L98.1079478,18.7984867 L98.1079478,18.0508644 L98.0786783,18.036257 C97.6106188,18.6373015 96.967194,18.930457 96.1043114,18.930457 C94.1443907,18.930457 92.725766,17.4350867 92.725766,15.2213089" id="Fill-16" fill="#001428" mask="url(#mask-4)"></path>
                    <path d="M101.967592,13.4766681 L101.280075,13.4766681 L101.280075,11.6293348 L101.967592,11.6293348 L101.967592,10.5004089 C101.967592,8.72649037 102.888888,7.86150519 104.32221,7.86150519 C105.272901,7.86150519 106.004134,8.24280889 106.252736,8.41860148 L105.828518,10.075283 C105.521503,9.91397185 105.141252,9.81146815 104.936491,9.81146815 C104.526971,9.81146815 104.263671,10.0166015 104.263671,10.5883052 L104.263671,11.6293348 L105.623757,11.6293348 L105.623757,13.4766681 L104.263671,13.4766681 L104.263671,18.7985496 L101.967592,18.7985496 L101.967592,13.4766681 Z" id="Fill-17" fill="#001428" mask="url(#mask-4)"></path>
                    <path d="M108.367458,14.4588652 L111.043914,14.4588652 C110.897693,13.7551911 110.429633,13.3153319 109.742116,13.3153319 C109.040152,13.3153319 108.513679,13.7405837 108.367458,14.4588652 M113.222916,15.8223911 L108.35276,15.8223911 C108.499107,16.6434281 109.186499,17.0685541 110.063954,17.0685541 C110.648965,17.0538207 111.248674,16.8339541 111.73118,16.2915911 L113.04755,17.6403837 C112.447841,18.3880059 111.453309,18.9304948 109.83005,18.9304948 C107.665369,18.9304948 106.08595,17.4351244 106.08595,15.2064874 C106.08595,13.0367837 107.60683,11.4973393 109.771511,11.4973393 C111.789719,11.4973393 113.266883,13.0075689 113.266883,15.1331985 C113.266883,15.3384578 113.237739,15.6756874 113.222916,15.8223911" id="Fill-18" fill="#001428" mask="url(#mask-4)"></path>
                    <path d="M38.1357825,27.3460993 L37.2728998,27.3460993 L37.2728998,26.319803 L38.1357825,26.319803 L38.1357825,24.8683807 C38.1357825,23.3436696 38.8670155,22.5665807 40.1394188,22.5665807 C40.85608,22.5665807 41.3972502,22.7865733 41.7920734,23.0357807 L41.5288998,24.0474696 C41.0754122,23.8127437 40.6805891,23.6661659 40.2856403,23.6661659 C39.7006288,23.6661659 39.3205031,24.0474696 39.3205031,24.9857437 L39.3205031,26.319803 L41.3387114,26.319803 L41.3387114,27.3460993 L39.3205031,27.3460993 L39.3205031,33.459677 L38.1357825,33.459677 L38.1357825,27.3460993 Z" id="Fill-19" fill="#001428" mask="url(#mask-4)"></path>
                    <path d="M47.9302102,29.8970941 C47.9302102,28.372383 46.8479954,27.3167459 45.4730863,27.3167459 C43.9813507,27.3167459 43.001516,28.4750126 43.001516,29.8970941 C43.001516,31.3191756 43.9960483,32.4627089 45.4730863,32.4627089 C46.8332979,32.4627089 47.9302102,31.4218052 47.9302102,29.8970941 M41.7876516,29.8970941 C41.7876516,27.8445015 43.2646896,26.2318941 45.4730863,26.2318941 C47.5791028,26.2318941 49.1440747,27.7272644 49.1440747,29.8970941 C49.1440747,32.0667978 47.5791028,33.5475607 45.4730863,33.5475607 C43.2646896,33.5475607 41.7876516,31.9495607 41.7876516,29.8970941" id="Fill-20" fill="#001428" mask="url(#mask-4)"></path>
                    <path d="M50.6490631,26.3197652 L51.8336582,26.3197652 L51.8336582,27.6246096 L51.8629276,27.6246096 C52.3747028,26.7596244 53.1938698,26.2318689 54.1737045,26.2318689 C54.2760846,26.2318689 54.3637673,26.2318689 54.4662731,26.2464763 L54.4662731,27.5659281 C54.2906565,27.5513207 54.1151656,27.5367133 53.9982136,27.5367133 C52.638002,27.5367133 51.8336582,28.577617 51.8336582,30.0144319 L51.8336582,33.4596393 L50.6490631,33.4596393 L50.6490631,26.3197652 Z" id="Fill-21" fill="#001428" mask="url(#mask-4)"></path>
                    <polygon id="Fill-22" fill="#001428" mask="url(#mask-4)" points="62.2175068 24.2086548 59.116958 24.2086548 59.116958 23.0505141 66.6343002 23.0505141 66.6343002 24.2086548 63.4899101 24.2086548 63.4899101 33.459677 62.2175068 33.459677"></polygon>
                    <path d="M67.4080304,29.2813541 L71.7811081,29.2813541 C71.6054916,28.10848 70.8449891,27.3166578 69.674966,27.3166578 C68.5342122,27.3166578 67.6273626,28.0645319 67.4080304,29.2813541 M72.9364337,30.2489689 L67.3788866,30.2489689 C67.53968,31.5830281 68.4756734,32.4627467 69.8211874,32.4627467 C70.7718783,32.4627467 71.4446982,32.0522281 71.8833626,31.5097393 L72.7171015,32.2134133 C72.1026949,33.0051096 71.2106684,33.5475985 69.7773461,33.5475985 C67.6713296,33.5475985 66.179594,32.081443 66.179594,29.8971319 C66.179594,27.7419096 67.6566321,26.2318059 69.6895379,26.2318059 C71.6346354,26.2318059 72.9655775,27.7271763 72.9655775,29.7651615 C72.9655775,29.9556874 72.9364337,30.1609467 72.9364337,30.2489689" id="Fill-23" fill="#001428" mask="url(#mask-4)"></path>
                    <path d="M80.015036,29.9411178 C80.015036,28.4749622 79.0350757,27.3166956 77.6310228,27.3166956 C76.2856344,27.3166956 75.188722,28.3577252 75.188722,29.9411178 C75.188722,31.3778067 76.1685567,32.4626585 77.6310228,32.4626585 C78.9473931,32.4626585 80.015036,31.4510956 80.015036,29.9411178 M73.9894294,29.9411178 C73.9894294,27.8298437 75.4373236,26.2318437 77.4555319,26.2318437 C78.508603,26.2318437 79.4300245,26.7303844 79.9419253,27.5952437 L79.9710691,27.5806363 L79.9710691,26.31974 L81.1557898,26.31974 L81.1557898,33.4596141 L80.015036,33.4596141 L80.015036,32.169503 L80.0004641,32.169503 C79.4885633,33.0197548 78.6109831,33.5476363 77.4555319,33.5476363 C75.4957369,33.5476363 73.9894294,32.1108215 73.9894294,29.9411178" id="Fill-24" fill="#001428" mask="url(#mask-4)"></path>
                    <path d="M83.0307663,26.3197652 L84.2153613,26.3197652 L84.2153613,27.6100022 L84.2300588,27.6100022 C84.7711035,26.745017 85.6632555,26.2318689 86.6138208,26.2318689 C87.6814638,26.2318689 88.4566638,26.7742319 88.8223431,27.75658 L88.836915,27.75658 C89.3780853,26.7889652 90.3433481,26.2318689 91.454958,26.2318689 C93.0343762,26.2318689 93.9118307,27.3167207 93.9118307,29.3547059 L93.9118307,33.4596393 L92.7272357,33.4596393 L92.7272357,29.6772022 C92.7272357,28.1524911 92.1861911,27.3167207 91.1038506,27.3167207 C89.9923663,27.3167207 89.1000886,28.3136763 89.1000886,29.9116763 L89.1000886,33.4596393 L87.9156192,33.4596393 L87.9156192,29.6772022 C87.9156192,28.1524911 87.3306076,27.3167207 86.262839,27.3167207 C85.0928159,27.3167207 84.2153613,28.3136763 84.2153613,29.9116763 L84.2153613,33.4596393 L83.0307663,33.4596393 L83.0307663,26.3197652 Z" id="Fill-25" fill="#001428" mask="url(#mask-4)"></path>
                    <path d="M95.1318631,32.5359978 L95.7314466,31.6270644 C96.2873144,32.1695533 96.9161673,32.4920496 97.9106995,32.4920496 C98.7735821,32.4920496 99.2707855,32.0667978 99.2707855,31.5244348 C99.2707855,30.8940496 98.6126631,30.7180052 97.5742896,30.3368274 C96.4188383,29.9263089 95.4390036,29.4572348 95.4390036,28.1523904 C95.4390036,27.0528052 96.4335359,26.2317681 97.7790499,26.2317681 C98.6419326,26.2317681 99.446402,26.4664941 100.236174,27.1114867 L99.6217673,28.0497607 C99.0076119,27.478057 98.349364,27.2874052 97.7352086,27.2874052 C97.1794664,27.2874052 96.6382962,27.6100274 96.6382962,28.1523904 C96.6382962,28.7094867 97.2086102,28.9880348 97.9838102,29.266583 C99.4901177,29.85302 100.48465,30.1169607 100.470078,31.5098274 C100.470078,32.62402 99.6217673,33.5475607 97.9106995,33.5475607 C96.7259788,33.5475607 95.8192549,33.1370422 95.1318631,32.5359978" id="Fill-26" fill="#001428" mask="url(#mask-4)"></path>
                </g>
            </g>
        </g>
    </g>
</svg>