<svg xmlns="http://www.w3.org/2000/svg" xmlns:xlink="http://www.w3.org/1999/xlink" width="104" height="36" viewBox="0 0 104 36">
    <defs>
        <path id="a" d="M19.849.039H.01v35.03h19.838V.04z"/>
    </defs>
    <g fill="none" fill-rule="evenodd">
        <g fill="#000">
            <path d="M54.232 11.846a4.44 4.44 0 0 0-1.164-.685c-.46-.188-.982-.359-1.569-.512a34.8 34.8 0 0 1-1.238-.341 3.53 3.53 0 0 1-.772-.31c-.188-.108-.319-.23-.39-.366a1.005 1.005 0 0 1-.108-.48V9.12c0-.281.124-.518.373-.707.25-.19.624-.286 1.122-.286.498 0 .997.1 1.495.302.499.2 1.007.474 1.528.822l1.329-1.889a6.886 6.886 0 0 0-1.968-1.074 7.112 7.112 0 0 0-2.352-.374 5.2 5.2 0 0 0-1.641.245 3.736 3.736 0 0 0-1.281.7 3.222 3.222 0 0 0-.834 1.082 3.243 3.243 0 0 0-.296 1.407v.033c0 .566.09 1.035.274 1.417.182.38.44.696.772.95.332.257.736.47 1.212.644a14.64 14.64 0 0 0 1.596.472c.486.12.882.234 1.187.342.305.11.543.218.714.325.172.109.288.226.35.35.06.126.09.27.09.433v.032c0 .337-.147.598-.44.79-.293.189-.705.284-1.237.284a4.472 4.472 0 0 1-1.836-.374 7.594 7.594 0 0 1-1.636-1.01L46 15.81a6.924 6.924 0 0 0 2.326 1.377 7.865 7.865 0 0 0 2.61.448c.63 0 1.204-.08 1.724-.237a3.979 3.979 0 0 0 1.34-.684c.372-.299.664-.668.873-1.107.21-.439.313-.94.313-1.506v-.032c0-.499-.08-.928-.24-1.286a2.619 2.619 0 0 0-.714-.936M75.143 17.634h2.47v-4.537h5.362v-2.345h-5.362V8.257h6.083V5.913h-8.553zM90.876 15.34v-2.46h5.274v-2.295h-5.274V8.207h5.993V5.913h-8.422v11.72h8.5v-2.292zM65.921 13.03H63.77l.649-2.375a1.136 1.136 0 0 1-.649-1.039c0-.625.481-1.132 1.077-1.132.594 0 1.074.507 1.074 1.132 0 .465-.267.865-.647 1.04l.647 2.373zm.047-7.117h-2.243l-4.737 11.72h2.48l1.01-2.608h4.676l1.01 2.609h2.544l-4.74-11.721z"/>
        </g>
        <text fill="#000" font-family="ArialMT, Arial" font-size="8" letter-spacing=".6">
            <tspan x="40.755" y="30">TEAM EDITIO</tspan> <tspan x="98.468" y="30">N</tspan>
        </text>
        <path fill="#000" d="M11.957 17.94l-4.982-4.952a3.61 3.61 0 0 0-.72 2.159 3.547 3.547 0 0 0 3.541 3.542c.81 0 1.561-.27 2.16-.749"/>
        <g transform="translate(.87)">
            <mask id="b" fill="#fff">
                <use xlink:href="#a"/>
            </mask>
            <path fill="#000" d="M5.325 6.337C8.44 3.32 12.52 1.68 16.896 1.68h.028l.144.003V18.08L5.325 6.337zM16.865.038a18.152 18.152 0 0 0-13.271 5.71l-.56.59 14.034 14.059v2.52l-.056.056-3.61-3.631a6.607 6.607 0 0 1-5.842.73c-3.408-1.23-5.171-4.95-3.936-8.317.175-.527.44-.997.732-1.435L2.8 8.767l-.293.498a16.885 16.885 0 0 0-2.496 8.817c-.028 9.345 7.604 16.986 16.97 16.986l2.868.001V.041L16.864.038z" mask="url(#b)"/>
        </g>
        <path fill="#000" d="M34.764 18.056c0-7.858-6.394-14.25-14.255-14.255v1.706c6.92.003 12.549 5.631 12.549 12.55 0 6.916-5.63 12.544-12.549 12.548v1.706c7.86-.005 14.255-6.398 14.255-14.255"/>
        <path fill="#000" d="M23.754 17.617l-.713 4.24h3.488l-.712-4.24c.794-.369 1.344-1.143 1.344-2.043 0-1.253-1.063-2.27-2.375-2.27s-2.376 1.017-2.376 2.27c-.001.9.548 1.674 1.344 2.043M22.886 8.212c.816.208 1.13-1.01.315-1.22-.815-.208-1.13 1.01-.315 1.22M26.444 10.296c.637.534 1.438-.42.801-.953-.636-.533-1.437.42-.8.953M28.818 13.897c.367.751 1.488.199 1.122-.553-.366-.75-1.489-.198-1.122.553M22.886 27.583c.816-.209 1.13 1.01.315 1.22-.815.208-1.13-1.01-.315-1.22M26.444 25.182c.637-.534 1.438.42.801.953-.636.533-1.437-.42-.8-.953M28.818 22.215c.367-.751 1.488-.2 1.122.553-.366.749-1.489.198-1.122-.553M30.012 18.056c0 .845 1.268.845 1.268 0s-1.268-.845-1.268 0"/>
    </g>
</svg>
