<svg xmlns="http://www.w3.org/2000/svg" xmlns:xlink="http://www.w3.org/1999/xlink" width="90" height="31" viewBox="0 0 90 31">
    <defs>
        <path id="a" d="M17.361.154H.251v30.612h17.11V.154z"/>
    </defs>
    <g fill="none" fill-rule="evenodd">
        <path fill="#28B2FA" d="M10.72 15.695l-4.436-4.41a3.215 3.215 0 0 0-.642 1.923 3.159 3.159 0 0 0 3.154 3.154c.722 0 1.39-.24 1.924-.667"/>
        <g transform="translate(.564)">
            <mask id="b" fill="#fff">
                <use xlink:href="#a"/>
            </mask>
            <path fill="#28B2FA" d="M4.834 5.658c2.686-2.638 6.206-4.07 9.98-4.07h.024c.042 0 .083.002.125.003V15.92L4.834 5.658zM14.787.154c-4.38 0-8.458 1.793-11.447 4.99l-.482.514 12.105 12.286v2.203l-.048.048-3.114-3.173a5.636 5.636 0 0 1-5.04.64 5.684 5.684 0 0 1-3.395-7.27c.152-.46.38-.87.632-1.253L2.656 7.782l-.253.435A14.9 14.9 0 0 0 .25 15.922c-.024 8.166 6.56 14.843 14.638 14.843l2.473.001V.156L14.787.154z" mask="url(#b)"/>
        </g>
        <path fill="#28B2FA" d="M30.322 15.799c0-6.843-5.568-12.41-12.413-12.414v1.486c6.026.003 10.927 4.903 10.927 10.928 0 6.022-4.901 10.924-10.927 10.927v1.485c6.845-.003 12.413-5.57 12.413-12.412"/>
        <path fill="#28B2FA" d="M20.718 15.547l-.591 3.637h2.898l-.591-3.637a1.947 1.947 0 0 0 1.117-1.752c0-1.074-.884-1.946-1.975-1.946-1.09 0-1.974.872-1.974 1.946a1.941 1.941 0 0 0 1.116 1.752M20.026 7.314c.726.185 1.006-.9.28-1.086-.726-.186-1.006.9-.28 1.086M23.194 8.888c.567.475 1.28-.374.714-.85-.567-.474-1.28.375-.714.85M25.309 12.094c.326.67 1.325.178.999-.492-.326-.667-1.326-.176-1 .492M20.026 24.283c.726-.186 1.006.9.28 1.086-.726.186-1.006-.9-.28-1.086M23.194 22.145c.567-.476 1.28.374.714.848-.567.475-1.28-.374-.714-.848M25.309 19.502c.326-.669 1.325-.177.999.493-.326.667-1.326.176-1-.493M26.372 15.798c0 .753 1.129.753 1.129 0 0-.752-1.129-.752-1.129 0"/>
        <g fill="#28B2FA">
            <path d="M44.805 11.465c-.318-.27-.709-.5-1.172-.695-.463-.191-.99-.365-1.581-.52a34.85 34.85 0 0 1-1.247-.347c-.33-.1-.589-.201-.778-.315-.19-.109-.321-.233-.394-.37a1.026 1.026 0 0 1-.108-.488v-.033c0-.286.125-.527.376-.719.251-.193.628-.29 1.13-.29.502 0 1.005.103 1.507.307a8.455 8.455 0 0 1 1.538.834l1.34-1.917a6.922 6.922 0 0 0-1.983-1.09 7.116 7.116 0 0 0-2.37-.38c-.602 0-1.153.081-1.653.248-.5.164-.93.401-1.291.71-.36.307-.64.676-.84 1.1-.199.423-.298.9-.298 1.428v.033c0 .575.091 1.052.276 1.439.183.385.443.707.778.965.335.26.741.477 1.221.654.48.176 1.016.336 1.608.479.49.121.889.238 1.196.347.307.111.547.22.72.33.172.11.29.23.352.356.06.127.09.273.09.44v.031c0 .343-.147.608-.443.802-.295.192-.71.289-1.246.289-.67 0-1.287-.128-1.85-.38a7.641 7.641 0 0 1-1.648-1.025l-1.523 1.8a6.964 6.964 0 0 0 2.343 1.398 7.87 7.87 0 0 0 2.629.455c.635 0 1.214-.081 1.737-.24a3.997 3.997 0 0 0 1.35-.694 3.16 3.16 0 0 0 .88-1.124c.21-.446.316-.955.316-1.53v-.032c0-.506-.082-.942-.242-1.305a2.657 2.657 0 0 0-.72-.951M66.26 17.341h2.483v-4.606h5.387v-2.38h-5.387V7.821h6.111v-2.38H66.26zM82.338 15.013v-2.498h5.404v-2.33h-5.404V7.77h6.141V5.44h-8.63v11.9h8.711v-2.328zM56.773 12.667h-2.184l.658-2.41A1.153 1.153 0 0 1 54.59 9.2c0-.635.488-1.15 1.093-1.15.603 0 1.09.515 1.09 1.15 0 .473-.27.879-.657 1.055l.658 2.41zm.047-7.225h-2.277l-4.81 11.9h2.518l1.026-2.65h4.747l1.026 2.65h2.583l-4.813-11.9z"/>
        </g>
        <text fill="#4A5579" font-family="Montserrat-Regular, Montserrat" font-size="7" letter-spacing=".3">
            <tspan x="35.725" y="27.412">TEAM EDITIO</tspan> <tspan x="84.903" y="27.412">N</tspan>
        </text>
    </g>
</svg>
