<svg id="Layer_1" data-name="Layer 1" xmlns="http://www.w3.org/2000/svg" viewBox="0 0 960 330"><defs><style>.cls-1{fill:#010101;}</style></defs><title>gnosis_safe_teams_2019_logo_all_rgb</title><path class="cls-1" d="M350.94,240.43h-6.62v-7.86h6.62v-11.1c0-11.67,5.61-17.62,15.37-17.62A23.37,23.37,0,0,1,379,207.44l-2,7.74c-3.48-1.79-6.51-2.91-9.54-2.91-4.49,0-7.4,2.91-7.4,10.09v10.21h15.48v7.86H360v46.78h-9.09Z"/><path class="cls-1" d="M381.12,260c0-15.71,11.33-28,28.27-28,16.15,0,28.16,11.44,28.16,28s-12,27.93-28.16,27.93C392.45,287.88,381.12,275.65,381.12,260Zm47.12,0c0-11.67-8.31-19.75-18.85-19.75-11.44,0-19,8.86-19,19.75s7.63,19.63,19,19.63C419.82,279.58,428.24,271.61,428.24,260Z"/><path class="cls-1" d="M451.12,232.57h9.09v10h.22c3.93-6.62,10.21-10.66,17.73-10.66a15.21,15.21,0,0,1,2.24.11v10.1c-1.34-.11-2.69-.23-3.59-.23-10.43,0-16.6,8-16.6,19v26.37h-9.09Z"/><path class="cls-1" d="M522.47,270.94V240.43h-7.06v-7.86h7.06V214l9.09-1v19.63h18.06v7.86H531.56V269.6c0,6.61,1.46,9.76,6.62,9.76a20.5,20.5,0,0,0,9.31-2.81l2.36,8c-3,1.79-6.73,3.36-13.24,3.36C527,287.88,522.47,281.94,522.47,270.94Z"/><path class="cls-1" d="M607.51,262.64H564.88c1.23,10.21,8.41,16.94,18.73,16.94a19.58,19.58,0,0,0,15.82-7.29l6.4,5.38c-4.71,6.06-11.56,10.21-22.55,10.21-16.16,0-27.6-11.22-27.6-27.93,0-16.49,11.33-28,26.93-28,14.92,0,25.13,11.44,25.13,27C607.74,260.4,607.51,262,607.51,262.64Zm-42.41-7.4h33.55c-1.35-9-7.18-15-16.16-15C573.74,240.2,566.79,245.92,565.1,255.24Z"/><path class="cls-1" d="M617.5,260.28c0-16.15,11.1-28.38,26.58-28.38,8.08,0,15.15,3.81,19.08,10.43l.22-.11v-9.65h9.09v54.64h-8.75v-9.87h-.11c-3.93,6.5-10.66,10.54-19.53,10.54C629.05,287.88,617.5,276.89,617.5,260.28Zm46.22,0c0-11.22-7.52-20.08-18.29-20.08-10.32,0-18.73,8-18.73,20.08,0,11,7.51,19.3,18.73,19.3C655.53,279.58,663.72,271.84,663.72,260.28Z"/><path class="cls-1" d="M688.85,232.57h9.08v9.88h.12a21.69,21.69,0,0,1,18.28-10.55c8.19,0,14.14,4.15,16.94,11.67h.12a22.5,22.5,0,0,1,20.08-11.67c12.11,0,18.85,8.3,18.85,23.9v31.41h-9.09V258.26c0-11.66-4.15-18.06-12.45-18.06-8.53,0-15.37,7.63-15.37,19.86v27.15h-9.09V258.26c0-11.66-4.49-18.06-12.68-18.06-9,0-15.71,7.63-15.71,19.86v27.15h-9.08Z"/><path class="cls-1" d="M783.31,280.14l4.6-6.95c4.26,4.15,9.09,6.61,16.72,6.61,6.61,0,10.43-3.25,10.43-7.4,0-4.82-5-6.17-13-9.09-8.87-3.14-16.38-6.73-16.38-16.71,0-8.42,7.62-14.7,18-14.7a28.47,28.47,0,0,1,18.84,6.73l-4.71,7.18A20.66,20.66,0,0,0,803.28,240c-4.26,0-8.41,2.47-8.41,6.62s4.37,6.39,10.32,8.52c11.55,4.49,19.18,6.51,19.07,17.17,0,8.52-6.51,15.59-19.63,15.59A31.4,31.4,0,0,1,783.31,280.14Z"/><path class="cls-1" d="M344.43,136.14c0-23.12,14.92-41.07,40.39-41.07,11.56,0,24.12,4.83,32.31,14.25l-13.24,11.22a26.8,26.8,0,0,0-19.07-7.85c-11.33,0-20.75,8.64-20.75,23.45,0,12.9,8,23.44,21.54,23.44a27.82,27.82,0,0,0,13.8-3.47v-9.43H383.92V131.2h33.44V167c-7.3,5.61-19.41,9.76-31.75,9.76C362.61,176.75,344.43,162.05,344.43,136.14Z"/><path class="cls-1" d="M428.91,121h17.5v6.4h.23A21.25,21.25,0,0,1,463.13,120c11.33,0,19.63,5.61,19.63,23v32.87h-17.5V147.24c0-9.08-3-11.67-8.75-11.67-6.06,0-10.1,4.16-10.1,12.68v27.6h-17.5Z"/><path class="cls-1" d="M491.51,148.48c0-16.72,12-28.5,29.73-28.5,17.28,0,29.62,11.56,29.62,28.5s-12.34,28.38-29.62,28.38C503.52,176.86,491.51,165.08,491.51,148.48Zm41.62,0c0-7.63-5-12.91-11.89-12.91-7.07,0-12,5.39-12,12.91,0,7.29,5,12.9,12,12.9C527.86,161.38,533.13,156,533.13,148.48Z"/><path class="cls-1" d="M556,168.78l8.19-11.33c4.6,4.15,9.31,6.17,14.36,6.17,3.48,0,5.27-1.23,5.27-3.25,0-1.8-1.68-2.92-8.53-5.05-9.2-2.8-17.27-7.29-17.27-17.84,0-11.1,9.09-17.5,20.53-17.5a32.32,32.32,0,0,1,20.75,6.84L591,139.05c-3.81-3.81-8.53-5.72-12.23-5.72-2,0-4.37.9-4.37,3,0,1.68,2,2.92,7.51,4.82,12.12,4.16,18.74,7.3,18.74,18.07,0,10.21-7.29,17.61-22.33,17.61C569.7,176.86,562.08,174.17,556,168.78Z"/><path class="cls-1" d="M608.52,104.05c0-5.39,4.38-9.87,10.43-9.87s10.55,4.37,10.55,9.87c0,5.72-4.49,10.1-10.55,10.1S608.52,109.77,608.52,104.05ZM610.2,121h17.51v54.86H610.2Z"/><path class="cls-1" d="M636.12,168.78l8.19-11.33c4.6,4.15,9.31,6.17,14.36,6.17,3.48,0,5.27-1.23,5.27-3.25,0-1.8-1.68-2.92-8.52-5.05-9.2-2.8-17.28-7.29-17.28-17.84,0-11.1,9.09-17.5,20.53-17.5a32.32,32.32,0,0,1,20.75,6.84l-8.3,12.23c-3.81-3.81-8.52-5.72-12.23-5.72-2,0-4.37.9-4.37,3,0,1.68,2,2.92,7.52,4.82,12.11,4.16,18.73,7.3,18.73,18.07,0,10.21-7.29,17.61-22.32,17.61C649.81,176.86,642.18,174.17,636.12,168.78Z"/><path class="cls-1" d="M713,164.18l11-13.35c6.06,6.62,13.35,9.43,18.85,9.43,6.28,0,9-3.15,9-6.74,0-4.37-2.8-6.28-11.78-9.31-12.11-4.15-24.23-9.87-24.23-25.58,0-13.23,11.33-23.22,26.14-23.44,10.43-.23,20,3.81,27.6,10.32L759,119.2c-6.84-5.39-11.78-7.52-16.26-7.52s-7.41,2.35-7.41,6.17,2.81,5.83,11.45,9.2c14,5.38,24.79,9,24.79,24.34,0,18.74-16,25.47-29.28,25.47A40.56,40.56,0,0,1,713,164.18Z"/><path class="cls-1" d="M777.92,148.48c0-16.83,10.89-28.5,25-28.5a19.66,19.66,0,0,1,15.15,6.84l.22-.11V121h17.61v54.86H819.21v-5.72L819,170c-3.59,4.6-8.52,6.84-15.14,6.84C788.81,176.86,777.92,165.42,777.92,148.48Zm41.18,0c0-7.52-5.05-13-11.56-13-6.73,0-11.78,5.16-11.78,13s4.83,12.9,11.78,12.9C813.82,161.38,819.1,156.33,819.1,148.48Z"/><path class="cls-1" d="M849.61,135.13h-5.27V121h5.27v-8.64c0-13.57,7.07-20.19,18.06-20.19a27.43,27.43,0,0,1,14.81,4.26l-3.25,12.68a17.5,17.5,0,0,0-6.85-2c-3.14,0-5.16,1.57-5.16,5.94v8h10.44v14.14H867.22v40.72H849.61Z"/><path class="cls-1" d="M936,153.08H898.64c1.12,6.28,6.39,9.53,13.12,9.53a17.29,17.29,0,0,0,12.79-5.94L934.65,167c-4.6,5.72-12.23,9.87-24.68,9.87-16.6,0-28.72-11.44-28.72-28.5,0-16.6,11.67-28.38,28.27-28.38,15.48,0,26.81,11.56,26.81,27.82C936.33,149.37,936.11,152,936,153.08Zm-37.25-10.44h20.53c-1.12-5.38-4.71-8.75-10-8.75S899.87,137.15,898.75,142.64Z"/><path class="cls-1" d="M161,14.2A146.54,146.54,0,1,0,307.56,160.74,146.54,146.54,0,0,0,161,14.2ZM268.27,168.74h-68a41.41,41.41,0,1,1,.32-14.41h67.68a7.21,7.21,0,1,1,0,14.41Z"/></svg>