<svg height="12" viewBox="0 0 12 12" width="12" xmlns="http://www.w3.org/2000/svg" xmlns:xlink="http://www.w3.org/1999/xlink"><mask id="a" fill="#fff"><path d="m6.72043466.05975844h-6.62356495v11.84970376h6.62356495z" fill="#fff" fill-rule="evenodd"/></mask><g fill="#001428" fill-rule="evenodd"><path d="m4.14977665 6.07551536-1.71737342-1.70732942c-.154797.20785847-.24831026.46589514-.24831026.74441596 0 .67391239.54853704 1.22126772 1.22091168 1.22126772.27926965 0 .53821724-.09336958.744772-.25835426"/><path d="m1.87126776 2.19027617c1.03982725-1.02106347 2.40224018-1.57576779 3.8633547-1.57576779h.00917804c.01609919 0 .03219839.00091234.04814712.00121646v5.5467391zm3.85282252-2.13062417c-1.69583171 0-3.2740039.69414069-4.43103929 1.93158142l-.18657008.19904275 4.68546671 4.75589009v.85273625l-.01850655.01870302-1.20548342-1.2283173c-.55925885.37618928-1.27484536.48551834-1.95071051.24739691-1.13777654-.41618029-1.72637503-1.67445284-1.31411535-2.81366468.05852884-.17821093.14669825-.3371106.24449708-.48536628l-.51938702-.5253573-.09794929.16847927c-.5392477.89211904-.83339649 1.92230593-.83339649 2.98260013-.00947896 3.16111517 2.53900808 5.74578182 5.66631374 5.74578182l.95722485.0003041v-11.84889785z" mask="url(#a)" transform="translate(.218409)"/><path d="m11.7375061 6.11561396c0-2.64879063-2.15538824-4.8037754-4.80500459-4.80515818v.57492892c2.33248021.00122914 4.22991669 1.89824874 4.22991669 4.23022926 0 2.33136596-1.89743648 4.22869284-4.22991669 4.22992194v.574929c2.64961635-.0013828 4.80500459-2.15636759 4.80500459-4.80485094"/><path d="m8.02004901 6.01820975-.22912891 1.40770636h1.1220214l-.2288201-1.40770636c.25522242-.12241582.43247309-.37950419.43247309-.67820486 0-.41582039-.34214937-.75340965-.76443209-.75340965-.42197392 0-.76443209.33758926-.76443209.75340965-.00046319.2990033.17647867.55578904.4323187.67820486"/><path d="m7.75184322 2.83111882c.28114484.0716844.38948776-.34809944.1084868-.42035731-.28100096-.07197114-.38934388.34809944-.1084868.42035731"/><path d="m8.97850178 3.44035856c.21945107.18400118.4955759-.14470408.27612484-.3285634-.21945107-.18371744-.49543387.14484596-.27612484.3285634"/><path d="m9.79686881 4.68163059c.12643597.25912811.51314779.0686432.38671179-.19048491-.1261512-.25841307-.51314776-.06821418-.38671179.19048491"/><path d="m7.75184322 9.3998634c.28114484-.07200813.38948776.34827835.1084868.42028648s-.38934388-.34799147-.1084868-.42028648"/><path d="m8.97850178 8.5721264c.21945107-.18396063.4955759.14481403.27612484.32849098-.21945107.18396062-.49543387-.14481403-.27612484-.32849098"/><path d="m9.79686881 7.54913594c.12643597-.25888516.51314779-.06847377.38671179.19069729-.1261512.25831336-.51314776.06818787-.38671179-.19069729"/><path d="m10.208641 6.11535204c0 .29135677.4368186.29135677.4368186 0 0-.29106802-.4368186-.29106802-.4368186 0"/></g></svg>