<svg xmlns="http://www.w3.org/2000/svg" width="13" height="13" viewBox="0 0 13 13">
    <path fill="#001428" fill-rule="evenodd" d="M.658 0L0 1.936l.43 2.053-.278.216.404.313-.308.238.41.368-.26.175.595.686-.881 2.78.83 2.798 2.975-.777 1.58 1.231h1.976l1.72-1.26 2.866.806.83-2.798h.003l-.885-2.78.594-.686-.26-.174.41-.368-.307-.239.404-.313-.278-.217.43-2.052L12.341 0 8.197 1.522H4.804L.658 0zm7.427 6.826l1.693.796-2.369.683.676-1.48zm-4.863.794l1.693-.794.676 1.479-2.37-.685zm2.276 2.274l.294-.17h1.416l.277.178.093 1.033H5.401l.097-1.041z"/>
</svg>
