<?xml version="1.0" encoding="utf-8"?>
<!-- Generator: Adobe Illustrator 21.1.0, SVG Export Plug-In . SVG Version: 6.00 Build 0)  -->
<svg version="1.1" id="Ebene_7" xmlns="http://www.w3.org/2000/svg" xmlns:xlink="http://www.w3.org/1999/xlink" x="0px" y="0px"
	 viewBox="0 0 50 50" style="enable-background:new 0 0 50 50;" xml:space="preserve">
<g id="ZWC4wa.tif">
	<g>
		<g>
			<path d="M13.5,26c3.7-6.1,7.2-12,11.1-18.4C28.3,14,31.9,19.9,35.6,26c-3.7,2.2-7.4,4.4-11.1,6.6C20.9,30.4,17.2,28.2,13.5,26z
				 M25.1,20.8c2.7,1.2,5.4,2.5,8.5,3.9c-2.9-4.8-5.6-9.3-8.5-14.1C25.1,14.2,25.1,17.4,25.1,20.8z M15.5,24.7
				c3.1-1.4,5.8-2.7,8.4-3.8c0-3.4,0-6.6,0-10.2C21,15.4,18.4,19.9,15.5,24.7z M33.8,25.9c-3-1.4-5.8-2.6-8.7-3.9c0,3.1,0,6,0,9.1
				C28,29.3,30.8,27.7,33.8,25.9z M23.9,22c-3,1.4-5.7,2.6-8.6,3.9c3,1.8,5.8,3.4,8.6,5.1C23.9,27.9,23.9,25,23.9,22z"/>
			<path d="M24.5,33.3c3.5-2,6.9-4,12.1-7.1c-4.9,6.9-8.4,11.8-12.1,17.1C20.8,38,17.2,33,12.4,26.2C17.8,29.4,21.2,31.4,24.5,33.3z
				 M25.1,40.7c2.7-3.8,5.1-7.3,7.9-11.2c-3,1.8-5.5,3.3-7.9,4.7C25.1,36.4,25.1,38.4,25.1,40.7z M23.9,34.2
				c-2.4-1.4-4.9-2.9-7.9-4.7c2.8,4,5.2,7.4,7.9,11.1C23.9,38.3,23.9,36.4,23.9,34.2z"/>
		</g>
	</g>
</g>
</svg>
