<svg height="26" viewBox="0 0 26 26" width="26" xmlns="http://www.w3.org/2000/svg"><g fill="none" fill-rule="nonzero"><circle cx="13" cy="13" fill="#E8E7E6" r="13"/><path d="m12.9800266 4.09134443c-.0615216.00319594-.1222455.01997459-.1765755.04953761-.05433.02956221-.1014704.07190818-.1374265.12224554l-6.1059363 8.59150972c-.04873785.0687133-.07590285.1526054-.07590285.2373076 0 .0838943.027165.1685862.07590285.2373076l6.1059363 8.5898734c.0375515.0527326.0878889.096678.1462136.1262403.0575269.0295622.1222455.0455429.1877618.0455429.0647186 0 .1302349-.0159797.1877618-.0455429.057527-.0295623.1078623-.0735077.1462136-.1262403l6.1059363-8.5898734c.0487379-.0687132.0759028-.1526054.0759028-.2373076 0-.0838942-.0271649-.1685862-.0759028-.2373076l-6.1073681-8.59150972c-.039151-.05592949-.093481-.10067268-.1542049-.13103259-.0615217-.02956221-.1302349-.04394343-.1981484-.04074851zm.0191757 1.7729551 2.2890102 6.81773647h-4.5774068zm-1.2160533 1.05305516-1.93513509 5.76476311h-2.16199071zm2.4330066 0 4.0971462 5.76476311h-2.1619907zm-6.53015285 6.58292421h2.16117254l1.93513511 5.7631268zm3.02494615 0h4.5774068l-2.2890102 6.8161001zm5.4403622 0h2.1611726l-4.0963281 5.7631268z" fill="#B2B5B2"/></g></svg>