<svg xmlns="http://www.w3.org/2000/svg" width="92" height="92" viewBox="0 0 92 92">
    <g fill="none" fill-rule="evenodd">
        <g>
            <g>
                <g transform="translate(-717 -352) translate(717 352)">
                    <circle cx="46" cy="46" r="46" fill="#F0EFEE" fill-rule="nonzero"/>
                    <path fill="#B2B5B2" d="M55.85 22.998c-12.699 0-23 10.301-23 23 0 12.703 10.301 23 23 23 12.703 0 23-10.297 23-23 0-12.699-10.297-23-23-23m0 6.572c9.063 0 16.43 7.37 16.43 16.428 0 9.062-7.367 16.429-16.43 16.429-9.058 0-16.428-7.367-16.428-16.429 0-9.058 7.37-16.428 16.429-16.428"/>
                    <path fill="#B2B5B2" fill-rule="nonzero" d="M28.929 24.177c-9.348 3.077-15.786 11.82-15.786 21.81 0 9.991 6.438 18.733 15.786 21.81 1.724.568 3.58-.37 4.148-2.093.568-1.724-.37-3.581-2.094-4.149-6.673-2.196-11.268-8.437-11.268-15.568 0-7.13 4.595-13.371 11.268-15.568 1.724-.567 2.662-2.425 2.094-4.148-.567-1.724-2.424-2.661-4.148-2.094z"/>
                </g>
            </g>
        </g>
    </g>
</svg>
