<svg width="89" height="89" viewBox="0 0 89 89" fill="none" xmlns="http://www.w3.org/2000/svg">
<path d="M44.25 0C53.0018 0 61.5571 2.59522 68.834 7.45747C76.1109 12.3197 81.7825 19.2306 85.1317 27.3163C88.4808 35.4019 89.3571 44.2991 87.6497 52.8827C85.9424 61.4664 81.728 69.351 75.5395 75.5395C69.351 81.728 61.4664 85.9424 52.8827 87.6497C44.2991 89.3571 35.4019 88.4808 27.3163 85.1317C19.2306 81.7825 12.3197 76.1109 7.45747 68.834C2.59522 61.5571 0 53.0018 0 44.25C0.0164019 32.5192 4.68371 21.2736 12.9786 12.9786C21.2736 4.68371 32.5192 0.0164019 44.25 0ZM44.25 4.445C36.3785 4.445 28.6838 6.7791 22.1388 11.1522C15.5939 15.5252 10.4926 21.7408 7.48007 29.013C4.46756 36.2853 3.67909 44.2874 5.21438 52.0078C6.74967 59.7281 10.5398 66.8198 16.1054 72.3861C21.671 77.9524 28.7622 81.7434 36.4823 83.2796C44.2025 84.8159 52.2048 84.0284 59.4773 81.0168C66.7499 78.0052 72.9662 72.9048 77.3401 66.3603C81.7139 59.8159 84.049 52.1215 84.05 44.25C84.0323 33.6998 79.8334 23.5868 72.3733 16.1267C64.9132 8.66661 54.8002 4.46772 44.25 4.45V4.445Z" fill="#D4D5D3"/>
<path d="M66.077 31.405L69.3 34.465L40.146 65.174L19.2 43.111L22.423 40.05L40.146 58.718L66.077 31.405Z" fill="#008C73"/>
</svg>
