<svg xmlns="http://www.w3.org/2000/svg" width="14" height="13" viewBox="0 0 14 13">
    <path fill="#5D6D74" fill-rule="nonzero" d="M2.332 0C1.412 0 .666.746.666 1.666v.333A.666.666 0 0 0 0 2.665V5.33c0 .368.298.666.666.666h3.332a.666.666 0 0 0 .666-.666V2.665A.666.666 0 0 0 3.998 2v-.333C3.998.746 3.252 0 2.332 0zm0 .666a1 1 0 0 1 1 1v.333h-2v-.333a1 1 0 0 1 1-1zm9.434 0a.634.634 0 0 0-.46.187l-1.225 1.232 2.498 2.499 1.226-1.233a.655.655 0 0 0 0-.932L12.246.853a.703.703 0 0 0-.48-.187zM9.368 2.792l-7.37 7.369v2.498h2.5l7.368-7.369-2.498-2.498z"/>
</svg>
