<svg width="172" height="43" viewBox="0 0 172 43" fill="none" xmlns="http://www.w3.org/2000/svg">
<path d="M7.14112 6.58634L18.5 0L29.8589 6.58634L25.6828 9.01951L18.5 4.86634L11.3172 9.01951L7.14112 6.58634ZM29.8589 14.8927L25.6828 12.4595L18.5 16.6127L11.3172 12.4595L7.14112 14.8927V19.759L14.3239 23.9122V32.2185L18.5 34.6517L22.6761 32.2185V23.9122L29.8589 19.759V14.8927ZM29.8589 28.0654V23.199L25.6828 25.6322V30.4985L29.8589 28.0654ZM32.8239 29.7854L25.6411 33.9385V38.8049L37 32.2185V19.0459L32.8239 21.479V29.7854ZM28.6479 10.7395L32.8239 13.1727V18.039L37 15.6059V10.7395L32.8239 8.30634L28.6479 10.7395ZM14.3239 35.7005V40.5668L18.5 43L22.6761 40.5668V35.7005L18.5 38.1337L14.3239 35.7005ZM7.14112 28.0654L11.3172 30.4985V25.6322L7.14112 23.199V28.0654ZM14.3239 10.7395L18.5 13.1727L22.6761 10.7395L18.5 8.30634L14.3239 10.7395ZM4.17607 13.1727L8.35214 10.7395L4.17607 8.30634L0 10.7395V15.6059L4.17607 18.039V13.1727ZM4.17607 21.479L0 19.0459V32.2185L11.3589 38.8049V33.9385L4.17607 29.7854V21.479Z" fill="#F0B90B"/>
<path fill-rule="evenodd" clip-rule="evenodd" d="M50 11.8256C50 7.18571 53.0758 3.59219 58.3245 3.59219C60.7062 3.59219 63.2969 4.55987 64.9847 6.45093L62.2559 8.70282C61.2133 7.68266 59.7967 7.1119 58.3177 7.11846C55.9831 7.11846 54.0393 8.85371 54.0393 11.8256C54.0393 14.4137 55.69 16.5311 58.4811 16.5311C59.4749 16.5426 60.4553 16.3015 61.3261 15.8324V13.9397H58.1409V10.835H65.0302V18.0187C63.5277 19.1439 61.0297 19.977 58.4878 19.977C53.7479 19.977 50 17.0265 50 11.8256ZM67.412 8.78483H71.02V10.0674H71.0672C71.9161 9.10465 73.1626 8.56013 74.4664 8.58145C76.801 8.58145 78.5124 9.70822 78.5124 13.2017V19.795H74.9077V14.0545C74.9077 12.2291 74.2878 11.7124 73.102 11.7124C71.8555 11.7124 71.0217 12.544 71.0217 14.2546V19.795H67.412V8.78483ZM80.3147 14.3022C80.3147 10.9465 82.7908 8.58145 86.4427 8.58145C90.0052 8.58145 92.5487 10.9022 92.5487 14.3022C92.5487 17.7022 90.0052 19.9967 86.4427 19.9967C82.7908 19.9967 80.3147 17.6349 80.3147 14.3022ZM88.8952 14.3022C88.8952 12.7687 87.8643 11.7124 86.4427 11.7124C84.9873 11.7124 83.9682 12.7949 83.9682 14.3022C83.9682 15.7652 84.9991 16.8903 86.4444 16.8903C87.8121 16.8903 88.8952 15.8095 88.8952 14.3022ZM93.6133 18.3763L95.2994 16.1031C96.2494 16.9362 97.2197 17.3397 98.259 17.3397C98.9782 17.3397 99.3471 17.0937 99.3471 16.687C99.3471 16.3278 99.0001 16.1031 97.5902 15.6832C95.6919 15.119 94.0277 14.2186 94.0277 12.1028C94.0277 9.87223 95.9024 8.58965 98.259 8.58965C99.807 8.55029 101.318 9.03577 102.537 9.96408L100.826 12.4177C100.039 11.6534 99.0675 11.2696 98.3044 11.2696C97.8934 11.2696 97.4033 11.45 97.4033 11.8715C97.4033 12.2094 97.8159 12.4587 98.9529 12.8392C101.451 13.6724 102.815 14.3038 102.815 16.4639C102.815 18.514 101.313 20 98.2152 20C96.433 19.9967 94.8615 19.4571 93.6133 18.3763ZM104.432 5.38485C104.432 4.304 105.337 3.40522 106.585 3.40522C107.832 3.40522 108.758 4.28268 108.758 5.38485C108.758 6.53293 107.832 7.4104 106.585 7.4104C105.337 7.4104 104.432 6.53293 104.432 5.38485ZM104.781 8.78483H108.386V19.795H104.781V8.78483ZM110.122 18.3763L111.81 16.1031C112.757 16.9362 113.73 17.3397 114.771 17.3397C115.486 17.3397 115.858 17.0937 115.858 16.687C115.858 16.3278 115.509 16.1031 114.101 15.6832C112.203 15.119 110.538 14.2186 110.538 12.1028C110.538 9.87223 112.412 8.58965 114.771 8.58965C116.318 8.55029 117.829 9.03577 119.05 9.96408L117.337 12.4177C116.55 11.6534 115.58 11.2696 114.815 11.2696C114.404 11.2696 113.914 11.45 113.914 11.8715C113.914 12.2094 114.327 12.4587 115.464 12.8392C117.962 13.6724 119.324 14.3038 119.324 16.4639C119.324 18.514 117.824 20 114.723 20C112.944 19.9967 111.371 19.4571 110.122 18.3763ZM125.97 17.4529L128.238 14.7729C129.488 16.1031 130.993 16.6656 132.124 16.6656C133.421 16.6656 133.981 16.0342 133.981 15.3142C133.981 14.4367 133.405 14.0545 131.555 13.4461C129.055 12.6129 126.557 11.4632 126.557 8.31247C126.557 5.65547 128.894 3.65124 131.946 3.60531C134.097 3.56103 136.071 4.37289 137.634 5.67843L135.441 8.42564C134.031 7.3448 133.016 6.91672 132.089 6.91672C131.166 6.91672 130.563 7.38908 130.563 8.15502C130.563 8.91932 131.141 9.32443 132.921 10.0002L133.207 10.1071C135.954 11.1335 138.032 11.91 138.032 14.8861C138.032 18.6469 134.732 19.9967 131.996 19.9967C129.716 19.9852 127.538 19.0668 125.97 17.4529ZM139.351 14.3022C139.351 10.9236 141.591 8.58145 144.507 8.58145C145.703 8.56833 146.848 9.07185 147.628 9.95588L147.673 9.93291V8.78483H151.303V19.795H147.859V18.6469L147.812 18.6239C147.072 19.5473 146.053 19.9967 144.69 19.9967C141.591 19.9967 139.351 17.7005 139.351 14.3022ZM147.839 14.3022C147.839 12.7933 146.806 11.6911 145.455 11.6911C144.067 11.6911 143.028 12.7277 143.028 14.3022C143.028 15.8767 144.022 16.8903 145.455 16.8903C146.752 16.8903 147.833 15.8784 147.833 14.3022H147.839ZM154.127 11.6222H153.04V8.78483H154.127V7.05121C154.127 4.32697 155.582 3.00011 157.839 3.00011C158.92 2.99355 159.978 3.29041 160.891 3.85297L160.221 6.39844C159.783 6.17211 159.304 6.03598 158.811 5.99661C158.162 5.99661 157.746 6.31316 157.746 7.19062V8.79795H159.897V11.6354H157.758V19.8065H154.127V11.6222ZM171.933 15.224H164.231C164.462 16.4852 165.549 17.138 166.937 17.138C167.951 17.1216 168.909 16.6837 169.573 15.9358L171.655 18.0089C170.705 19.157 169.133 19.9885 166.568 19.9885C163.143 19.9885 160.647 17.6923 160.647 14.271C160.647 10.9383 163.051 8.57325 166.475 8.57325C169.665 8.57325 172 10.894 172 14.1595C172 14.4826 171.966 14.9993 171.933 15.224ZM164.255 13.1246H168.486C168.255 12.0438 167.514 11.368 166.423 11.368C165.333 11.368 164.486 12.029 164.255 13.1246ZM72.3041 28.55C72.4441 28.69 72.6175 28.76 72.8241 28.76C73.0241 28.76 73.1941 28.69 73.3341 28.55C73.4741 28.41 73.5441 28.2367 73.5441 28.03C73.5441 27.8233 73.4741 27.65 73.3341 27.51C73.1941 27.37 73.0241 27.3 72.8241 27.3C72.6175 27.3 72.4441 27.37 72.3041 27.51C72.1641 27.65 72.0941 27.8233 72.0941 28.03C72.0941 28.2367 72.1641 28.41 72.3041 28.55ZM73.3841 35V29.49H72.2441V35H73.3841ZM52.68 29.66C52.3467 29.8267 52.0833 30.0433 51.89 30.31V27.6H50.75V35H51.89V34.2C52.0833 34.46 52.3433 34.6733 52.67 34.84C53.0033 35.0067 53.3833 35.09 53.81 35.09C54.29 35.09 54.7267 34.97 55.12 34.73C55.52 34.4833 55.8333 34.1433 56.06 33.71C56.2867 33.27 56.4 32.7733 56.4 32.22C56.4 31.6667 56.2867 31.1767 56.06 30.75C55.8333 30.3167 55.5233 29.9833 55.13 29.75C54.7367 29.5167 54.2967 29.4 53.81 29.4C53.3967 29.4 53.02 29.4867 52.68 29.66ZM55 31.24C55.16 31.5133 55.24 31.84 55.24 32.22C55.24 32.6 55.16 32.9333 55 33.22C54.8467 33.5067 54.64 33.7267 54.38 33.88C54.1267 34.0267 53.8533 34.1 53.56 34.1C53.2733 34.1 53 34.0267 52.74 33.88C52.4867 33.7333 52.28 33.52 52.12 33.24C51.9667 32.9533 51.89 32.62 51.89 32.24C51.89 31.86 51.9667 31.53 52.12 31.25C52.28 30.97 52.4867 30.7567 52.74 30.61C53 30.4633 53.2733 30.39 53.56 30.39C53.8533 30.39 54.1267 30.4633 54.38 30.61C54.64 30.75 54.8467 30.96 55 31.24ZM59.1073 37.59L62.4873 29.49H61.3073L59.6973 33.69L58.1473 29.49H56.8773L59.0473 34.91L57.9273 37.59H59.1073ZM69.6653 31.43C70.0386 31.4967 70.3553 31.6933 70.6153 32.02C70.8753 32.3467 71.0053 32.7167 71.0053 33.13C71.0053 33.4833 70.912 33.8033 70.7253 34.09C70.5453 34.37 70.282 34.5933 69.9353 34.76C69.5886 34.92 69.1853 35 68.7253 35H65.9453V28.05H68.5953C69.0686 28.05 69.4753 28.13 69.8153 28.29C70.1553 28.45 70.412 28.6667 70.5853 28.94C70.7586 29.2067 70.8453 29.5067 70.8453 29.84C70.8453 30.24 70.7386 30.5733 70.5253 30.84C70.312 31.1067 70.0253 31.3033 69.6653 31.43ZM67.0853 30.97H68.4953C68.8686 30.97 69.1586 30.8867 69.3653 30.72C69.5786 30.5467 69.6853 30.3 69.6853 29.98C69.6853 29.6667 69.5786 29.4233 69.3653 29.25C69.1586 29.07 68.8686 28.98 68.4953 28.98H67.0853V30.97ZM68.6253 34.07C69.012 34.07 69.3153 33.9767 69.5353 33.79C69.7553 33.6033 69.8653 33.3433 69.8653 33.01C69.8653 32.67 69.7486 32.4 69.5153 32.2C69.282 32 68.972 31.9 68.5853 31.9H67.0853V34.07H68.6253ZM77.6609 29.4C78.0942 29.4 78.4809 29.49 78.8209 29.67C79.1675 29.85 79.4375 30.1167 79.6309 30.47C79.8242 30.8233 79.9209 31.25 79.9209 31.75V35H78.7909V31.92C78.7909 31.4267 78.6675 31.05 78.4209 30.79C78.1742 30.5233 77.8375 30.39 77.4109 30.39C76.9842 30.39 76.6442 30.5233 76.3909 30.79C76.1442 31.05 76.0209 31.4267 76.0209 31.92V35H74.8809V29.49H76.0209V30.12C76.2075 29.8933 76.4442 29.7167 76.7309 29.59C77.0242 29.4633 77.3342 29.4 77.6609 29.4ZM81.335 30.75C81.1083 31.1767 80.995 31.6667 80.995 32.22C80.995 32.7733 81.1083 33.27 81.335 33.71C81.5683 34.1433 81.8817 34.4833 82.275 34.73C82.6683 34.97 83.1017 35.09 83.575 35.09C84.0017 35.09 84.3817 35.0033 84.715 34.83C85.0483 34.6567 85.3117 34.44 85.505 34.18V35H86.655V29.49H85.505V30.29C85.3117 30.0367 85.0517 29.8267 84.725 29.66C84.405 29.4867 84.0283 29.4 83.595 29.4C83.115 29.4 82.675 29.52 82.275 29.76C81.8817 29.9933 81.5683 30.3233 81.335 30.75ZM85.265 31.25C85.425 31.53 85.505 31.86 85.505 32.24C85.505 32.62 85.425 32.9533 85.265 33.24C85.1117 33.52 84.9083 33.7333 84.655 33.88C84.4017 34.0267 84.1283 34.1 83.835 34.1C83.5483 34.1 83.275 34.0267 83.015 33.88C82.7617 33.7267 82.555 33.5067 82.395 33.22C82.2417 32.9333 82.165 32.6 82.165 32.22C82.165 31.84 82.2417 31.5133 82.395 31.24C82.555 30.96 82.7617 30.75 83.015 30.61C83.2683 30.4633 83.5417 30.39 83.835 30.39C84.1283 30.39 84.4017 30.4633 84.655 30.61C84.9083 30.7567 85.1117 30.97 85.265 31.25ZM90.9323 29.4C91.3657 29.4 91.7523 29.49 92.0923 29.67C92.439 29.85 92.709 30.1167 92.9023 30.47C93.0957 30.8233 93.1923 31.25 93.1923 31.75V35H92.0623V31.92C92.0623 31.4267 91.939 31.05 91.6923 30.79C91.4457 30.5233 91.109 30.39 90.6823 30.39C90.2557 30.39 89.9157 30.5233 89.6623 30.79C89.4157 31.05 89.2923 31.4267 89.2923 31.92V35H88.1523V29.49H89.2923V30.12C89.479 29.8933 89.7157 29.7167 90.0023 29.59C90.2957 29.4633 90.6057 29.4 90.9323 29.4ZM94.6065 30.75C94.3798 31.1767 94.2665 31.6733 94.2665 32.24C94.2665 32.8067 94.3798 33.3067 94.6065 33.74C94.8398 34.1667 95.1598 34.5 95.5665 34.74C95.9732 34.9733 96.4398 35.09 96.9665 35.09C97.6198 35.09 98.1665 34.9267 98.6065 34.6C99.0465 34.2667 99.3465 33.82 99.5065 33.26H98.2765C98.0631 33.84 97.6265 34.13 96.9665 34.13C96.4998 34.13 96.1265 33.9633 95.8465 33.63C95.5732 33.2967 95.4365 32.8333 95.4365 32.24C95.4365 31.6467 95.5732 31.1867 95.8465 30.86C96.1265 30.5267 96.4998 30.36 96.9665 30.36C97.2998 30.36 97.5765 30.4367 97.7965 30.59C98.0165 30.7433 98.1765 30.9567 98.2765 31.23H99.5065C99.3531 30.6433 99.0565 30.1933 98.6165 29.88C98.1832 29.56 97.6331 29.4 96.9665 29.4C96.4398 29.4 95.9732 29.5167 95.5665 29.75C95.1598 29.9833 94.8398 30.3167 94.6065 30.75ZM105.693 32.11C105.693 32.3167 105.679 32.5033 105.653 32.67H101.443C101.476 33.11 101.639 33.4633 101.933 33.73C102.226 33.9967 102.586 34.13 103.013 34.13C103.626 34.13 104.059 33.8733 104.313 33.36H105.543C105.376 33.8667 105.073 34.2833 104.633 34.61C104.199 34.93 103.659 35.09 103.013 35.09C102.486 35.09 102.013 34.9733 101.593 34.74C101.179 34.5 100.853 34.1667 100.613 33.74C100.379 33.3067 100.263 32.8067 100.263 32.24C100.263 31.6733 100.376 31.1767 100.603 30.75C100.836 30.3167 101.159 29.9833 101.573 29.75C101.993 29.5167 102.473 29.4 103.013 29.4C103.533 29.4 103.996 29.5133 104.403 29.74C104.809 29.9667 105.126 30.2867 105.353 30.7C105.579 31.1067 105.693 31.5767 105.693 32.11ZM104.503 31.75C104.496 31.33 104.346 30.9933 104.053 30.74C103.759 30.4867 103.396 30.36 102.963 30.36C102.569 30.36 102.233 30.4867 101.953 30.74C101.673 30.9867 101.506 31.3233 101.453 31.75H104.503ZM110.442 34.83C110.815 34.99 111.235 35.07 111.702 35.07C112.195 35.07 112.622 34.9767 112.982 34.79C113.349 34.5967 113.625 34.3433 113.812 34.03C114.005 33.7167 114.102 33.3833 114.102 33.03C114.102 32.59 113.999 32.24 113.792 31.98C113.592 31.7133 113.345 31.5167 113.052 31.39C112.765 31.2633 112.392 31.1367 111.932 31.01C111.585 30.9167 111.312 30.83 111.112 30.75C110.912 30.67 110.745 30.5633 110.612 30.43C110.485 30.29 110.422 30.1133 110.422 29.9C110.422 29.5867 110.525 29.3467 110.732 29.18C110.939 29.0133 111.205 28.93 111.532 28.93C111.892 28.93 112.182 29.02 112.402 29.2C112.622 29.38 112.742 29.5967 112.762 29.85H114.022C113.975 29.2633 113.735 28.8033 113.302 28.47C112.875 28.13 112.325 27.96 111.652 27.96C111.179 27.96 110.762 28.04 110.402 28.2C110.042 28.36 109.762 28.59 109.562 28.89C109.362 29.19 109.262 29.54 109.262 29.94C109.262 30.3733 109.362 30.72 109.562 30.98C109.762 31.24 110.002 31.4333 110.282 31.56C110.569 31.68 110.939 31.8 111.392 31.92C111.752 32.0133 112.032 32.1 112.232 32.18C112.439 32.26 112.609 32.3733 112.742 32.52C112.882 32.6667 112.952 32.8567 112.952 33.09C112.952 33.39 112.842 33.6367 112.622 33.83C112.402 34.0167 112.095 34.11 111.702 34.11C111.322 34.11 111.025 34.0133 110.812 33.82C110.605 33.6267 110.489 33.38 110.462 33.08H109.242C109.242 33.48 109.349 33.83 109.562 34.13C109.775 34.43 110.069 34.6633 110.442 34.83ZM122.117 29.4C122.551 29.4 122.937 29.49 123.277 29.67C123.624 29.85 123.894 30.1167 124.087 30.47C124.287 30.8233 124.387 31.25 124.387 31.75V35H123.257V31.92C123.257 31.4267 123.134 31.05 122.887 30.79C122.641 30.5233 122.304 30.39 121.877 30.39C121.451 30.39 121.111 30.5233 120.857 30.79C120.611 31.05 120.487 31.4267 120.487 31.92V35H119.357V31.92C119.357 31.4267 119.234 31.05 118.987 30.79C118.741 30.5233 118.404 30.39 117.977 30.39C117.551 30.39 117.211 30.5233 116.957 30.79C116.711 31.05 116.587 31.4267 116.587 31.92V35H115.447V29.49H116.587V30.12C116.774 29.8933 117.011 29.7167 117.297 29.59C117.584 29.4633 117.891 29.4 118.217 29.4C118.657 29.4 119.051 29.4933 119.397 29.68C119.744 29.8667 120.011 30.1367 120.197 30.49C120.364 30.1567 120.624 29.8933 120.977 29.7C121.331 29.5 121.711 29.4 122.117 29.4ZM125.798 30.75C125.571 31.1767 125.458 31.6667 125.458 32.22C125.458 32.7733 125.571 33.27 125.798 33.71C126.031 34.1433 126.345 34.4833 126.738 34.73C127.131 34.97 127.565 35.09 128.038 35.09C128.465 35.09 128.845 35.0033 129.178 34.83C129.511 34.6567 129.775 34.44 129.968 34.18V35H131.118V29.49H129.968V30.29C129.775 30.0367 129.515 29.8267 129.188 29.66C128.868 29.4867 128.491 29.4 128.058 29.4C127.578 29.4 127.138 29.52 126.738 29.76C126.345 29.9933 126.031 30.3233 125.798 30.75ZM129.728 31.25C129.888 31.53 129.968 31.86 129.968 32.24C129.968 32.62 129.888 32.9533 129.728 33.24C129.575 33.52 129.371 33.7333 129.118 33.88C128.865 34.0267 128.591 34.1 128.298 34.1C128.011 34.1 127.738 34.0267 127.478 33.88C127.225 33.7267 127.018 33.5067 126.858 33.22C126.705 32.9333 126.628 32.6 126.628 32.22C126.628 31.84 126.705 31.5133 126.858 31.24C127.018 30.96 127.225 30.75 127.478 30.61C127.731 30.4633 128.005 30.39 128.298 30.39C128.591 30.39 128.865 30.4633 129.118 30.61C129.371 30.7567 129.575 30.97 129.728 31.25ZM133.755 30.29C133.922 30.01 134.142 29.7933 134.415 29.64C134.695 29.48 135.025 29.4 135.405 29.4V30.58H135.115C134.669 30.58 134.329 30.6933 134.095 30.92C133.869 31.1467 133.755 31.54 133.755 32.1V35H132.615V29.49H133.755V30.29ZM137.783 33.47V30.42H139.123V29.49H137.783V28.12H136.633V29.49H135.983V30.42H136.633V33.47C136.633 34.01 136.77 34.4 137.043 34.64C137.316 34.88 137.71 35 138.223 35H139.123V34.05H138.423C138.19 34.05 138.023 34.0067 137.923 33.92C137.83 33.8267 137.783 33.6767 137.783 33.47ZM142.391 31.51C142.391 30.83 142.548 30.22 142.861 29.68C143.181 29.14 143.611 28.72 144.151 28.42C144.698 28.1133 145.295 27.96 145.941 27.96C146.681 27.96 147.338 28.1433 147.911 28.51C148.491 28.87 148.911 29.3833 149.171 30.05H147.801C147.621 29.6833 147.371 29.41 147.051 29.23C146.731 29.05 146.361 28.96 145.941 28.96C145.481 28.96 145.071 29.0633 144.711 29.27C144.351 29.4767 144.068 29.7733 143.861 30.16C143.661 30.5467 143.561 30.9967 143.561 31.51C143.561 32.0233 143.661 32.4733 143.861 32.86C144.068 33.2467 144.351 33.5467 144.711 33.76C145.071 33.9667 145.481 34.07 145.941 34.07C146.361 34.07 146.731 33.98 147.051 33.8C147.371 33.62 147.621 33.3467 147.801 32.98H149.171C148.911 33.6467 148.491 34.16 147.911 34.52C147.338 34.88 146.681 35.06 145.941 35.06C145.288 35.06 144.691 34.91 144.151 34.61C143.611 34.3033 143.181 33.88 142.861 33.34C142.548 32.8 142.391 32.19 142.391 31.51ZM154.476 29.67C154.149 29.49 153.776 29.4 153.356 29.4C153.003 29.4 152.676 29.4633 152.376 29.59C152.083 29.7167 151.839 29.8967 151.646 30.13V27.6H150.506V35H151.646V31.92C151.646 31.4267 151.769 31.05 152.016 30.79C152.269 30.5233 152.609 30.39 153.036 30.39C153.463 30.39 153.799 30.5233 154.046 30.79C154.293 31.05 154.416 31.4267 154.416 31.92V35H155.546V31.75C155.546 31.25 155.449 30.8233 155.256 30.47C155.069 30.1167 154.809 29.85 154.476 29.67ZM156.62 32.22C156.62 31.6667 156.733 31.1767 156.96 30.75C157.193 30.3233 157.507 29.9933 157.9 29.76C158.3 29.52 158.74 29.4 159.22 29.4C159.653 29.4 160.03 29.4867 160.35 29.66C160.677 29.8267 160.937 30.0367 161.13 30.29V29.49H162.28V35H161.13V34.18C160.937 34.44 160.673 34.6567 160.34 34.83C160.007 35.0033 159.627 35.09 159.2 35.09C158.727 35.09 158.293 34.97 157.9 34.73C157.507 34.4833 157.193 34.1433 156.96 33.71C156.733 33.27 156.62 32.7733 156.62 32.22ZM161.13 32.24C161.13 31.86 161.05 31.53 160.89 31.25C160.737 30.97 160.533 30.7567 160.28 30.61C160.027 30.4633 159.753 30.39 159.46 30.39C159.167 30.39 158.893 30.4633 158.64 30.61C158.387 30.75 158.18 30.96 158.02 31.24C157.867 31.5133 157.79 31.84 157.79 32.22C157.79 32.6 157.867 32.9333 158.02 33.22C158.18 33.5067 158.387 33.7267 158.64 33.88C158.9 34.0267 159.173 34.1 159.46 34.1C159.753 34.1 160.027 34.0267 160.28 33.88C160.533 33.7333 160.737 33.52 160.89 33.24C161.05 32.9533 161.13 32.62 161.13 32.24ZM163.837 28.55C163.977 28.69 164.151 28.76 164.357 28.76C164.557 28.76 164.727 28.69 164.867 28.55C165.007 28.41 165.077 28.2367 165.077 28.03C165.077 27.8233 165.007 27.65 164.867 27.51C164.727 27.37 164.557 27.3 164.357 27.3C164.151 27.3 163.977 27.37 163.837 27.51C163.697 27.65 163.627 27.8233 163.627 28.03C163.627 28.2367 163.697 28.41 163.837 28.55ZM164.917 35V29.49H163.777V35H164.917ZM169.194 29.4C169.627 29.4 170.014 29.49 170.354 29.67C170.701 29.85 170.971 30.1167 171.164 30.47C171.357 30.8233 171.454 31.25 171.454 31.75V35H170.324V31.92C170.324 31.4267 170.201 31.05 169.954 30.79C169.707 30.5233 169.371 30.39 168.944 30.39C168.517 30.39 168.177 30.5233 167.924 30.79C167.677 31.05 167.554 31.4267 167.554 31.92V35H166.414V29.49H167.554V30.12C167.741 29.8933 167.977 29.7167 168.264 29.59C168.557 29.4633 168.867 29.4 169.194 29.4ZM28 32.0008C27.9996 28.1349 31.133 25.0008 34.999 25C36.856 25 38.6364 25.7373 39.9496 27.05C41.2627 28.3627 42 30.1431 42 32C42 35.8659 38.8662 39 35.0002 39C31.1346 39 28 35.8667 28 32.0008ZM36.8755 32.3823H40.1232C40.2492 32.387 40.3682 32.3222 40.4325 32.2138C40.4969 32.1053 40.4969 31.9707 40.4325 31.8623C40.3682 31.7538 40.2496 31.6891 40.1236 31.6938H36.8907C36.7346 30.6803 35.83 29.9539 34.8063 30.021C33.783 30.0877 32.9806 30.9257 32.958 31.9508C32.9349 32.976 33.6996 33.8487 34.7189 33.961C35.7383 34.0734 36.6746 33.388 36.8755 32.3823Z" fill="#081728"/>
</svg>
