<svg version="1.1" id="Layer_1" xmlns="http://www.w3.org/2000/svg" xmlns:xlink="http://www.w3.org/1999/xlink" x="0px" y="0px"
	 viewBox="0 0 179.2 66" style="enable-background:new 0 0 179.2 66;" xml:space="preserve">
<style type="text/css">
	.st0{fill:none;}
	.st1{fill:#000;}
	.st2{fill:#000;}
	.st3{fill:#000;}
</style>
<rect class="st0" width="167" height="66"/>
<path class="st1" d="M63,66c-10.5,0-19-8.8-19-19.5S52.5,27,63,27s19,8.8,19,19.5S73.5,66,63,66z M63,31.4
	c-8.1,0-14.7,6.8-14.7,15.1S54.9,61.6,63,61.6s14.7-6.8,14.7-15.1S71.1,31.4,63,31.4z"/>
<path class="st1" d="M9.3,45.4c-1.2,0-2.2-0.9-2.4-2.1L0,2.9c-0.1-0.7,0-1.3,0.4-1.8s1-0.9,1.6-1c1.3-0.2,2.6,0.7,2.8,2l6.9,40.4
	c0.1,0.7,0,1.3-0.4,1.8s-1,0.9-1.6,1C9.6,45.4,9.4,45.4,9.3,45.4z"/>
<path class="st1" d="M20.8,26.7c-3.9,0-7.6,1.2-10.6,3.2l0.8,4.9c2.6-2.3,6.1-3.7,9.8-3.7c8.2,0,14.9,6.7,14.9,15s-6.7,15-14.9,15
	s-14.9-6.7-14.9-15c0-1.1,0.1-2.2,0.3-3.2l-1.3-7.8c-2.1,3.2-3.4,6.9-3.4,11c0,10.7,8.7,19.4,19.3,19.4s19.3-8.7,19.3-19.4
	S31.5,26.7,20.8,26.7z"/>
<path class="st1" d="M93.9,45.4c-1.2,0-2.2-0.9-2.4-2.1L84.6,2.9c-0.1-0.7,0-1.3,0.4-1.8s1-0.9,1.6-1c1.3-0.2,2.6,0.7,2.8,2
	l6.8,40.4c0.1,0.7,0,1.3-0.4,1.8s-1,0.9-1.6,1C94.2,45.4,94,45.4,93.9,45.4z"/>
<path class="st1" d="M105.4,26.7c-3.9,0-7.6,1.2-10.6,3.2l0.8,4.9c2.6-2.3,6.1-3.7,9.8-3.7c8.2,0,14.9,6.7,14.9,15s-6.7,15-14.9,15
	s-14.9-6.7-14.9-15c0-1.1,0.1-2.2,0.3-3.2l-1.3-7.8c-2.1,3.2-3.4,6.9-3.4,11c0,10.7,8.7,19.4,19.3,19.4s19.3-8.7,19.3-19.4
	S116,26.7,105.4,26.7z"/>
<path class="st2" d="M104.3,57.4c1.5,0,2.6-1.2,2.6-2.7s-1.2-2.7-2.6-2.7s-2.6,1.2-2.6,2.7S102.9,57.4,104.3,57.4z"/>
<path class="st3" d="M111.6,54.8c1.5,0,2.6-1.2,2.6-2.7s-1.2-2.7-2.6-2.7s-2.6,1.2-2.6,2.7C108.9,53.6,110.1,54.8,111.6,54.8z"/>
<path class="st2" d="M105.3,49.5c1.5,0,2.6-1.2,2.6-2.7s-1.2-2.7-2.6-2.7s-2.6,1.2-2.6,2.7S103.9,49.5,105.3,49.5z"/>
<path class="st3" d="M97,52.1c1.5,0,2.6-1.2,2.6-2.7s-1.2-2.7-2.6-2.7s-2.6,1.2-2.6,2.7C94.3,51,95.5,52.1,97,52.1z"/>
<path class="st2" d="M114.2,46c1.5,0,2.6-1.2,2.6-2.7s-1.2-2.7-2.6-2.7s-2.6,1.2-2.6,2.7S112.8,46,114.2,46z"/>
<path class="st3" d="M108.9,40.4c1.5,0,2.6-1.2,2.6-2.7s-1.2-2.7-2.6-2.7s-2.6,1.2-2.6,2.7S107.5,40.4,108.9,40.4z"/>
<path class="st2" d="M99.6,43c1.5,0,2.6-1.2,2.6-2.7s-1.2-2.7-2.6-2.7S97,38.9,97,40.4S98.2,43,99.6,43z"/>
<path class="st1" d="M164.3,46.5c1.2,0,1.6-1.2,1.8,0l3,16.6c0.1,0.7,0,1.3-0.4,1.8s-1,0.9-1.6,1c-1.3,0.2-2.6-0.7-2.8-2l-0.7-3.5
	c-0.1-0.7-0.8-2.4-2.3-1.3c-0.5,0.4,1.9-12.5,2.6-12.6C164,46.5,164.2,46.5,164.3,46.5z"/>
<path class="st1" d="M147.2,65.6c-10.5,0-19-8.8-19-19.5s8.5-19.5,19-19.5s19,8.8,19,19.5C166.2,56.9,157.6,65.6,147.2,65.6z
	 M147.2,31.1c-8.1,0-14.7,6.8-14.7,15.1s6.6,15.1,14.7,15.1s14.7-6.8,14.7-15.1S155.2,31.1,147.2,31.1z"/>
<path class="st2" d="M19.5,57.2c1.5,0,2.6-1.2,2.6-2.7s-1.2-2.7-2.6-2.7s-2.6,1.2-2.6,2.7S18,57.2,19.5,57.2z"/>
<path class="st3" d="M26.8,54.5c1.5,0,2.6-1.2,2.6-2.7s-1.2-2.7-2.6-2.7s-2.6,1.2-2.6,2.7C24.1,53.3,25.3,54.5,26.8,54.5z"/>
<path class="st2" d="M20.5,49.2c1.5,0,2.6-1.2,2.6-2.7s-1.2-2.7-2.6-2.7s-2.6,1.2-2.6,2.7S19.1,49.2,20.5,49.2z"/>
<path class="st3" d="M12.1,51.9c1.5,0,2.6-1.2,2.6-2.7s-1.2-2.7-2.6-2.7s-2.6,1.2-2.6,2.7S10.7,51.9,12.1,51.9z"/>
<path class="st2" d="M29.4,45.7c1.5,0,2.6-1.2,2.6-2.7s-1.2-2.7-2.6-2.7s-2.6,1.2-2.6,2.7S28,45.7,29.4,45.7z"/>
<path class="st3" d="M24.1,40.1c1.5,0,2.6-1.2,2.6-2.7s-1.2-2.7-2.6-2.7c-1.5,0-2.6,1.2-2.6,2.7S22.7,40.1,24.1,40.1z"/>
<path class="st2" d="M14.8,42.8c1.5,0,2.6-1.2,2.6-2.7s-1.2-2.7-2.6-2.7s-2.6,1.2-2.6,2.7C12.1,41.6,13.3,42.8,14.8,42.8z"/>
<g>
</g>
</svg>
