<svg width="1743" height="508" viewBox="0 0 1743 508" fill="none" xmlns="http://www.w3.org/2000/svg">
<path d="M807.475 312L832.802 304.035V94L807.475 101.965V312ZM515.332 184.563C531.235 184.563 545.96 191.643 555.384 203.442L565.692 179.548C552.145 166.568 534.18 160.373 515.332 160.373C471.747 160.373 441.708 194.888 442.002 232.942C442.297 274.241 474.692 307.87 515.332 307.87C535.947 307.87 551.556 301.675 563.336 293.12V263.916C550.967 276.306 533.002 283.681 517.394 283.681C493.834 283.681 467.329 264.506 467.329 232.942C467.329 203.737 490.3 184.563 515.332 184.563ZM683.786 160.373C640.2 160.373 614.873 194.888 614.873 232.942C614.873 274.241 647.562 307.87 688.203 307.87C708.818 307.87 724.427 301.675 736.207 293.12V263.916C723.838 276.306 705.873 283.681 690.265 283.681C669.355 283.681 646.384 270.701 641.672 243.267H752.698V233.532C752.698 192.823 725.899 160.373 683.786 160.373ZM957.375 160.373C916.734 160.373 883.75 193.413 883.75 234.122C883.75 274.831 916.734 307.87 957.375 307.87C998.016 307.87 1031 274.831 1031 234.122C1031 193.413 998.016 160.373 957.375 160.373ZM684.08 184.563C703.812 184.563 724.721 196.953 726.488 220.847H641.672C643.439 196.953 664.349 184.563 684.08 184.563ZM957.375 283.681C947.59 283.681 938.024 280.774 929.888 275.328C921.752 269.883 915.41 262.143 911.666 253.087C907.921 244.031 906.941 234.067 908.85 224.453C910.759 214.84 915.471 206.009 922.391 199.078C929.31 192.147 938.126 187.427 947.723 185.515C957.32 183.603 967.268 184.584 976.309 188.335C985.349 192.086 993.076 198.438 998.513 206.588C1003.95 214.738 1006.85 224.32 1006.85 234.122C1006.86 240.633 1005.59 247.082 1003.11 253.1C1000.62 259.118 996.981 264.585 992.384 269.189C987.788 273.794 982.329 277.444 976.322 279.93C970.314 282.417 963.876 283.692 957.375 283.681Z" fill="#2E3338"/>
<path d="M153 450.2C214.967 450.2 265.2 399.967 265.2 338C265.2 276.033 214.967 225.8 153 225.8C91.033 225.8 40.8 276.033 40.8 338C40.8 399.967 91.033 450.2 153 450.2ZM153 491C68.5032 491 0 422.497 0 338C0 253.503 68.5032 185 153 185C237.497 185 306 253.503 306 338C306 422.497 237.497 491 153 491Z" fill="#FBCC5C"/>
<path d="M234 369.2C295.967 369.2 346.2 318.967 346.2 257C346.2 195.033 295.967 144.8 234 144.8C172.033 144.8 121.8 195.033 121.8 257C121.8 318.967 172.033 369.2 234 369.2ZM234 410C149.503 410 81 341.497 81 257C81 172.503 149.503 104 234 104C318.497 104 387 172.503 387 257C387 341.497 318.497 410 234 410Z" fill="#35D07F"/>
<path d="M239.765 410C250.357 397.165 257.949 382.127 261.985 365.983C278.128 361.947 293.165 354.356 306 343.766C305.415 362.458 301.389 380.883 294.124 398.115C276.89 405.384 258.464 409.413 239.77 410H239.765ZM126.015 230.009C109.872 234.045 94.8346 241.635 82 252.226C82.5852 233.534 86.6111 215.109 93.8759 197.877C111.11 190.61 129.536 186.584 148.23 186C137.642 198.833 130.052 213.869 126.015 230.009V230.009Z" fill="#5EA33B"/>
<path d="M1084.34 249.248L1071.67 257.6C1073.98 266.624 1077.62 275.168 1082.62 283.232C1087.61 291.296 1094.04 297.824 1101.91 302.816C1109.98 307.808 1119.58 310.4 1130.71 310.592C1142.42 310.592 1153.08 308 1162.68 302.816C1172.28 297.632 1180.06 290.624 1186.01 281.792C1191.96 272.768 1195.22 262.784 1195.8 251.84C1196.38 241.28 1194.65 232.544 1190.62 225.632C1186.58 218.72 1181.3 212.96 1174.78 208.352C1168.25 203.744 1161.43 200 1154.33 197.12C1147.99 194.432 1142.33 191.648 1137.34 188.768C1132.34 185.888 1128.02 182.72 1124.38 179.264C1120.73 175.616 1118.04 171.68 1116.31 167.456C1114.58 163.04 1114.01 158.144 1114.58 152.768C1115.16 146.24 1117.18 140.48 1120.63 135.488C1124.09 130.304 1128.7 126.272 1134.46 123.392C1140.41 120.32 1147.32 118.88 1155.19 119.072C1163.83 119.072 1170.94 120.8 1176.5 124.256C1182.07 127.52 1186.39 131.84 1189.46 137.216C1192.73 142.4 1195.22 147.68 1196.95 153.056L1210.49 146.144C1208.57 138.848 1205.3 132.032 1200.7 125.696C1196.28 119.168 1190.42 113.888 1183.13 109.856C1176.02 105.824 1167.29 103.808 1156.92 103.808C1145.98 103.808 1136.18 106.112 1127.54 110.72C1118.9 115.136 1111.99 121.184 1106.81 128.864C1101.62 136.544 1098.74 145.184 1098.17 154.784C1097.59 162.272 1098.55 168.896 1101.05 174.656C1103.74 180.416 1107.29 185.408 1111.7 189.632C1116.31 193.664 1121.21 197.216 1126.39 200.288C1131.77 203.36 1137.05 206.048 1142.23 208.352C1149.14 211.616 1155.48 215.168 1161.24 219.008C1167.19 222.656 1171.8 227.264 1175.06 232.832C1178.52 238.208 1179.96 245.12 1179.38 253.568C1179 261.056 1176.7 267.968 1172.47 274.304C1168.44 280.64 1162.87 285.728 1155.77 289.568C1148.86 293.408 1140.7 295.328 1131.29 295.328C1121.88 295.328 1114.1 293.216 1107.96 288.992C1102.01 284.768 1097.21 279.2 1093.56 272.288C1089.91 265.184 1086.84 257.504 1084.34 249.248ZM1356.44 175.52L1333.98 308H1347.52L1370.56 175.52H1356.44ZM1234.04 241.76C1232.51 254.048 1233.47 265.472 1236.92 276.032C1240.38 286.4 1246.24 294.752 1254.49 301.088C1262.75 307.424 1273.02 310.592 1285.31 310.592C1294.14 310.592 1302.3 308.768 1309.79 305.12C1317.28 301.28 1323.8 296.096 1329.37 289.568C1335.13 283.04 1339.84 275.744 1343.48 267.68C1347.32 259.424 1349.92 250.784 1351.26 241.76C1352.41 233.312 1352.41 225.056 1351.26 216.992C1350.3 208.736 1348.09 201.344 1344.64 194.816C1341.18 188.096 1336.38 182.72 1330.24 178.688C1324.09 174.656 1316.6 172.64 1307.77 172.64C1295.48 172.448 1284.06 175.52 1273.5 181.856C1263.13 188 1254.4 196.352 1247.29 206.912C1240.38 217.28 1235.96 228.896 1234.04 241.76ZM1249.02 241.76C1250.75 231.584 1254.4 222.272 1259.96 213.824C1265.72 205.376 1272.73 198.752 1280.99 193.952C1289.44 188.96 1298.56 186.56 1308.35 186.752C1315.07 186.944 1320.83 188.672 1325.63 191.936C1330.62 195.008 1334.65 199.232 1337.72 204.608C1340.8 209.792 1342.91 215.648 1344.06 222.176C1345.21 228.512 1345.31 235.04 1344.35 241.76C1343.2 248.864 1340.89 255.68 1337.44 262.208C1333.98 268.736 1329.66 274.592 1324.48 279.776C1319.48 284.96 1313.92 289.088 1307.77 292.16C1301.63 295.04 1295.2 296.48 1288.48 296.48C1278.68 296.48 1270.62 293.984 1264.28 288.992C1257.95 283.808 1253.53 277.088 1251.04 268.832C1248.54 260.384 1247.87 251.36 1249.02 241.76ZM1417.5 175.52L1414.9 189.632H1475.67L1478.26 175.52H1417.5ZM1492.95 105.248L1503.03 93.44C1500.73 90.176 1497.75 87.296 1494.1 84.8C1490.46 82.304 1485.85 80.96 1480.28 80.768C1472.02 80.576 1465.02 82.496 1459.26 86.528C1453.69 90.368 1449.18 95.648 1445.72 102.368C1442.26 109.088 1439.96 116.288 1438.81 123.968L1407.13 308H1422.1L1453.21 125.984C1454.17 120.992 1455.61 116.192 1457.53 111.584C1459.45 106.784 1462.04 102.944 1465.3 100.064C1468.76 96.992 1472.98 95.456 1477.98 95.456C1481.43 95.648 1484.31 96.704 1486.62 98.624C1489.11 100.352 1491.22 102.56 1492.95 105.248ZM1551.24 310.88C1564.49 310.88 1576.3 307.904 1586.67 301.952C1597.23 295.808 1606.25 287.552 1613.74 277.184L1601.93 269.408C1595.98 277.856 1588.87 284.576 1580.62 289.568C1572.36 294.368 1563.15 296.768 1552.97 296.768C1544.52 296.768 1537.32 294.848 1531.37 291.008C1525.42 286.976 1520.91 281.408 1517.83 274.304C1514.95 267.2 1513.51 259.04 1513.51 249.824C1513.51 241.568 1514.95 233.6 1517.83 225.92C1520.71 218.24 1524.75 211.424 1529.93 205.472C1535.31 199.52 1541.45 194.816 1548.36 191.36C1555.27 187.712 1562.67 185.888 1570.54 185.888C1578.41 185.888 1585.03 187.616 1590.41 191.072C1595.98 194.528 1600.2 199.328 1603.08 205.472C1606.15 211.616 1607.69 218.624 1607.69 226.496C1607.69 229.376 1607.31 232.16 1606.54 234.848C1605.77 237.344 1604.91 239.552 1603.95 241.472L1610.28 232.544H1508.62V245.504H1619.79C1620.75 243.584 1621.51 241.088 1622.09 238.016C1622.67 234.944 1622.95 232.064 1622.95 229.376C1622.95 217.856 1620.75 207.872 1616.33 199.424C1612.11 190.976 1606.15 184.448 1598.47 179.84C1590.79 175.04 1581.77 172.64 1571.4 172.64C1561.42 172.64 1552.01 174.848 1543.18 179.264C1534.35 183.488 1526.57 189.248 1519.85 196.544C1513.32 203.84 1508.14 212.192 1504.3 221.6C1500.46 230.816 1498.54 240.512 1498.54 250.688C1498.54 262.976 1500.75 273.632 1505.16 282.656C1509.58 291.68 1515.72 298.688 1523.59 303.68C1531.66 308.48 1540.87 310.88 1551.24 310.88Z" fill="black"/>
<path d="M453.2 438.592H465.776C470.448 438.592 474.544 437.952 478.064 436.672C481.648 435.328 484.464 433.408 486.512 430.912C488.624 428.416 489.68 425.408 489.68 421.888C489.68 418.048 488.624 414.88 486.512 412.384C484.464 409.824 481.648 407.936 478.064 406.72C474.544 405.44 470.448 404.8 465.776 404.8H441.104V472H467.408C472.72 472 477.328 471.36 481.232 470.08C485.136 468.736 488.144 466.688 490.256 463.936C492.432 461.184 493.52 457.568 493.52 453.088C493.52 449.696 492.752 446.816 491.216 444.448C489.744 442.016 487.76 440.032 485.264 438.496C482.768 436.896 479.984 435.744 476.912 435.04C473.84 434.336 470.672 433.984 467.408 433.984H453.2V442.816H465.584C467.184 442.816 468.624 442.976 469.904 443.296C471.248 443.552 472.432 444 473.456 444.64C474.48 445.28 475.28 446.112 475.856 447.136C476.432 448.16 476.72 449.376 476.72 450.784C476.72 452.96 476.208 454.688 475.184 455.968C474.224 457.184 472.912 458.08 471.248 458.656C469.584 459.168 467.696 459.424 465.584 459.424H457.328V417.376H464.048C466.864 417.376 469.04 417.952 470.576 419.104C472.112 420.256 472.88 421.984 472.88 424.288C472.88 425.824 472.528 427.136 471.824 428.224C471.12 429.248 470.096 430.048 468.752 430.624C467.472 431.2 465.904 431.488 464.048 431.488H453.2V438.592ZM529.046 458.176C529.046 457.088 529.302 456.192 529.814 455.488C530.326 454.72 531.094 454.144 532.118 453.76C533.142 453.376 534.518 453.184 536.246 453.184C538.486 453.184 540.598 453.504 542.582 454.144C544.63 454.72 546.422 455.584 547.958 456.736V450.304C547.19 449.472 546.038 448.672 544.502 447.904C542.966 447.136 541.11 446.496 538.934 445.984C536.822 445.472 534.422 445.216 531.734 445.216C526.23 445.216 521.974 446.464 518.966 448.96C515.958 451.392 514.454 454.72 514.454 458.944C514.454 461.952 515.158 464.512 516.566 466.624C518.038 468.736 519.958 470.336 522.326 471.424C524.758 472.448 527.382 472.96 530.198 472.96C533.014 472.96 535.638 472.48 538.07 471.52C540.502 470.496 542.486 469.024 544.022 467.104C545.558 465.12 546.326 462.72 546.326 459.904L544.79 454.144C544.79 456.192 544.342 457.92 543.446 459.328C542.55 460.736 541.398 461.792 539.99 462.496C538.582 463.2 537.046 463.552 535.382 463.552C534.23 463.552 533.174 463.36 532.214 462.976C531.254 462.528 530.486 461.92 529.91 461.152C529.334 460.32 529.046 459.328 529.046 458.176ZM522.614 441.376C523.254 440.992 524.278 440.512 525.686 439.936C527.094 439.296 528.726 438.752 530.582 438.304C532.502 437.856 534.454 437.632 536.438 437.632C537.782 437.632 538.966 437.76 539.99 438.016C541.078 438.272 541.974 438.688 542.678 439.264C543.382 439.84 543.894 440.544 544.214 441.376C544.598 442.144 544.79 443.072 544.79 444.16V472H558.71V440.896C558.71 437.824 557.814 435.232 556.022 433.12C554.23 431.008 551.798 429.408 548.726 428.32C545.654 427.168 542.166 426.592 538.262 426.592C534.102 426.592 530.262 427.136 526.742 428.224C523.222 429.312 520.214 430.464 517.718 431.68L522.614 441.376ZM586.364 455.968L580.316 465.568C582.3 467.104 584.444 468.512 586.748 469.792C589.052 471.008 591.548 471.968 594.236 472.672C596.988 473.44 599.964 473.824 603.164 473.824C608.412 473.824 612.476 472.64 615.356 470.272C618.3 467.84 619.772 464.256 619.772 459.52C619.772 456.768 619.164 454.56 617.948 452.896C616.796 451.232 615.228 449.856 613.244 448.768C611.324 447.68 609.212 446.72 606.908 445.888C604.732 445.056 602.876 444.384 601.34 443.872C599.868 443.296 598.716 442.688 597.884 442.048C597.116 441.408 596.732 440.608 596.732 439.648C596.732 438.816 597.052 438.144 597.692 437.632C598.396 437.12 599.42 436.864 600.764 436.864C602.748 436.864 604.924 437.44 607.292 438.592C609.66 439.68 611.772 441.088 613.628 442.816L618.812 433.408C617.084 432.128 615.228 431.008 613.244 430.048C611.324 429.088 609.244 428.32 607.004 427.744C604.828 427.168 602.46 426.88 599.9 426.88C596.7 426.88 593.852 427.36 591.356 428.32C588.924 429.28 586.972 430.688 585.5 432.544C584.092 434.4 583.388 436.672 583.388 439.36C583.388 442.176 583.996 444.48 585.212 446.272C586.428 448.064 587.964 449.504 589.82 450.592C591.74 451.616 593.756 452.512 595.868 453.28C598.236 453.984 600.092 454.656 601.436 455.296C602.844 455.936 603.836 456.608 604.412 457.312C604.988 457.952 605.276 458.752 605.276 459.712C605.276 460.736 604.924 461.568 604.22 462.208C603.516 462.848 602.428 463.168 600.956 463.168C599.932 463.168 598.716 462.976 597.308 462.592C595.9 462.144 594.268 461.408 592.412 460.384C590.62 459.296 588.604 457.824 586.364 455.968ZM664.609 472.96C670.241 472.96 675.009 471.872 678.913 469.696C682.881 467.52 686.017 464.256 688.321 459.904L675.361 456.736C674.273 458.656 672.801 460.096 670.945 461.056C669.153 462.016 666.977 462.496 664.417 462.496C662.177 462.496 660.289 462.016 658.753 461.056C657.217 460.032 656.065 458.56 655.297 456.64C654.529 454.72 654.145 452.416 654.145 449.728C654.209 446.784 654.593 444.352 655.297 442.432C656.065 440.448 657.185 438.976 658.657 438.016C660.129 437.056 661.953 436.576 664.129 436.576C665.857 436.576 667.361 436.96 668.641 437.728C669.921 438.496 670.913 439.584 671.617 440.992C672.321 442.4 672.673 444.064 672.673 445.984C672.673 446.432 672.545 447.008 672.289 447.712C672.097 448.352 671.841 448.896 671.521 449.344L674.977 444.928H647.713V452.992H688.033C688.161 452.544 688.225 452 688.225 451.36C688.225 450.656 688.225 449.952 688.225 449.248C688.225 444.512 687.297 440.48 685.441 437.152C683.585 433.824 680.897 431.296 677.377 429.568C673.857 427.776 669.537 426.88 664.417 426.88C659.297 426.88 654.849 427.808 651.073 429.664C647.361 431.52 644.513 434.176 642.529 437.632C640.545 441.088 639.553 445.184 639.553 449.92C639.553 454.592 640.577 458.656 642.625 462.112C644.673 465.568 647.553 468.256 651.265 470.176C655.041 472.032 659.489 472.96 664.609 472.96ZM745.081 397.12V472H759.577V397.12H745.081ZM708.985 449.92C708.985 454.848 709.977 459.04 711.961 462.496C714.009 465.888 716.633 468.48 719.833 470.272C723.033 472.064 726.425 472.96 730.009 472.96C733.721 472.96 736.985 472.032 739.801 470.176C742.681 468.32 744.953 465.664 746.617 462.208C748.281 458.752 749.113 454.656 749.113 449.92C749.113 445.12 748.281 441.024 746.617 437.632C744.953 434.176 742.681 431.52 739.801 429.664C736.985 427.808 733.721 426.88 730.009 426.88C726.425 426.88 723.033 427.776 719.833 429.568C716.633 431.36 714.009 433.952 711.961 437.344C709.977 440.736 708.985 444.928 708.985 449.92ZM724.249 449.92C724.249 447.616 724.729 445.632 725.689 443.968C726.649 442.24 727.929 440.928 729.529 440.032C731.129 439.072 732.889 438.592 734.809 438.592C736.473 438.592 738.073 439.04 739.609 439.936C741.209 440.832 742.521 442.144 743.545 443.872C744.569 445.536 745.081 447.552 745.081 449.92C745.081 452.288 744.569 454.336 743.545 456.064C742.521 457.728 741.209 459.008 739.609 459.904C738.073 460.8 736.473 461.248 734.809 461.248C732.889 461.248 731.129 460.8 729.529 459.904C727.929 458.944 726.649 457.632 725.689 455.968C724.729 454.24 724.249 452.224 724.249 449.92ZM825.816 449.92C825.816 454.528 826.904 458.56 829.08 462.016C831.256 465.472 834.264 468.16 838.104 470.08C841.944 472 846.264 472.96 851.064 472.96C855.864 472.96 860.152 472 863.928 470.08C867.768 468.16 870.776 465.472 872.952 462.016C875.192 458.56 876.312 454.528 876.312 449.92C876.312 445.248 875.192 441.184 872.952 437.728C870.776 434.272 867.768 431.584 863.928 429.664C860.152 427.744 855.864 426.784 851.064 426.784C846.264 426.784 841.944 427.744 838.104 429.664C834.264 431.584 831.256 434.272 829.08 437.728C826.904 441.184 825.816 445.248 825.816 449.92ZM840.696 449.92C840.696 447.616 841.176 445.632 842.136 443.968C843.096 442.304 844.344 441.024 845.88 440.128C847.416 439.232 849.144 438.784 851.064 438.784C852.92 438.784 854.616 439.232 856.152 440.128C857.752 441.024 859 442.304 859.896 443.968C860.856 445.632 861.336 447.616 861.336 449.92C861.336 452.224 860.856 454.208 859.896 455.872C859 457.472 857.752 458.72 856.152 459.616C854.616 460.512 852.92 460.96 851.064 460.96C849.144 460.96 847.416 460.512 845.88 459.616C844.344 458.72 843.096 457.472 842.136 455.872C841.176 454.208 840.696 452.224 840.696 449.92ZM928.137 445.12V472H943.209V443.584C943.209 438.272 941.961 434.144 939.465 431.2C936.969 428.256 932.969 426.784 927.465 426.784C924.201 426.784 921.449 427.456 919.209 428.8C917.033 430.144 915.305 432.032 914.025 434.464V427.84H899.433V472H914.025V445.12C914.025 443.392 914.345 441.92 914.985 440.704C915.625 439.488 916.521 438.56 917.673 437.92C918.825 437.28 920.169 436.96 921.705 436.96C924.009 436.96 925.641 437.664 926.601 439.072C927.625 440.48 928.137 442.496 928.137 445.12ZM1046.98 447.712H1064.84C1064.26 449.44 1063.46 451.072 1062.44 452.608C1061.48 454.08 1060.3 455.392 1058.89 456.544C1057.48 457.632 1055.78 458.496 1053.8 459.136C1051.82 459.712 1049.61 460 1047.18 460C1043.21 460 1039.69 459.136 1036.62 457.408C1033.61 455.616 1031.21 453.12 1029.42 449.92C1027.69 446.656 1026.82 442.816 1026.82 438.4C1026.82 433.92 1027.72 430.144 1029.51 427.072C1031.37 423.936 1033.83 421.536 1036.9 419.872C1040.04 418.208 1043.46 417.376 1047.18 417.376C1051.08 417.376 1054.31 418.272 1056.87 420.064C1059.5 421.792 1061.58 424 1063.11 426.688L1077.51 419.2C1075.4 416.064 1072.87 413.312 1069.93 410.944C1067.05 408.512 1063.72 406.624 1059.94 405.28C1056.17 403.936 1051.91 403.264 1047.18 403.264C1041.86 403.264 1036.94 404.096 1032.39 405.76C1027.85 407.424 1023.88 409.792 1020.49 412.864C1017.1 415.936 1014.47 419.648 1012.62 424C1010.76 428.288 1009.83 433.088 1009.83 438.4C1009.83 443.712 1010.73 448.576 1012.52 452.992C1014.38 457.344 1016.94 461.12 1020.2 464.32C1023.46 467.456 1027.34 469.888 1031.82 471.616C1036.3 473.28 1041.22 474.112 1046.6 474.112C1052.3 474.112 1057.35 473.12 1061.77 471.136C1066.18 469.088 1069.86 466.272 1072.81 462.688C1075.75 459.104 1077.93 454.976 1079.34 450.304C1080.74 445.632 1081.29 440.608 1080.97 435.232H1046.98V447.712ZM1133.52 445.12V472H1148.6V443.584C1148.6 438.272 1147.35 434.144 1144.85 431.2C1142.36 428.256 1138.36 426.784 1132.85 426.784C1129.59 426.784 1126.84 427.456 1124.6 428.8C1122.42 430.144 1120.69 432.032 1119.41 434.464V427.84H1104.82V472H1119.41V445.12C1119.41 443.392 1119.73 441.92 1120.37 440.704C1121.01 439.488 1121.91 438.56 1123.06 437.92C1124.21 437.28 1125.56 436.96 1127.09 436.96C1129.4 436.96 1131.03 437.664 1131.99 439.072C1133.01 440.48 1133.52 442.496 1133.52 445.12ZM1171.85 449.92C1171.85 454.528 1172.94 458.56 1175.11 462.016C1177.29 465.472 1180.3 468.16 1184.14 470.08C1187.98 472 1192.3 472.96 1197.1 472.96C1201.9 472.96 1206.18 472 1209.96 470.08C1213.8 468.16 1216.81 465.472 1218.98 462.016C1221.22 458.56 1222.34 454.528 1222.34 449.92C1222.34 445.248 1221.22 441.184 1218.98 437.728C1216.81 434.272 1213.8 431.584 1209.96 429.664C1206.18 427.744 1201.9 426.784 1197.1 426.784C1192.3 426.784 1187.98 427.744 1184.14 429.664C1180.3 431.584 1177.29 434.272 1175.11 437.728C1172.94 441.184 1171.85 445.248 1171.85 449.92ZM1186.73 449.92C1186.73 447.616 1187.21 445.632 1188.17 443.968C1189.13 442.304 1190.38 441.024 1191.91 440.128C1193.45 439.232 1195.18 438.784 1197.1 438.784C1198.95 438.784 1200.65 439.232 1202.18 440.128C1203.78 441.024 1205.03 442.304 1205.93 443.968C1206.89 445.632 1207.37 447.616 1207.37 449.92C1207.37 452.224 1206.89 454.208 1205.93 455.872C1205.03 457.472 1203.78 458.72 1202.18 459.616C1200.65 460.512 1198.95 460.96 1197.1 460.96C1195.18 460.96 1193.45 460.512 1191.91 459.616C1190.38 458.72 1189.13 457.472 1188.17 455.872C1187.21 454.208 1186.73 452.224 1186.73 449.92ZM1247.86 455.968L1241.82 465.568C1243.8 467.104 1245.94 468.512 1248.25 469.792C1250.55 471.008 1253.05 471.968 1255.74 472.672C1258.49 473.44 1261.46 473.824 1264.66 473.824C1269.91 473.824 1273.98 472.64 1276.86 470.272C1279.8 467.84 1281.27 464.256 1281.27 459.52C1281.27 456.768 1280.66 454.56 1279.45 452.896C1278.3 451.232 1276.73 449.856 1274.74 448.768C1272.82 447.68 1270.71 446.72 1268.41 445.888C1266.23 445.056 1264.38 444.384 1262.84 443.872C1261.37 443.296 1260.22 442.688 1259.38 442.048C1258.62 441.408 1258.23 440.608 1258.23 439.648C1258.23 438.816 1258.55 438.144 1259.19 437.632C1259.9 437.12 1260.92 436.864 1262.26 436.864C1264.25 436.864 1266.42 437.44 1268.79 438.592C1271.16 439.68 1273.27 441.088 1275.13 442.816L1280.31 433.408C1278.58 432.128 1276.73 431.008 1274.74 430.048C1272.82 429.088 1270.74 428.32 1268.5 427.744C1266.33 427.168 1263.96 426.88 1261.4 426.88C1258.2 426.88 1255.35 427.36 1252.86 428.32C1250.42 429.28 1248.47 430.688 1247 432.544C1245.59 434.4 1244.89 436.672 1244.89 439.36C1244.89 442.176 1245.5 444.48 1246.71 446.272C1247.93 448.064 1249.46 449.504 1251.32 450.592C1253.24 451.616 1255.26 452.512 1257.37 453.28C1259.74 453.984 1261.59 454.656 1262.94 455.296C1264.34 455.936 1265.34 456.608 1265.91 457.312C1266.49 457.952 1266.78 458.752 1266.78 459.712C1266.78 460.736 1266.42 461.568 1265.72 462.208C1265.02 462.848 1263.93 463.168 1262.46 463.168C1261.43 463.168 1260.22 462.976 1258.81 462.592C1257.4 462.144 1255.77 461.408 1253.91 460.384C1252.12 459.296 1250.1 457.824 1247.86 455.968ZM1302.78 411.232C1302.78 413.536 1303.61 415.424 1305.28 416.896C1306.94 418.368 1308.93 419.104 1311.23 419.104C1313.6 419.104 1315.58 418.368 1317.18 416.896C1318.85 415.424 1319.68 413.536 1319.68 411.232C1319.68 408.928 1318.85 407.072 1317.18 405.664C1315.58 404.192 1313.6 403.456 1311.23 403.456C1308.93 403.456 1306.94 404.192 1305.28 405.664C1303.61 407.072 1302.78 408.928 1302.78 411.232ZM1304.22 427.84V472H1318.24V427.84H1304.22ZM1346.98 455.968L1340.93 465.568C1342.91 467.104 1345.06 468.512 1347.36 469.792C1349.66 471.008 1352.16 471.968 1354.85 472.672C1357.6 473.44 1360.58 473.824 1363.78 473.824C1369.02 473.824 1373.09 472.64 1375.97 470.272C1378.91 467.84 1380.38 464.256 1380.38 459.52C1380.38 456.768 1379.78 454.56 1378.56 452.896C1377.41 451.232 1375.84 449.856 1373.86 448.768C1371.94 447.68 1369.82 446.72 1367.52 445.888C1365.34 445.056 1363.49 444.384 1361.95 443.872C1360.48 443.296 1359.33 442.688 1358.5 442.048C1357.73 441.408 1357.34 440.608 1357.34 439.648C1357.34 438.816 1357.66 438.144 1358.3 437.632C1359.01 437.12 1360.03 436.864 1361.38 436.864C1363.36 436.864 1365.54 437.44 1367.9 438.592C1370.27 439.68 1372.38 441.088 1374.24 442.816L1379.42 433.408C1377.7 432.128 1375.84 431.008 1373.86 430.048C1371.94 429.088 1369.86 428.32 1367.62 427.744C1365.44 427.168 1363.07 426.88 1360.51 426.88C1357.31 426.88 1354.46 427.36 1351.97 428.32C1349.54 429.28 1347.58 430.688 1346.11 432.544C1344.7 434.4 1344 436.672 1344 439.36C1344 442.176 1344.61 444.48 1345.82 446.272C1347.04 448.064 1348.58 449.504 1350.43 450.592C1352.35 451.616 1354.37 452.512 1356.48 453.28C1358.85 453.984 1360.7 454.656 1362.05 455.296C1363.46 455.936 1364.45 456.608 1365.02 457.312C1365.6 457.952 1365.89 458.752 1365.89 459.712C1365.89 460.736 1365.54 461.568 1364.83 462.208C1364.13 462.848 1363.04 463.168 1361.57 463.168C1360.54 463.168 1359.33 462.976 1357.92 462.592C1356.51 462.144 1354.88 461.408 1353.02 460.384C1351.23 459.296 1349.22 457.824 1346.98 455.968ZM1454.77 448.384L1443.44 456.544C1444.98 459.744 1447.12 462.688 1449.88 465.376C1452.63 468.064 1455.86 470.208 1459.57 471.808C1463.35 473.344 1467.41 474.112 1471.76 474.112C1474.9 474.112 1477.94 473.632 1480.88 472.672C1483.89 471.776 1486.55 470.432 1488.85 468.64C1491.22 466.848 1493.08 464.64 1494.42 462.016C1495.83 459.328 1496.53 456.288 1496.53 452.896C1496.53 450.08 1496.08 447.584 1495.19 445.408C1494.29 443.232 1493.04 441.312 1491.44 439.648C1489.91 437.984 1488.12 436.576 1486.07 435.424C1484.02 434.208 1481.81 433.152 1479.44 432.256C1476.31 431.168 1473.62 430.144 1471.38 429.184C1469.2 428.224 1467.51 427.168 1466.29 426.016C1465.14 424.864 1464.56 423.52 1464.56 421.984C1464.56 420.512 1465.17 419.296 1466.39 418.336C1467.6 417.312 1469.36 416.8 1471.67 416.8C1473.4 416.8 1475 417.152 1476.47 417.856C1478 418.496 1479.38 419.424 1480.6 420.64C1481.88 421.792 1483 423.168 1483.96 424.768L1496.34 417.856C1495.19 415.552 1493.52 413.28 1491.35 411.04C1489.17 408.8 1486.42 406.944 1483.09 405.472C1479.83 404 1475.96 403.264 1471.48 403.264C1467.12 403.264 1463.16 404.032 1459.57 405.568C1456.05 407.04 1453.24 409.216 1451.12 412.096C1449.08 414.976 1448.05 418.4 1448.05 422.368C1448.05 425.696 1448.66 428.544 1449.88 430.912C1451.09 433.216 1452.63 435.2 1454.48 436.864C1456.34 438.464 1458.29 439.776 1460.34 440.8C1462.45 441.824 1464.31 442.624 1465.91 443.2C1469.17 444.416 1471.8 445.504 1473.78 446.464C1475.76 447.424 1477.2 448.448 1478.1 449.536C1479 450.56 1479.44 451.936 1479.44 453.664C1479.44 455.712 1478.68 457.344 1477.14 458.56C1475.6 459.712 1473.65 460.288 1471.28 460.288C1469.04 460.288 1466.9 459.808 1464.85 458.848C1462.87 457.888 1461.01 456.512 1459.28 454.72C1457.62 452.928 1456.12 450.816 1454.77 448.384ZM1531.57 458.176C1531.57 457.088 1531.83 456.192 1532.34 455.488C1532.85 454.72 1533.62 454.144 1534.64 453.76C1535.67 453.376 1537.04 453.184 1538.77 453.184C1541.01 453.184 1543.12 453.504 1545.11 454.144C1547.16 454.72 1548.95 455.584 1550.48 456.736V450.304C1549.72 449.472 1548.56 448.672 1547.03 447.904C1545.49 447.136 1543.64 446.496 1541.46 445.984C1539.35 445.472 1536.95 445.216 1534.26 445.216C1528.76 445.216 1524.5 446.464 1521.49 448.96C1518.48 451.392 1516.98 454.72 1516.98 458.944C1516.98 461.952 1517.68 464.512 1519.09 466.624C1520.56 468.736 1522.48 470.336 1524.85 471.424C1527.28 472.448 1529.91 472.96 1532.72 472.96C1535.54 472.96 1538.16 472.48 1540.6 471.52C1543.03 470.496 1545.01 469.024 1546.55 467.104C1548.08 465.12 1548.85 462.72 1548.85 459.904L1547.32 454.144C1547.32 456.192 1546.87 457.92 1545.97 459.328C1545.08 460.736 1543.92 461.792 1542.52 462.496C1541.11 463.2 1539.57 463.552 1537.91 463.552C1536.76 463.552 1535.7 463.36 1534.74 462.976C1533.78 462.528 1533.01 461.92 1532.44 461.152C1531.86 460.32 1531.57 459.328 1531.57 458.176ZM1525.14 441.376C1525.78 440.992 1526.8 440.512 1528.21 439.936C1529.62 439.296 1531.25 438.752 1533.11 438.304C1535.03 437.856 1536.98 437.632 1538.96 437.632C1540.31 437.632 1541.49 437.76 1542.52 438.016C1543.6 438.272 1544.5 438.688 1545.2 439.264C1545.91 439.84 1546.42 440.544 1546.74 441.376C1547.12 442.144 1547.32 443.072 1547.32 444.16V472H1561.24V440.896C1561.24 437.824 1560.34 435.232 1558.55 433.12C1556.76 431.008 1554.32 429.408 1551.25 428.32C1548.18 427.168 1544.69 426.592 1540.79 426.592C1536.63 426.592 1532.79 427.136 1529.27 428.224C1525.75 429.312 1522.74 430.464 1520.24 431.68L1525.14 441.376ZM1582.55 427.84V439.84H1612.7V427.84H1582.55ZM1611.06 411.04L1616.92 400.384C1616.28 399.744 1615.42 399.072 1614.33 398.368C1613.24 397.6 1611.93 396.96 1610.39 396.448C1608.86 395.872 1606.97 395.584 1604.73 395.584C1601.08 395.584 1598.01 396.224 1595.51 397.504C1593.08 398.784 1591.22 400.608 1589.94 402.976C1588.73 405.344 1588.12 408.192 1588.12 411.52V472H1602.04V415.168C1602.04 413.632 1602.23 412.384 1602.62 411.424C1603 410.464 1603.51 409.76 1604.15 409.312C1604.86 408.864 1605.69 408.64 1606.65 408.64C1607.48 408.64 1608.25 408.832 1608.95 409.216C1609.72 409.6 1610.42 410.208 1611.06 411.04ZM1656.35 472.96C1661.98 472.96 1666.75 471.872 1670.66 469.696C1674.62 467.52 1677.76 464.256 1680.06 459.904L1667.1 456.736C1666.02 458.656 1664.54 460.096 1662.69 461.056C1660.9 462.016 1658.72 462.496 1656.16 462.496C1653.92 462.496 1652.03 462.016 1650.5 461.056C1648.96 460.032 1647.81 458.56 1647.04 456.64C1646.27 454.72 1645.89 452.416 1645.89 449.728C1645.95 446.784 1646.34 444.352 1647.04 442.432C1647.81 440.448 1648.93 438.976 1650.4 438.016C1651.87 437.056 1653.7 436.576 1655.87 436.576C1657.6 436.576 1659.1 436.96 1660.38 437.728C1661.66 438.496 1662.66 439.584 1663.36 440.992C1664.06 442.4 1664.42 444.064 1664.42 445.984C1664.42 446.432 1664.29 447.008 1664.03 447.712C1663.84 448.352 1663.58 448.896 1663.26 449.344L1666.72 444.928H1639.46V452.992H1679.78C1679.9 452.544 1679.97 452 1679.97 451.36C1679.97 450.656 1679.97 449.952 1679.97 449.248C1679.97 444.512 1679.04 440.48 1677.18 437.152C1675.33 433.824 1672.64 431.296 1669.12 429.568C1665.6 427.776 1661.28 426.88 1656.16 426.88C1651.04 426.88 1646.59 427.808 1642.82 429.664C1639.1 431.52 1636.26 434.176 1634.27 437.632C1632.29 441.088 1631.3 445.184 1631.3 449.92C1631.3 454.592 1632.32 458.656 1634.37 462.112C1636.42 465.568 1639.3 468.256 1643.01 470.176C1646.78 472.032 1651.23 472.96 1656.35 472.96Z" fill="black"/>
</svg>
