
<svg xmlns="http://www.w3.org/2000/svg" width="114" height="36" viewBox="0 0 114 36">
    <g fill="#081728">
        <path d="M18 .024C8.09.026.058 8.06.059 17.97c0 9.91 8.035 17.942 17.944 17.942 9.91 0 17.943-8.034 17.943-17.944 0-4.76-1.89-9.324-5.256-12.689C27.324 1.914 22.76.024 18 .024zm13.135 18.924H22.81c-.515 2.578-2.915 4.335-5.528 4.047-2.613-.288-4.573-2.525-4.514-5.153.058-2.628 2.115-4.776 4.738-4.947 2.624-.172 4.943 1.69 5.343 4.288h8.287c.323-.012.627.154.792.432.165.278.165.623 0 .901s-.469.444-.792.432zM40.81 23.253L42.017 23.253 45.601 29.554 45.628 29.554 49.211 23.253 50.406 23.253 50.406 33 49.211 33 49.211 25.572 49.184 25.572 46.013 31.036 45.202 31.036 42.032 25.572 42.017 25.572 42.017 33 40.81 33zM52.506 30.295v-3.98h1.112v3.664c0 1.51.577 2.082 1.633 2.082 1.057 0 1.991-.92 1.991-2.512v-3.235h1.112V33h-1.112v-1.153h-.013c-.474.766-1.31 1.233-2.21 1.235-1.538 0-2.513-.878-2.513-2.787zM60.454 22.898L61.566 22.898 61.566 33 60.454 33zM63.887 31.009v-3.733h-.865v-.962h.865v-2.278l1.111-.123v2.401h2.204v.962h-2.204v3.569c0 .81.18 1.194.811 1.194.401-.022.792-.14 1.139-.343l.289.98c-.368.219-.824.41-1.62.41-1.182-.004-1.73-.731-1.73-2.077zM68.486 24.296c-.006-.329.188-.63.49-.76.303-.13.654-.063.889.168.234.23.306.58.181.885-.125.305-.422.504-.75.503-.214.003-.42-.08-.571-.23-.152-.149-.238-.353-.24-.566zm.245 2.018h1.111V33h-1.111v-6.686zM71.423 32.134l.564-.85c.521.507 1.111.81 2.044.81.811 0 1.278-.398 1.278-.906 0-.59-.613-.756-1.592-1.112-1.084-.385-2.004-.824-2.004-2.046 0-1.03.934-1.798 2.196-1.798.844-.012 1.663.283 2.306.83l-.577.878c-.474-.46-1.11-.717-1.77-.713-.522 0-1.03.3-1.03.809 0 .508.535.782 1.262 1.043 1.414.55 2.347.797 2.334 2.101 0 1.044-.796 1.908-2.403 1.908-.957.019-1.888-.322-2.608-.954zM77.848 24.296c-.006-.329.188-.63.49-.76.303-.13.654-.063.889.168.235.23.307.58.182.885-.125.305-.422.504-.751.503-.214.003-.419-.08-.57-.23-.153-.149-.239-.353-.24-.566zm.245 2.018h1.112V33h-1.112v-6.686zM81.61 35.073l.274-.99c.77.44 1.441.701 2.403.701 1.51 0 2.237-.878 2.237-2.004v-1.066h-.027c-.49.714-1.29 1.167-2.32 1.167-1.826 0-3.24-1.317-3.24-3.306 0-1.908 1.318-3.335 3.199-3.335.921-.013 1.793.415 2.347 1.152h.027v-1.078h1.112v6.191c0 1.923-.961 3.295-3.294 3.295-.956.012-1.896-.24-2.718-.727zm4.942-5.563c0-1.347-.98-2.252-2.224-2.252-1.359 0-2.265.98-2.265 2.28 0 1.413.988 2.306 2.25 2.306 1.346.003 2.239-1 2.239-2.334zM40.123 14.514c0-2.829 1.826-5.02 4.942-5.02 1.414 0 2.952.59 3.954 1.743l-1.62 1.373c-.619-.622-1.46-.97-2.338-.966-1.386 0-2.54 1.058-2.54 2.87 0 1.578.98 2.869 2.637 2.869.59.007 1.172-.14 1.689-.426v-1.154h-1.891V13.91h4.09v4.38c-.892.686-2.375 1.194-3.884 1.194-2.814 0-5.04-1.799-5.04-4.97zM50.46 12.66h2.142v.782h.028c.504-.587 1.244-.919 2.018-.906 1.386 0 2.402.687 2.402 2.817v4.02H54.91v-3.5c0-1.113-.368-1.428-1.072-1.428-.74 0-1.235.507-1.235 1.55v3.378H50.46V12.66zM58.12 16.024c0-2.046 1.47-3.488 3.638-3.488 2.115 0 3.625 1.415 3.625 3.488s-1.51 3.472-3.625 3.472c-2.168 0-3.638-1.44-3.638-3.472zm5.094 0c0-.935-.612-1.579-1.456-1.579-.864 0-1.469.66-1.469 1.579 0 .892.612 1.578 1.47 1.578.812 0 1.455-.659 1.455-1.578zM66.015 18.508l1.001-1.386c.564.508 1.14.754 1.757.754.427 0 .646-.15.646-.398 0-.219-.206-.356-1.043-.612-1.127-.344-2.115-.893-2.115-2.183 0-1.36 1.113-2.142 2.512-2.142.919-.024 1.816.272 2.54.838l-1.016 1.496c-.467-.466-1.044-.7-1.497-.7-.244 0-.535.11-.535.367 0 .206.245.358.92.59 1.483.508 2.293.893 2.293 2.21 0 1.25-.892 2.156-2.731 2.156-1.058-.002-1.991-.331-2.732-.99zM72.438 10.587c0-.659.537-1.207 1.278-1.207.74 0 1.29.535 1.29 1.207 0 .7-.55 1.235-1.29 1.235-.741 0-1.278-.535-1.278-1.235zm.207 2.073h2.14v6.713h-2.14V12.66zM75.816 18.508l1.002-1.386c.562.508 1.14.754 1.758.754.424 0 .645-.15.645-.398 0-.219-.207-.356-1.043-.612-1.127-.344-2.115-.893-2.115-2.183 0-1.36 1.112-2.142 2.513-2.142.918-.024 1.815.272 2.54.838l-1.017 1.496c-.467-.466-1.043-.7-1.497-.7-.244 0-.535.11-.535.367 0 .206.245.358.92.59 1.483.508 2.292.893 2.292 2.21 0 1.25-.891 2.156-2.732 2.156-1.056-.002-1.99-.331-2.731-.99zM85.224 17.945l1.347-1.634c.742.811 1.635 1.154 2.307 1.154.77 0 1.102-.385 1.102-.824 0-.535-.342-.768-1.44-1.139-1.484-.508-2.967-1.209-2.967-3.13 0-1.62 1.387-2.842 3.199-2.87 1.277-.027 2.449.468 3.377 1.264l-1.302 1.675c-.837-.659-1.44-.92-1.99-.92-.548 0-.906.288-.906.755 0 .466.343.713 1.4 1.125 1.714.66 3.034 1.102 3.034 2.979 0 2.293-1.959 3.116-3.583 3.116-1.354-.007-2.647-.567-3.578-1.551zM93.168 16.024c0-2.06 1.33-3.488 3.061-3.488.71-.008 1.39.299 1.853.838l.027-.014v-.7h2.155v6.713h-2.045v-.7l-.028-.014c-.439.563-1.044.837-1.853.837-1.84 0-3.17-1.4-3.17-3.472zm5.039 0c0-.92-.613-1.592-1.415-1.592-.824 0-1.441.632-1.441 1.592 0 .96.59 1.578 1.441 1.578.77 0 1.412-.617 1.412-1.578h.003zM101.94 14.39h-.645v-1.73h.645v-1.057c0-1.661.864-2.47 2.204-2.47.642-.004 1.27.177 1.812.52l-.398 1.552c-.26-.138-.544-.221-.837-.245-.385 0-.632.193-.632.728v.98h1.277v1.73h-1.27v4.982h-2.156v-4.99zM112.511 16.586h-4.572c.137.769.782 1.167 1.606 1.167.602-.01 1.171-.277 1.565-.733l1.236 1.264c-.564.7-1.497 1.207-3.02 1.207-2.033 0-3.515-1.4-3.515-3.486 0-2.032 1.427-3.474 3.46-3.474 1.894 0 3.28 1.415 3.28 3.406 0 .197-.02.512-.04.649zm-4.558-1.28h2.512c-.137-.659-.577-1.071-1.225-1.071-.647 0-1.15.403-1.287 1.071z"/>
    </g>
</svg>
