<svg viewBox="0 0 1360 280" xmlns="http://www.w3.org/2000/svg">
  <title>horizontal_left_small_black</title>
  <path d="M137,9.84A128.75,128.75,0,1,0,265.7,138.59,128.76,128.76,0,0,0,137,9.84Zm94.23,135.78H171.44a36.38,36.38,0,1,1,.28-12.66h59.46a6.33,6.33,0,0,1,0,12.66Z"/>
  <path d="M 1302.59 139.464 C 1312.27 139.464 1318.86 145.644 1320.92 155.524 L 1283.21 155.524 C 1285.27 145.434 1292.69 139.464 1302.59 139.464 M 1352.23 165.004 C 1352.23 135.134 1331.43 113.904 1302.99 113.904 C 1272.51 113.904 1251.08 135.544 1251.08 166.034 C 1251.08 197.354 1273.32 218.364 1303.82 218.364 C 1326.69 218.364 1340.69 210.744 1349.14 200.234 L 1330.6 181.234 C 1324.678 188.048 1316.136 192.019 1307.11 192.154 C 1294.75 192.154 1285.11 186.154 1283.01 174.654 L 1351.61 174.654 C 1351.82 172.584 1352.23 167.844 1352.23 164.964 M 1197.1 216.514 L 1229.45 216.514 L 1229.45 141.734 L 1248.61 141.734 L 1248.61 115.734 L 1229.45 115.734 L 1229.45 101.144 C 1229.45 93.144 1233.15 90.224 1238.92 90.224 C 1241.81 90.224 1247.17 91.664 1251.49 93.934 L 1257.49 70.644 C 1253.99 68.174 1243.69 62.824 1230.3 62.824 C 1210.11 62.824 1197.13 74.974 1197.13 99.904 L 1197.13 115.764 L 1187.45 115.764 L 1187.45 141.764 L 1197.13 141.764 Z M 1124 189.934 C 1111.23 189.934 1102.37 180.464 1102.37 166.244 C 1102.37 151.824 1111.64 142.344 1124 142.344 C 1136 142.344 1145.22 152.434 1145.22 166.244 C 1145.22 180.664 1135.54 189.934 1124 189.934 M 1117.21 218.364 C 1129.36 218.364 1138.42 214.244 1145.02 205.804 L 1145.43 206.004 L 1145.43 216.514 L 1176.13 216.514 L 1176.13 115.764 L 1143.78 115.764 L 1143.78 126.274 L 1143.37 126.484 C 1136.422 118.372 1126.23 113.763 1115.55 113.904 C 1089.55 113.904 1069.61 135.334 1069.61 166.244 C 1069.61 197.354 1089.61 218.364 1117.21 218.364 M 1008.21 218.364 C 1032.53 218.364 1061.98 206.004 1061.98 171.594 C 1061.98 143.374 1042.21 136.774 1016.45 126.894 C 1000.59 120.714 995.24 117.004 995.45 109.994 C 995.45 102.994 1000.6 98.674 1009.05 98.674 C 1017.29 98.674 1026.35 102.584 1038.92 112.464 L 1058.29 87.334 C 1044.29 75.334 1026.77 67.964 1007.61 68.334 C 980.41 68.744 959.61 87.074 959.61 111.384 C 959.61 140.234 981.87 150.744 1004.11 158.384 C 1020.6 163.944 1025.74 167.444 1025.74 175.484 C 1025.74 182.074 1020.8 187.844 1009.26 187.844 C 999.17 187.844 985.78 182.694 974.66 170.534 L 954.46 195.054 C 970.12 211.124 989.46 218.334 1008.23 218.334 M 864.64 218.334 C 892.25 218.334 905.64 204.734 905.64 185.984 C 905.64 166.214 893.49 160.444 871.23 152.824 C 861.14 149.324 857.43 147.054 857.43 143.954 C 857.43 140.044 861.75 138.404 865.43 138.404 C 872.23 138.404 880.88 141.904 887.89 148.904 L 903.14 126.454 C 891.39 117.804 880.27 113.874 865.02 113.874 C 844.02 113.874 827.32 125.624 827.32 146.024 C 827.32 165.384 842.15 173.624 859.05 178.774 C 871.62 182.694 874.71 184.774 874.71 188.054 C 874.71 191.754 871.41 194.054 865.02 194.054 C 855.75 194.054 847.1 190.344 838.65 182.724 L 823.6 203.584 C 834.72 213.474 848.73 218.414 864.6 218.414 M 780.14 216.564 L 812.28 216.564 L 812.28 115.764 L 780.13 115.764 Z M 796.2 103.254 C 807.33 103.254 815.57 95.254 815.57 84.704 C 815.57 74.614 807.33 66.574 796.2 66.574 C 785.07 66.574 777 74.774 777 84.654 C 777 95.164 785 103.204 796.16 103.204 M 725.74 218.364 C 753.35 218.364 766.74 204.764 766.74 186.014 C 766.74 166.244 754.58 160.474 732.34 152.854 C 722.24 149.354 718.53 147.084 718.53 143.984 C 718.53 140.074 722.86 138.434 726.53 138.434 C 733.32 138.434 741.98 141.934 748.98 148.934 L 764.22 126.484 C 752.48 117.834 741.36 113.904 726.11 113.904 C 705.11 113.904 688.41 125.654 688.41 146.054 C 688.41 165.414 703.24 173.654 720.13 178.804 C 732.71 182.724 735.79 184.804 735.79 188.084 C 735.79 191.784 732.5 194.084 726.11 194.084 C 716.84 194.084 708.19 190.374 699.74 182.754 L 684.74 203.564 C 695.86 213.454 709.88 218.394 725.74 218.394 M 625 189.934 C 612.22 189.934 603 179.634 603 166.244 C 603 152.434 612.07 142.544 625 142.544 C 637.56 142.544 646.84 152.234 646.84 166.244 C 646.84 180.044 637.16 189.934 625 189.934 M 625 218.364 C 656.73 218.364 679.39 197.144 679.39 166.244 C 679.39 135.134 656.73 113.904 625 113.904 C 592.45 113.904 570.4 135.544 570.4 166.244 C 570.4 196.734 592.45 218.364 625 218.364 M 459.57 216.514 L 491.7 216.514 L 491.7 165.834 C 491.7 150.174 499.12 142.544 510.25 142.544 C 520.75 142.544 526.32 147.284 526.32 163.974 L 526.32 216.514 L 558.46 216.514 L 558.46 156.144 C 558.46 124.214 543.21 113.904 522.4 113.904 C 510.785 113.711 499.686 118.7 492.12 127.514 L 491.7 127.514 L 491.7 115.764 L 459.57 115.764 Z M 384.16 218.154 C 406.83 218.154 429.07 210.534 442.46 200.234 L 442.46 134.514 L 381.07 134.514 L 381.07 162.944 L 409.5 162.944 L 409.5 180.254 C 401.753 184.553 393.019 186.756 384.16 186.644 C 359.23 186.644 344.61 167.274 344.61 143.574 C 344.61 116.384 361.92 100.514 382.72 100.514 C 395.843 100.473 408.44 105.666 417.72 114.944 L 442.02 94.344 C 427.02 77.034 403.91 68.174 382.69 68.174 C 335.93 68.174 308.52 101.174 308.52 143.574 C 308.52 191.174 341.9 218.154 384.13 218.154"/>
</svg>
