<svg width="1208" height="280" viewBox="0 0 1208 280" fill="none" xmlns="http://www.w3.org/2000/svg">
<g clip-path="url(#clip0_3_15)">
<path d="M365.713 141.99C365.713 81.2679 412.591 35 476.076 35C539.56 35 586.438 81.858 586.438 141.99C586.438 202.122 539.271 248.981 476.076 248.981C412.881 248.981 365.713 203 365.713 141.99ZM537.488 141.99C537.488 106.922 511.97 79.8 476.076 79.8C440.182 79.8 414.359 106.922 414.359 141.99C414.359 177.058 439.877 204.181 476.076 204.181C512.275 204.181 537.488 177.648 537.488 141.99Z" fill="black"/>
<path d="M630.363 38.8247H711.657C754.089 38.8247 785.241 66.5375 785.241 106.902C785.241 134.615 769.524 156.425 748.449 167.035L792.662 245.147H740.456L705.154 176.176H677.257V245.147H630.379V38.8247H630.363ZM707.495 136.386C724.407 136.386 737.163 126.064 737.163 106.918C737.163 89.831 725.29 78.631 706.901 78.631H677.241V136.402H707.495V136.386Z" fill="black"/>
<path d="M875.42 165.284L803.327 38.8452H854.657L897.081 118.123H899.753L941.874 38.8452H993.797L922.588 164.997V245.168H875.42V165.3V165.284Z" fill="black"/>
<path d="M1089.62 165.284L1017.53 38.8452H1068.86L1111.29 118.123H1113.96L1156.08 38.8452H1208L1136.79 164.997V245.168H1089.62V165.3V165.284Z" fill="black"/>
<path d="M235.229 0H48.5008C29.5531 18.6986 18.9477 29.1647 0 47.8633V232.137C18.9477 250.835 29.5531 261.302 48.5008 280H123.305V203.818H99.2969C90.6642 195.298 85.8301 190.527 77.1808 181.992V98.0077C85.8142 89.488 90.6476 84.7182 99.2969 76.1824H184.416C193.049 84.7021 197.883 89.4726 206.532 98.0077V182.008C197.899 190.527 193.065 195.298 184.416 203.834H162.106V280.016H235.229C254.176 261.318 264.782 250.851 283.729 232.153V47.8633C264.782 29.1647 254.176 18.6986 235.229 0Z" fill="black"/>
</g>
<defs>
<clipPath id="clip0_3_15">
<rect width="1208" height="280" fill="white"/>
</clipPath>
</defs>
</svg>
