<svg width="7" height="7" viewBox="0 0 7 7" fill="none" xmlns="http://www.w3.org/2000/svg">
<g clip-path="url(#clip0_4_27)">
<path d="M5.80342 0H1.19658C0.729117 0.467438 0.467465 0.729075 0 1.19651V5.80309C0.467465 6.27052 0.729117 6.53216 1.19658 6.9996H3.04211V5.09515H2.44979C2.23681 4.88217 2.11755 4.76291 1.90416 4.54955V2.45005C2.11716 2.23707 2.2364 2.11783 2.44979 1.90445H4.5498C4.7628 2.11743 4.88204 2.23669 5.09543 2.45005V4.54993C4.88245 4.76291 4.76319 4.88217 4.5498 5.09555H3.99938V7H5.80342C6.27088 6.53257 6.53254 6.27092 7 5.80349V1.19651C6.53254 0.729075 6.27088 0.467438 5.80342 0Z" fill="#B2B5B2"/>
</g>
<defs>
<clipPath id="clip0_4_27">
<rect width="7" height="7" fill="white"/>
</clipPath>
</defs>
</svg>
