<svg width="90" height="32" viewBox="0 0 90 32" fill="none" xmlns="http://www.w3.org/2000/svg">
<g clip-path="url(#clip0_3_14)">
<path d="M31.8893 16.1137C31.8893 12.6439 34.5669 10 38.1931 10C41.8193 10 44.4969 12.6776 44.4969 16.1137C44.4969 19.5498 41.8028 22.2275 38.1931 22.2275C34.5834 22.2275 31.8893 19.6 31.8893 16.1137ZM41.7009 16.1137C41.7009 14.1098 40.2433 12.56 38.1931 12.56C36.1429 12.56 34.6679 14.1098 34.6679 16.1137C34.6679 18.1176 36.1254 19.6675 38.1931 19.6675C40.2608 19.6675 41.7009 18.1513 41.7009 16.1137Z" fill="black"/>
<path d="M47.0058 10.2186H51.6493C54.0729 10.2186 55.8523 11.8021 55.8523 14.1087C55.8523 15.6923 54.9546 16.9386 53.7508 17.5448L56.2762 22.0084H53.2942L51.2778 18.0672H49.6844V22.0084H47.0067V10.2186H47.0058ZM51.4115 15.7935C52.3775 15.7935 53.1061 15.2036 53.1061 14.1096C53.1061 13.1332 52.428 12.4932 51.3776 12.4932H49.6835V15.7944H51.4115V15.7935Z" fill="black"/>
<path d="M61.0033 17.4448L56.8854 10.2197H59.8173L62.2406 14.7499H62.3932L64.7991 10.2197H67.7649L63.6975 17.4284V22.0096H61.0033V17.4457V17.4448Z" fill="black"/>
<path d="M73.2384 17.4448L69.1205 10.2197H72.0524L74.4761 14.7499H74.6283L77.0342 10.2197H80L75.9326 17.4284V22.0096H73.2384V17.4457V17.4448Z" fill="black"/>
<path d="M24.4361 8H13.7703C12.6881 9.06849 12.0823 9.66655 11 10.735V21.265C12.0823 22.3334 12.6881 22.9315 13.7703 24H18.0431V19.6467H16.6718C16.1787 19.1599 15.9025 18.8873 15.4085 18.3996V13.6004C15.9016 13.1136 16.1777 12.841 16.6718 12.3533H21.5337C22.0268 12.8401 22.3029 13.1127 22.7969 13.6004V18.4004C22.3039 18.8873 22.0277 19.1599 21.5337 19.6476H20.2594V24.0009H24.4361C25.5183 22.9324 26.1241 22.3344 27.2064 21.2659V10.735C26.1241 9.66655 25.5183 9.06849 24.4361 8Z" fill="black"/>
</g>
<defs>
<clipPath id="clip0_3_14">
<rect width="69" height="16" fill="white" transform="translate(11 8)"/>
</clipPath>
</defs>
</svg>
