<?xml version="1.0" encoding="UTF-8" standalone="no"?>
<svg
   width="90"
   height="32"
   fill="none"
   version="1.1"
   id="svg874"
   sodipodi:docname="safe-logo.svg"
   inkscape:version="1.1 (c4e8f9e, 2021-05-24)"
   xmlns:inkscape="http://www.inkscape.org/namespaces/inkscape"
   xmlns:sodipodi="http://sodipodi.sourceforge.net/DTD/sodipodi-0.dtd"
   xmlns="http://www.w3.org/2000/svg"
   xmlns:svg="http://www.w3.org/2000/svg">
  <defs
     id="defs878" />
  <sodipodi:namedview
     id="namedview876"
     pagecolor="#ffffff"
     bordercolor="#666666"
     borderopacity="1.0"
     inkscape:pageshadow="2"
     inkscape:pageopacity="0.0"
     inkscape:pagecheckerboard="0"
     showgrid="false"
     inkscape:zoom="7.8333333"
     inkscape:cx="45"
     inkscape:cy="16.021277"
     inkscape:window-width="1312"
     inkscape:window-height="847"
     inkscape:window-x="0"
     inkscape:window-y="25"
     inkscape:window-maximized="0"
     inkscape:current-layer="svg874" />
  <path
     d="M44.557 15.328c-.82-.317-1.822-.581-3.005-.793h-.025c-1.15-.195-2.012-.374-2.587-.537-.575-.162-1.027-.382-1.357-.659-.33-.276-.494-.658-.494-1.146 0-.716.28-1.26.837-1.634.558-.374 1.293-.561 2.206-.561.997 0 1.804.243 2.422.732.554.438.893.995 1.018 1.669a.29.29 0 0 0 .284.235l2.806.02c.172.002.31-.14.293-.305a5.097 5.097 0 0 0-.927-2.461c-.584-.821-1.387-1.46-2.41-1.915-1.022-.456-2.184-.684-3.486-.684-1.234 0-2.345.22-3.334.66-.99.439-1.759 1.048-2.308 1.829a4.468 4.468 0 0 0-.824 2.635c0 1.073.245 1.935.735 2.585a4.575 4.575 0 0 0 1.927 1.476c.794.334 1.75.598 2.865.793l.127.024c1.182.212 2.066.4 2.65.562.583.163 1.043.39 1.382.683.337.292.506.691.506 1.195 0 .716-.304 1.277-.912 1.683-.609.407-1.395.61-2.359.61-1.15 0-2.079-.28-2.789-.842-.646-.51-1.026-1.165-1.14-1.966a.288.288 0 0 0-.284-.245l-2.803-.04c-.17-.003-.308.135-.295.299.08.984.4 1.87.96 2.66.617.87 1.466 1.553 2.548 2.05 1.081.496 2.324.743 3.727.743 1.302 0 2.468-.227 3.5-.683 1.03-.455 1.838-1.085 2.421-1.89a4.522 4.522 0 0 0 .875-2.72c0-1.074-.254-1.94-.76-2.599-.507-.659-1.171-1.146-1.99-1.464ZM61.788 21.903h-.438c-.254 0-.453-.065-.596-.196-.144-.13-.216-.341-.216-.634v-4.66c0-1.48-.49-2.606-1.47-3.378-.98-.772-2.135-1.166-3.944-1.166-1.708 0-3.042.357-4.09 1.056-.955.637-1.53 1.51-1.728 2.621-.03.173.105.33.287.33h2.577c.129 0 .245-.08.279-.2.117-.412.377-.747.778-1.007.465-.3 1.017-.451 1.744-.451 1.371 0 2.346.813 2.346 2.025v.378c0 .155-.13.28-.29.28h-2.335c-1.893 0-3.33.358-4.31 1.074-.98.716-1.471 1.732-1.471 3.05 0 1.138.448 2.033 1.344 2.683.672.487 1.476.769 2.303.892.632.095 1.281.129 1.915.031.664-.102 1.203-.365 1.742-.74.485-.337.89-.769 1.258-1.295.18-.297.653-.178.653.166v.413c-.001.752.632 1.362 1.413 1.362h2.249a.286.286 0 0 0 .29-.28v-2.075c0-.154-.13-.28-.29-.28Zm-4.47-2.513c0 .602-.131 1.126-.393 1.573-.55.938-1.532 1.427-2.638 1.427-.642 0-1.158-.146-1.547-.438a1.392 1.392 0 0 1-.583-1.172c0-.552.216-.98.647-1.28.43-.3 1.043-.451 1.838-.451h2.385c.16 0 .29.125.29.28v.061ZM71.182 7.468H67.83c-1.77 0-3.203 1.38-3.203 3.082v1.354c0 .155-.13.28-.291.28H62.42a.286.286 0 0 0-.291.28v2.098c0 .155.13.28.29.28h1.916c.16 0 .29.126.29.28v9.135c0 .155.13.28.292.28h2.613c.16 0 .29-.125.29-.28v-9.134c0-.155.131-.28.292-.28h3.045c.16 0 .29-.126.29-.28v-2.1c0-.154-.13-.28-.29-.28h-3.045a.286.286 0 0 1-.291-.28v-1.216c0-.31.26-.56.582-.56h2.779a.286.286 0 0 0 .29-.28V7.748c0-.155-.13-.28-.29-.28ZM83.983 14.706a5.631 5.631 0 0 0-2.32-2.098c-.981-.488-2.114-.739-3.398-.739-1.284 0-2.393.272-3.373.8a5.612 5.612 0 0 0-2.282 2.244c-.54.968-.811 2.102-.811 3.404 0 1.3.279 2.386.836 3.354.559.968 1.357 1.712 2.396 2.232 1.04.52 2.261.78 3.665.78 1.081 0 2.05-.19 2.903-.572.853-.382 1.542-.907 2.066-1.574a4.85 4.85 0 0 0 .919-1.874.284.284 0 0 0-.284-.346h-2.624a.291.291 0 0 0-.276.193 2.399 2.399 0 0 1-.98 1.247c-.525.341-1.175.512-1.953.512-.642 0-1.204-.13-1.686-.39a2.904 2.904 0 0 1-1.14-1.098c-.11-.186-.2-.383-.273-.586a3.986 3.986 0 0 1-.17-.67 6.33 6.33 0 0 1-.035-.24c-.02-.165.116-.31.29-.31h9.051a.286.286 0 0 0 .29-.245c.012-.103.02-.208.025-.316.008-.195.012-.374.012-.536 0-1.203-.283-2.26-.849-3.171Zm-2.72 2.147h-5.67c-.185 0-.326-.166-.285-.34.091-.384.248-.729.471-1.039.287-.398.66-.703 1.116-.914a3.516 3.516 0 0 1 1.496-.318c.879 0 1.606.228 2.18.683.494.391.819.92.976 1.586.041.175-.098.342-.284.342ZM26.757 15.998h-2.485c-.742 0-1.343.579-1.343 1.293v3.47c0 .714-.602 1.293-1.344 1.293h-9.886c-.743 0-1.344.578-1.344 1.292v2.391c0 .714.601 1.293 1.344 1.293h10.458c.742 0 1.335-.579 1.335-1.293V23.82c0-.714.602-1.22 1.344-1.22h1.92c.743 0 1.344-.58 1.344-1.293v-4.03c0-.714-.601-1.278-1.343-1.278ZM10.354 11.249c0-.714.602-1.293 1.344-1.293h9.88c.743 0 1.344-.579 1.344-1.293v-2.39c0-.714-.601-1.293-1.344-1.293H11.125c-.742 0-1.343.579-1.343 1.293v1.842c0 .714-.602 1.292-1.344 1.292H6.526c-.742 0-1.344.579-1.344 1.293v4.034c0 .714.604 1.264 1.346 1.264h2.485c.743 0 1.344-.579 1.344-1.293l-.002-3.456ZM15.472 13.485h2.387c.778 0 1.409.608 1.409 1.356v2.296c0 .748-.632 1.356-1.41 1.356h-2.386c-.778 0-1.409-.608-1.409-1.356v-2.296c0-.749.632-1.356 1.409-1.356Z"
     fill="#121312"
     id="path872"
     style="fill:#06fc99;fill-opacity:1" />
</svg>
