<?xml version="1.0" encoding="UTF-8" standalone="no"?>
<svg
   width="90"
   height="32"
   fill="none"
   version="1.1"
   id="svg874"
   sodipodi:docname="safe-logo.svg"
   inkscape:version="1.1 (c4e8f9e, 2021-05-24)"
   xmlns:inkscape="http://www.inkscape.org/namespaces/inkscape"
   xmlns:sodipodi="http://sodipodi.sourceforge.net/DTD/sodipodi-0.dtd"
   xmlns:xlink="http://www.w3.org/1999/xlink"
   xmlns="http://www.w3.org/2000/svg"
   xmlns:svg="http://www.w3.org/2000/svg">
  <defs
     id="defs878">
    <linearGradient
       id="a"
       x1="1.28"
       y1="164.53"
       x2="258.89001"
       y2="164.53"
       gradientUnits="userSpaceOnUse">
      <stop
         offset="0"
         stop-color="gold"
         id="stop99" />
      <stop
         offset="0.02"
         stop-color="#fcd403"
         id="stop101" />
      <stop
         offset="0.22"
         stop-color="#e6be19"
         id="stop103" />
      <stop
         offset="0.43"
         stop-color="#d7ad29"
         id="stop105" />
      <stop
         offset="0.68"
         stop-color="#cea432"
         id="stop107" />
      <stop
         offset="1"
         stop-color="#cba135"
         id="stop109" />
    </linearGradient>
    <linearGradient
       id="b"
       x1="24.75"
       y1="163.06"
       x2="282.35001"
       y2="163.06"
       xlink:href="#a"
       gradientTransform="matrix(0.16189021,0,0,0.15648059,-0.20721946,0)" />
    <linearGradient
       id="c"
       x1="76"
       y1="99.07"
       x2="212.99001"
       y2="233.78"
       xlink:href="#a" />
    <linearGradient
       id="d"
       x1="56.950001"
       y1="324.82999"
       x2="259.85001"
       y2="424.78"
       gradientUnits="userSpaceOnUse">
      <stop
         offset="0"
         stop-color="gold"
         id="stop114" />
      <stop
         offset="1"
         stop-color="#cba135"
         id="stop116" />
    </linearGradient>
  </defs>
  <sodipodi:namedview
     id="namedview876"
     pagecolor="#ffffff"
     bordercolor="#666666"
     borderopacity="1.0"
     inkscape:pageshadow="2"
     inkscape:pageopacity="0.0"
     inkscape:pagecheckerboard="0"
     showgrid="false"
     inkscape:zoom="3.9939761"
     inkscape:cx="70.105578"
     inkscape:cy="63.97134"
     inkscape:window-width="1439"
     inkscape:window-height="847"
     inkscape:window-x="0"
     inkscape:window-y="25"
     inkscape:window-maximized="0"
     inkscape:current-layer="g1075" />
  <path
     d="m 44.557,15.328 c -0.82,-0.317 -1.822,-0.581 -3.005,-0.793 h -0.025 c -1.15,-0.195 -2.012,-0.374 -2.587,-0.537 -0.575,-0.162 -1.027,-0.382 -1.357,-0.659 -0.33,-0.276 -0.494,-0.658 -0.494,-1.146 0,-0.716 0.28,-1.26 0.837,-1.634 0.558,-0.374 1.293,-0.561 2.206,-0.561 0.997,0 1.804,0.243 2.422,0.732 0.554,0.438 0.893,0.995 1.018,1.669 0.0263,0.136162 0.145322,0.234648 0.284,0.235 l 2.806,0.02 c 0.172,0.002 0.31,-0.14 0.293,-0.305 -0.08841,-0.887298 -0.408051,-1.735876 -0.927,-2.461 -0.584,-0.821 -1.387,-1.46 -2.41,-1.915 -1.022,-0.456 -2.184,-0.684 -3.486,-0.684 -1.234,0 -2.345,0.22 -3.334,0.66 -0.99,0.439 -1.759,1.048 -2.308,1.829 -0.545951,0.769321 -0.834392,1.691703 -0.824,2.635 0,1.073 0.245,1.935 0.735,2.585 0.497717,0.656533 1.163484,1.166482 1.927,1.476 0.794,0.334 1.75,0.598 2.865,0.793 l 0.127,0.024 c 1.182,0.212 2.066,0.4 2.65,0.562 0.583,0.163 1.043,0.39 1.382,0.683 0.337,0.292 0.506,0.691 0.506,1.195 0,0.716 -0.304,1.277 -0.912,1.683 -0.609,0.407 -1.395,0.61 -2.359,0.61 -1.15,0 -2.079,-0.28 -2.789,-0.842 -0.646,-0.51 -1.026,-1.165 -1.14,-1.966 -0.02123,-0.140567 -0.14184,-0.244619 -0.284,-0.245 l -2.803,-0.04 c -0.17,-0.003 -0.308,0.135 -0.295,0.299 0.08,0.984 0.4,1.87 0.96,2.66 0.617,0.87 1.466,1.553 2.548,2.05 1.081,0.496 2.324,0.743 3.727,0.743 1.302,0 2.468,-0.227 3.5,-0.683 1.03,-0.455 1.838,-1.085 2.421,-1.89 0.577973,-0.78827 0.884971,-1.742594 0.875,-2.72 0,-1.074 -0.254,-1.94 -0.76,-2.599 -0.507,-0.659 -1.171,-1.146 -1.99,-1.464 z m 17.231,6.575 H 61.35 c -0.254,0 -0.453,-0.065 -0.596,-0.196 -0.144,-0.13 -0.216,-0.341 -0.216,-0.634 v -4.66 c 0,-1.48 -0.49,-2.606 -1.47,-3.378 -0.98,-0.772 -2.135,-1.166 -3.944,-1.166 -1.708,0 -3.042,0.357 -4.09,1.056 -0.955,0.637 -1.53,1.51 -1.728,2.621 -0.03,0.173 0.105,0.33 0.287,0.33 h 2.577 c 0.129,0 0.245,-0.08 0.279,-0.2 0.117,-0.412 0.377,-0.747 0.778,-1.007 0.465,-0.3 1.017,-0.451 1.744,-0.451 1.371,0 2.346,0.813 2.346,2.025 v 0.378 c 0,0.155 -0.13,0.28 -0.29,0.28 h -2.335 c -1.893,0 -3.33,0.358 -4.31,1.074 -0.98,0.716 -1.471,1.732 -1.471,3.05 0,1.138 0.448,2.033 1.344,2.683 0.672,0.487 1.476,0.769 2.303,0.892 0.632,0.095 1.281,0.129 1.915,0.031 0.664,-0.102 1.203,-0.365 1.742,-0.74 0.485,-0.337 0.89,-0.769 1.258,-1.295 0.18,-0.297 0.653,-0.178 0.653,0.166 v 0.413 c -10e-4,0.752 0.632,1.362 1.413,1.362 h 2.249 c 0.157193,0.0022 0.286718,-0.122826 0.29,-0.28 v -2.075 c 0,-0.154 -0.13,-0.28 -0.29,-0.28 z m -4.47,-2.513 c 0,0.602 -0.131,1.126 -0.393,1.573 -0.55,0.938 -1.532,1.427 -2.638,1.427 -0.642,0 -1.158,-0.146 -1.547,-0.438 -0.377355,-0.269225 -0.595933,-0.70863 -0.583,-1.172 0,-0.552 0.216,-0.98 0.647,-1.28 0.43,-0.3 1.043,-0.451 1.838,-0.451 h 2.385 c 0.16,0 0.29,0.125 0.29,0.28 V 19.39 Z M 71.182,7.468 H 67.83 c -1.77,0 -3.203,1.38 -3.203,3.082 v 1.354 c 0,0.155 -0.13,0.28 -0.291,0.28 H 62.42 c -0.15758,-0.0028 -0.287718,0.122429 -0.291,0.28 v 2.098 c 0,0.155 0.13,0.28 0.29,0.28 h 1.916 c 0.16,0 0.29,0.126 0.29,0.28 v 9.135 c 0,0.155 0.13,0.28 0.292,0.28 h 2.613 c 0.16,0 0.29,-0.125 0.29,-0.28 v -9.134 c 0,-0.155 0.131,-0.28 0.292,-0.28 h 3.045 c 0.16,0 0.29,-0.126 0.29,-0.28 v -2.1 c 0,-0.154 -0.13,-0.28 -0.29,-0.28 h -3.045 c -0.15758,0.0028 -0.287718,-0.122429 -0.291,-0.28 v -1.216 c 0,-0.31 0.26,-0.56 0.582,-0.56 h 2.779 c 0.157193,0.0022 0.286718,-0.122826 0.29,-0.28 V 7.748 c 0,-0.155 -0.13,-0.28 -0.29,-0.28 z m 12.801,7.238 c -0.559682,-0.904398 -1.364053,-1.631798 -2.32,-2.098 -0.981,-0.488 -2.114,-0.739 -3.398,-0.739 -1.284,0 -2.393,0.272 -3.373,0.8 -0.962353,0.510645 -1.755268,1.290357 -2.282,2.244 -0.54,0.968 -0.811,2.102 -0.811,3.404 0,1.3 0.279,2.386 0.836,3.354 0.559,0.968 1.357,1.712 2.396,2.232 1.04,0.52 2.261,0.78 3.665,0.78 1.081,0 2.05,-0.19 2.903,-0.572 0.853,-0.382 1.542,-0.907 2.066,-1.574 0.438709,-0.550567 0.752303,-1.19004 0.919,-1.874 0.04038,-0.180247 -0.09934,-0.350467 -0.284,-0.346 h -2.624 c -0.123664,-8.48e-4 -0.234356,0.07656 -0.276,0.193 -0.175845,0.51475 -0.521406,0.954458 -0.98,1.247 -0.525,0.341 -1.175,0.512 -1.953,0.512 -0.642,0 -1.204,-0.13 -1.686,-0.39 -0.474335,-0.253386 -0.868996,-0.633506 -1.14,-1.098 -0.11,-0.186 -0.2,-0.383 -0.273,-0.586 -0.07596,-0.217989 -0.132841,-0.442165 -0.17,-0.67 -0.0132,-0.07977 -0.02487,-0.159784 -0.035,-0.24 -0.02,-0.165 0.116,-0.31 0.29,-0.31 h 9.051 c 0.144747,0.0035 0.269286,-0.1017 0.29,-0.245 0.012,-0.103 0.02,-0.208 0.025,-0.316 0.008,-0.195 0.012,-0.374 0.012,-0.536 0,-1.203 -0.283,-2.26 -0.849,-3.171 z m -2.72,2.147 h -5.67 c -0.185,0 -0.326,-0.166 -0.285,-0.34 0.091,-0.384 0.248,-0.729 0.471,-1.039 0.287,-0.398 0.66,-0.703 1.116,-0.914 0.469292,-0.214487 0.980041,-0.323055 1.496,-0.318 0.879,0 1.606,0.228 2.18,0.683 0.494,0.391 0.819,0.92 0.976,1.586 0.041,0.175 -0.098,0.342 -0.284,0.342 z"
     fill="#121312"
     id="path872"
     style="fill:#06fc99;fill-opacity:1"
     sodipodi:nodetypes="cccccscscccccccscccccccccscscccccccscccccccscssssccssccssssssscccccscsccsccccscccsssccsssssccssssssssssssssccssccssccsccsccssccccccscccccscccsccssccccccs" />
  <g
     id="g1075"
     transform="translate(-22.190271,36.365693)">
    <g
       id="g1521"
       transform="matrix(0.58989391,0,0,0.58989391,22.784313,-35.553543)">
      <path
         d="M 8.7388329,19.403592 V 40.763193 H 4.8113768 V 4.885324 L 0.89687156,1.0953641 V 44.546893 H 23.669968 L 19.747367,40.756932 H 12.661433 V 28.551447 l 3.304178,3.190639 0.615184,0.594626 0.86935,0.840302 15.682304,15.159839 H 16.580795 l 3.838417,3.789959 h 22.178956 z"
         id="path123"
         style="stroke-width:0.159162" />
      <path
         d="m 38.557388,33.596382 v -21.3596 h 3.922602 v 35.871609 l 3.919362,3.789961 V 8.4499518 H 23.626258 l 3.922598,3.7868302 H 34.63641 V 24.442268 L 14.163774,4.6568622 H 30.713811 L 26.877012,0.86690251 H 4.6980536 Z"
         id="path125"
         style="stroke-width:0.159162" />
      <polygon
         points="52.44,90.27 51.29,57.26 242.27,248.4 243.42,281.4 "
         id="polygon127"
         transform="matrix(0.1618902,0,0,0.15648059,-0.20721945,0)" />
      <path
         d="m 7.8419615,18.530431 v 21.3596 H 3.9209805 V 4.0184216 L 0,0.23002642 V 43.681555 H 22.781189 L 18.85859,39.890031 H 11.772655 V 27.684544 l 3.304178,3.195334 0.615185,0.593061 0.86935,0.840302 15.683923,15.159839 h -16.56137 l 3.83842,3.791526 h 22.178957 z"
         style="fill:#06fc99;fill-opacity:1;stroke-width:0.159162"
         id="path129" />
      <path
         d="M 37.660518,32.731045 V 11.36988 h 3.922599 v 35.873174 l 3.919362,3.788394 V 7.5799198 H 22.731003 l 3.920982,3.7899602 h 7.087552 V 23.575365 L 13.266903,3.7915246 H 29.820175 L 25.98014,0 H 3.8011819 Z"
         style="fill:#06fc99;fill-opacity:1;stroke-width:0.159162"
         id="path131" />
      <polygon
         points="46.91,84.73 45.75,51.72 236.73,242.86 237.88,275.86 "
         style="fill:#06fc99;fill-opacity:1"
         id="polygon133"
         transform="matrix(0.1618902,0,0,0.15648059,-0.20721945,0)" />
    </g>
    <text
       style="font-size:25.7644px;font-family:DepofixRegular, Depofix;stroke-width:0.448362"
       id="text143"
       x="53.468472"
       y="39.754253"
       transform="scale(1.0171384,0.98315038)">N<tspan
   x="73.411652"
   y="39.754253"
   style="font-family:ZeniqNano, 'Zeniq Nano';stroke-width:0.448362"
   id="tspan135">EO</tspan><tspan
   x="111.43728"
   y="39.754253"
   style="letter-spacing:-0.00497937em;stroke-width:0.448362"
   id="tspan137">B</tspan><tspan
   x="130.45233"
   y="39.754253"
   id="tspan139"
   style="stroke-width:0.448362">A</tspan><tspan
   x="147.76813"
   y="39.754253"
   style="font-family:ZeniqNano, 'Zeniq Nano';stroke-width:0.448362"
   id="tspan141">SE</tspan></text>
    <text
       style="font-size:25.7644px;font-family:DepofixRegular, Depofix;stroke-width:0.448362"
       id="text153"
       x="53.468472"
       y="37.678333"
       transform="scale(1.0171384,0.98315038)">N<tspan
   x="73.411652"
   y="37.678333"
   style="font-family:ZeniqNano, 'Zeniq Nano';stroke-width:0.448362"
   id="tspan145">EO</tspan><tspan
   x="111.43728"
   y="37.678333"
   style="letter-spacing:-0.00497937em;stroke-width:0.448362"
   id="tspan147">B</tspan><tspan
   x="130.45233"
   y="37.678333"
   id="tspan149"
   style="stroke-width:0.448362">A</tspan><tspan
   x="147.76813"
   y="37.678333"
   style="font-family:ZeniqNano, 'Zeniq Nano';stroke-width:0.448362"
   id="tspan151">SE</tspan></text>
  </g>
</svg>
