<svg width="524" height="163" viewBox="0 0 524 163" fill="none" xmlns="http://www.w3.org/2000/svg">
<path d="M94.4616 35.2807C67.1544 45.8062 64.6529 72.7621 56.8228 85.3512C48.9 98.0897 30.7491 105.118 33.2312 111.61C35.7132 118.101 53.8857 111.129 68.2628 115.271C82.4695 119.364 102.292 137.717 129.599 127.191C143.51 121.83 153.583 110.794 158.215 97.7216C158.713 96.3185 157.782 94.8179 156.304 94.6793C155.386 94.5927 154.504 95.0756 154.09 95.9027C149.9 104.282 142.712 111.183 133.306 114.808C117.777 120.793 100.786 116.094 90.3514 104.308C87.9814 101.632 85.9544 98.5855 84.3543 95.2185C83.9144 94.2917 83.496 93.3498 83.1251 92.3754C82.752 91.4011 82.435 90.4202 82.1439 89.435C90.3514 85.5937 99.8225 81.5251 110.56 77.3872C121.087 73.3294 130.669 70.0382 139.199 67.4051C144.97 65.6253 150.26 64.1442 155.036 62.9338C155.382 62.8472 155.722 62.7606 156.061 62.6761C156.783 62.4964 157.525 62.884 157.792 63.5812L157.797 63.5942C157.954 64.0078 158.09 64.4235 158.237 64.8393C159.181 67.5221 159.889 70.233 160.356 72.9505C160.561 74.1392 161.855 74.7867 162.916 74.215C166.837 72.1017 170.423 70.0403 173.627 68.0569C185.568 60.6732 192.188 54.4112 190.829 50.8622C189.473 47.3111 180.381 47.1076 166.586 49.641C162.202 50.4465 157.342 51.5291 152.104 52.8695C151.198 53.1011 150.281 53.3415 149.354 53.5883C144.946 54.7619 140.297 56.1066 135.456 57.6115C126.453 60.4112 116.794 63.7653 106.822 67.6087C97.4936 71.2053 88.6521 74.9339 80.5438 78.6496C80.4446 62.8797 89.9395 47.9715 105.468 41.9866C114.872 38.3619 124.814 38.6586 133.513 42.0732C134.371 42.411 135.348 42.1772 135.976 41.4951C136.98 40.4016 136.672 38.6607 135.367 37.9505C123.214 31.3528 108.373 29.9194 94.4616 35.2807Z" fill="#ED4E33"/>
<path d="M253.752 101.476H226.387V84.779H252.279C253.107 84.779 253.66 84.2194 253.66 83.3798V74.8914C253.66 74.0519 253.107 73.4922 252.279 73.4922H226.387V58.754H253.66C254.488 58.754 255.041 58.1943 255.041 57.3548V48.8663C255.041 48.0268 254.488 47.4671 253.66 47.4671H215.155C214.327 47.4671 213.774 48.0268 213.774 48.8663V111.364C213.774 112.203 214.327 112.763 215.155 112.763H253.752C254.581 112.763 255.133 112.203 255.133 111.364V102.875C255.133 102.036 254.581 101.476 253.752 101.476Z" fill="#ED4E33"/>
<path d="M294.242 68.1752L283.287 98.3979L272.239 68.1752C271.963 67.429 271.318 67.0559 270.582 67.0559H261.099C260.086 67.0559 259.626 67.6155 259.994 68.6416L276.934 111.644C277.21 112.39 277.855 112.763 278.591 112.763H287.982C288.719 112.763 289.363 112.39 289.639 111.644L306.487 68.6416C306.855 67.6155 306.395 67.0559 305.382 67.0559H295.9C295.163 67.0559 294.519 67.429 294.242 68.1752Z" fill="#ED4E33"/>
<path d="M368.982 66.0298C361.616 66.0298 356.277 69.5744 353.054 74.5183C350.2 69.0147 345.137 66.0298 339.152 66.0298C332.616 66.0298 327.828 69.6677 324.882 74.5183V74.425L324.514 68.4551C324.422 67.6155 323.962 67.0559 323.133 67.0559H314.111C313.282 67.0559 312.73 67.6155 312.73 68.4551V111.364C312.73 112.203 313.282 112.763 314.111 112.763H323.501C324.33 112.763 324.882 112.203 324.882 111.364V86.3648C324.882 84.2194 328.013 77.4099 334.825 77.4099C339.244 77.4099 343.295 80.0218 343.295 87.5774V111.364C343.295 112.203 343.848 112.763 344.676 112.763H354.067C354.896 112.763 355.448 112.203 355.448 111.364V86.1782C355.448 82.9134 358.578 77.4099 365.391 77.4099C369.718 77.4099 373.769 80.0218 373.769 87.5774V111.364C373.769 112.203 374.321 112.763 375.15 112.763H384.541C385.369 112.763 385.922 112.203 385.922 111.364V85.3387C385.922 73.1191 378.833 66.0298 368.982 66.0298Z" fill="#ED4E33"/>
<path d="M414.648 113.976C427.629 113.976 438.033 103.435 438.033 90.0027C438.033 76.5704 427.629 66.0298 414.648 66.0298C401.667 66.0298 391.264 76.5704 391.264 90.0027C391.264 103.435 401.667 113.976 414.648 113.976ZM414.648 102.595C408.112 102.595 402.956 97.3718 402.956 90.0027C402.956 82.6336 408.112 77.4099 414.648 77.4099C421.093 77.4099 426.34 82.6336 426.34 90.0027C426.34 97.3718 421.093 102.595 414.648 102.595Z" fill="#ED4E33"/>
<path d="M455.03 79.8352C455.03 77.5032 457.147 75.9175 460.001 75.9175C463.224 75.9175 465.341 77.1301 468.84 79.4621C469.668 80.115 470.313 80.3016 470.865 79.5554L474.363 74.8914C474.824 74.3317 475.008 73.5855 474.456 72.9325C470.681 68.4551 464.789 66.0298 458.989 66.0298C450.887 66.0298 443.337 71.1602 443.337 79.9285C443.337 95.3197 465.157 92.5213 465.157 99.7971C465.157 102.689 462.303 103.622 459.357 103.622C455.766 103.622 451.807 101.849 448.125 99.424C447.296 98.771 446.652 98.5844 446.099 99.3307L442.509 104.461C442.141 105.021 441.956 105.674 442.509 106.327C445.731 110.151 451.992 113.976 459.725 113.976C468.011 113.976 476.941 108.845 476.941 99.9836C476.941 83.1933 455.03 87.2976 455.03 79.8352Z" fill="#ED4E33"/>
</svg>
