<?xml version="1.0" standalone="no"?>
<!DOCTYPE svg PUBLIC "-//W3C//DTD SVG 20010904//EN"
 "http://www.w3.org/TR/2001/REC-SVG-20010904/DTD/svg10.dtd">
<svg version="1.0" xmlns="http://www.w3.org/2000/svg"
 width="940.000000pt" height="660.000000pt" viewBox="0 0 940.000000 660.000000"
 preserveAspectRatio="xMidYMid meet">

<g transform="translate(0.000000,660.000000) scale(0.100000,-0.100000)"
fill="#000000" stroke="none">
<path d="M4450 5559 c-318 -37 -646 -148 -919 -311 -286 -172 -539 -425 -733
-734 -130 -207 -213 -383 -399 -844 -152 -375 -227 -526 -328 -660 -109 -146
-315 -342 -581 -555 -353 -282 -450 -389 -450 -500 0 -108 70 -163 237 -186
70 -10 138 -10 347 2 329 18 722 18 836 0 227 -35 334 -75 775 -289 176 -85
371 -177 434 -204 260 -111 505 -186 736 -225 151 -25 515 -25 660 0 561 98
1048 381 1405 817 131 160 292 441 355 623 33 94 28 129 -25 165 -27 18 -44
22 -70 18 -43 -7 -71 -38 -128 -143 -130 -239 -394 -508 -643 -654 -411 -239
-907 -310 -1362 -194 -448 115 -846 407 -1087 800 -75 121 -190 381 -190 427
0 5 39 27 88 49 976 451 2170 885 3144 1145 266 71 247 77 305 -96 23 -69 53
-176 67 -239 42 -191 59 -195 295 -62 475 268 774 473 966 666 163 162 208
265 156 351 -52 85 -258 124 -551 104 -808 -54 -2235 -459 -3690 -1045 -243
-98 -605 -252 -774 -329 -43 -20 -81 -36 -84 -36 -3 0 -2 46 2 103 39 584 320
1077 796 1402 104 71 312 173 438 214 366 121 770 120 1138 -4 58 -19 116 -35
130 -35 13 0 38 13 56 29 28 25 33 36 33 74 0 62 -19 80 -160 148 -219 105
-490 182 -737 208 -113 13 -379 12 -488 0z"/>
</g>
</svg>
