<svg width="157" height="98" viewBox="0 0 157 98" fill="none" xmlns="http://www.w3.org/2000/svg">
    <path d="M60.7336 3.25991C33.7498 13.7188 31.278 40.504 23.5406 53.0134C15.7116 65.6712 -2.22427 72.6553 0.228416 79.1058C2.6811 85.5563 20.6383 78.6281 34.8451 82.7441C48.8836 86.8106 68.471 105.048 95.4547 94.5886C109.201 89.2613 119.155 78.2946 123.732 65.3054C124.224 63.9112 123.304 62.4202 121.844 62.2825C120.936 62.1964 120.065 62.6762 119.656 63.4981C115.515 71.8248 108.413 78.6819 99.1178 82.2837C83.7731 88.2307 66.9836 83.5617 56.6721 71.8506C54.3302 69.1912 52.3272 66.1639 50.746 62.8182C50.3113 61.8973 49.8979 60.9614 49.5314 59.9932C49.1627 59.0249 48.8495 58.0503 48.5618 57.0713C56.6721 53.2544 66.0311 49.2115 76.6409 45.0998C87.044 41.0677 96.5117 37.7973 104.942 35.181C110.644 33.4124 115.871 31.9407 120.591 30.7379C120.932 30.6519 121.269 30.5658 121.603 30.4819C122.317 30.3033 123.05 30.6884 123.314 31.3812L123.319 31.3942C123.474 31.8051 123.608 32.2182 123.753 32.6313C124.687 35.2972 125.386 37.9909 125.848 40.6912C126.05 41.8724 127.329 42.5158 128.377 41.9477C132.251 39.8478 135.795 37.7995 138.962 35.8286C150.761 28.4917 157.302 22.2692 155.96 18.7428C154.62 15.2142 145.636 15.0119 132.004 17.5293C127.672 18.3297 122.869 19.4055 117.693 20.7373C116.798 20.9675 115.892 21.2064 114.976 21.4516C110.62 22.6178 106.026 23.9539 101.242 25.4493C92.3457 28.2313 82.8014 31.5641 72.948 35.3832C63.7297 38.957 54.9929 42.6621 46.9807 46.3542C46.8827 30.6841 56.2651 15.8704 71.6098 9.92339C80.9027 6.32163 90.7262 6.6164 99.3223 10.0095C100.17 10.3451 101.136 10.1127 101.756 9.43499C102.749 8.34843 102.444 6.61855 101.155 5.91283C89.1451 -0.643082 74.4802 -2.06744 60.7336 3.25991Z" fill="#ED4E33"/>
</svg>
