<svg width="934" height="934" viewBox="0 0 934 934" fill="none" xmlns="http://www.w3.org/2000/svg">
<g clip-path="url(#clip0_3_2)">
<path d="M773.786 0H159.544C97.2152 62.3249 62.3284 97.2096 0 159.534V773.742C62.3284 836.066 97.2152 870.952 159.544 933.276H405.613V679.351H326.638C298.24 650.953 282.339 635.053 253.887 606.604V326.672C282.286 298.275 298.186 282.377 326.638 253.926H606.638C635.037 282.323 650.937 298.224 679.389 326.672V606.655C650.991 635.053 635.09 650.953 606.638 679.404H533.249V933.33H773.786C836.115 871.006 871.002 836.12 933.33 773.796V159.534C871.002 97.2096 836.115 62.3249 773.786 0Z" fill="black"/>
</g>
<defs>
<clipPath id="clip0_3_2">
<rect width="933.33" height="933.33" fill="white"/>
</clipPath>
</defs>
</svg>
