<?xml version="1.0" encoding="utf-8"?>
<!-- Generator: Adobe Illustrator 21.1.0, SVG Export Plug-In . SVG Version: 6.00 Build 0)  -->
<svg version="1.1" id="Ebene_4" xmlns="http://www.w3.org/2000/svg" xmlns:xlink="http://www.w3.org/1999/xlink" x="0px" y="0px"
	 viewBox="0 0 1077 881" style="enable-background:new 0 0 1077 881;" xml:space="preserve">
<style type="text/css">
	.st0{fill:none;stroke:#000000;stroke-width:8;stroke-miterlimit:10;}
	.st1{stroke:#000000;stroke-width:2;stroke-miterlimit:10;}
	.st2{fill:none;stroke:#000000;stroke-width:5;stroke-miterlimit:10;}
</style>
<polygon id="outline" class="st0" points="343,282 323,340 333,400 326,405 339,415 329,421 341,432 333,438 350,457 321,543 
	344,627 432,598 484,624 543,625 590,597 675,625 698,541 671,457 687,438 677,432 689,422 681,415 693,406 685,401 696,339 
	678,286 561,332 460,332 "/>
<polygon class="st1" points="483,389 427,437 350,457 333,438 341,432 329,421 339,415 326,405 333,400 323,340 343,282 "/>
<polygon class="st1" points="539,389 678,286 696,337 685,401 693,406 681,415 689,422 677,432 687,438 671,457 593,436 "/>
<polygon class="st1" points="483,512 439,501 468,487 "/>
<polygon class="st1" points="544,512 583,501 555,487 "/>
<polygon class="st1" points="494,556 535,556 543,561 547,594 544,591 487,591 483,595 486,561 "/>
<path class="st2" d="M696.5,541.5l-111-5l-38,23c-5,3-10,6-10,6"/>
<path class="st2" d="M488.5,565.5c0,0-5-3-10-6l-38-23l-111,5l-9,1"/>
</svg>
