<svg width="52" height="57" viewBox="0 0 52 57" fill="none" xmlns="http://www.w3.org/2000/svg">
<circle cx="25" cy="40" r="17" fill="#F6F7F8"/>
<path fill-rule="evenodd" clip-rule="evenodd" d="M27.9189 22.2478C30.0621 20.1683 32.969 19 36 19C39.031 19 41.9379 20.1683 44.0811 22.2478C46.2244 24.3273 47.4284 27.1478 47.4284 30.0887C47.4284 34.9366 48.496 37.8906 49.435 39.5609C49.9077 40.4017 50.3605 40.9402 50.6592 41.2461C50.8091 41.3997 50.9218 41.4963 50.981 41.5441C51.0016 41.5608 51.0157 41.5715 51.0227 41.5767C51.8321 42.1249 52.1889 43.1177 51.9017 44.0377C51.6099 44.9731 50.7214 45.6128 49.7141 45.6128H22.2859C21.2786 45.6128 20.3901 44.9731 20.0983 44.0377C19.8111 43.1177 20.1679 42.1249 20.9773 41.5767C20.9843 41.5715 20.9984 41.5608 21.019 41.5441C21.0782 41.4963 21.1909 41.3997 21.3408 41.2461C21.6395 40.9402 22.0923 40.4017 22.565 39.5609C23.504 37.8906 24.5716 34.9366 24.5716 30.0887C24.5716 27.1478 25.7756 24.3273 27.9189 22.2478ZM45.1489 41.1773C43.915 38.7773 42.8571 35.2156 42.8571 30.0887C42.8571 28.3241 42.1346 26.6319 40.8487 25.3841C39.5627 24.1364 37.8186 23.4355 36 23.4355C34.1814 23.4355 32.4373 24.1364 31.1513 25.3841C29.8654 26.6319 29.1429 28.3241 29.1429 30.0887C29.1429 35.2156 28.085 38.7773 26.8511 41.1773H45.1489ZM32.2169 47.3907C33.3089 46.7761 34.7075 47.1368 35.341 48.1962C35.4079 48.3082 35.5041 48.4012 35.6197 48.4659C35.7354 48.5305 35.8665 48.5645 36 48.5645C36.1335 48.5645 36.2646 48.5305 36.3803 48.4659C36.4959 48.4012 36.5921 48.3082 36.659 48.1962C37.2925 47.1368 38.6911 46.7761 39.7831 47.3907C40.875 48.0053 41.2467 49.3623 40.6133 50.4218C40.1445 51.206 39.4715 51.8569 38.6619 52.3094C37.8523 52.7618 36.9343 53 36 53C35.0657 53 34.1477 52.7618 33.3381 52.3094C32.5285 51.8569 31.8555 51.206 31.3867 50.4218C30.7533 49.3623 31.125 48.0053 32.2169 47.3907Z" fill="#EEEFF0"/>
<path d="M0.49 26H6.174V24.488H2.94L2.926 24.46L6.258 20.4V19.154H0.742V20.666H3.766L3.78 20.708L0.49 24.74V26Z" fill="#EEEFF0"/>
<path d="M10.49 22H16.174V20.488H12.94L12.926 20.46L16.258 16.4V15.154H10.742V16.666H13.766L13.78 16.708L10.49 20.74V22Z" fill="#EEEFF0"/>
<path d="M2.49 15H8.174V13.488H4.94L4.926 13.46L8.258 9.4V8.154H2.742V9.666H5.766L5.78 9.708L2.49 13.74V15Z" fill="#EEEFF0"/>
</svg>
