<svg width="32" height="32" viewBox="0 0 32 32" fill="none" xmlns="http://www.w3.org/2000/svg">
<circle cx="16" cy="16" r="16" fill="#758FFF"/>
<circle cx="16.0027" cy="15.8846" r="14.4837" fill="url(#paint0_linear_958_15696)"/>
<circle cx="16.0027" cy="15.8846" r="14.4837" fill="url(#paint1_linear_958_15696)"/>
<path opacity="0.45" d="M2.07703 15.8846C2.07703 7.88584 8.31103 1.40088 16.0027 1.40088C8.004 1.40088 1.51904 7.88584 1.51904 15.8846C1.51904 23.8833 8.004 30.3683 16.0027 30.3683C8.31103 30.3683 2.07703 23.8833 2.07703 15.8846Z" fill="#3300CC"/>
<path opacity="0.45" d="M16.0029 1.40381C23.6946 1.40381 29.9286 7.88877 29.9286 15.8875C29.9286 23.8863 23.6946 30.3712 16.0029 30.3712C24.0016 30.3712 30.4866 23.8863 30.4866 15.8875C30.4839 7.88877 24.0016 1.40381 16.0029 1.40381Z" fill="#3300CC"/>
<g opacity="0.38">
<path fill-rule="evenodd" clip-rule="evenodd" d="M19.5056 13.2977H18.6085C18.3228 13.2977 18.0372 13.2977 17.7542 13.3004C17.6554 13.3004 17.5539 13.2951 17.4578 13.2684C17.1908 13.1963 16.9879 13.0414 16.8518 12.8012C16.8224 12.7504 16.7984 12.697 16.777 12.641L16.1843 11.1592C16.0989 10.943 16.0135 10.7267 15.9253 10.5105C15.92 10.4971 15.9147 10.4838 15.9067 10.4704C15.9013 10.4651 15.8933 10.4597 15.888 10.4571C15.8853 10.4544 15.88 10.4597 15.88 10.4624C15.8693 10.4838 15.8586 10.5078 15.8479 10.5318L15.8478 10.5321C15.5382 11.3036 15.2285 12.075 14.9215 12.8465C14.8761 12.9587 14.82 13.0575 14.7266 13.1375C14.6278 13.2203 14.5157 13.2737 14.3875 13.2871C14.3395 13.2924 14.2914 13.2951 14.2434 13.2951H12.225C12.1983 13.2951 12.1743 13.2951 12.1476 13.2924C12.1369 13.2924 12.1289 13.2764 12.1316 13.2684C12.1476 13.2257 12.1636 13.1829 12.1796 13.1429C12.3905 12.6169 12.6014 12.0883 12.8124 11.5597C13.1914 10.6121 13.5704 9.66388 13.9494 8.71565C14.3286 7.76699 14.7078 6.81833 15.087 5.87033C15.2138 5.55262 15.3407 5.23558 15.4675 4.91854C15.5943 4.6015 15.7211 4.28447 15.8479 3.96676C15.8529 3.95175 15.86 3.93779 15.8672 3.92356C15.8716 3.91501 15.876 3.90637 15.88 3.89735C15.88 3.89468 15.8933 3.89735 15.896 3.90002C15.9093 3.92404 15.92 3.9454 15.9307 3.96943C16.0388 4.23547 16.1452 4.50313 16.2513 4.76988C16.2815 4.84578 16.3117 4.92161 16.3418 4.99731C16.5007 5.39511 16.6602 5.79292 16.8197 6.19072C16.9793 6.58852 17.1388 6.98632 17.2976 7.38411C17.5579 8.03557 17.8189 8.68703 18.0799 9.33848C18.3409 9.98989 18.6018 10.6413 18.8621 11.2927C18.9863 11.6038 19.1098 11.9141 19.2333 12.2245C19.3567 12.5349 19.4802 12.8452 19.6043 13.1562C19.615 13.1794 19.6233 13.2025 19.6316 13.2257C19.6358 13.2372 19.6399 13.2488 19.6444 13.2604C19.6497 13.2764 19.6391 13.2924 19.6257 13.2951C19.6204 13.2951 19.615 13.2957 19.6097 13.2964C19.6043 13.2971 19.599 13.2977 19.5937 13.2977H19.5056ZM20.4197 15.201C20.421 15.2063 20.4224 15.2117 20.424 15.2173C20.4404 15.2318 20.4481 15.2501 20.4556 15.2679C20.459 15.2762 20.4625 15.2844 20.4667 15.292C20.5948 15.6097 20.7203 15.9248 20.8458 16.2398C21.038 16.7257 21.2329 17.2143 21.4278 17.7002C21.5719 18.0604 21.716 18.42 21.8601 18.7796C22.0044 19.1396 22.1486 19.4995 22.2928 19.8601C22.4891 20.3501 22.6854 20.8408 22.8817 21.3315C23.0779 21.822 23.2741 22.3124 23.4702 22.8022C23.5798 23.076 23.6899 23.3505 23.8001 23.6249C23.9102 23.8991 24.0203 24.1733 24.1297 24.4468C24.1644 24.5322 24.1991 24.6203 24.2311 24.7058C24.2311 24.7058 24.2311 24.7138 24.2285 24.7138C24.2276 24.7142 24.2267 24.7147 24.2257 24.7152C24.2207 24.7179 24.2143 24.7213 24.2098 24.7191C24.1964 24.7164 24.1831 24.7084 24.1697 24.7004C24.0856 24.651 24.0015 24.601 23.9174 24.5509C23.8333 24.5008 23.7492 24.4508 23.6651 24.4014C23.5706 24.3456 23.4759 24.2896 23.3809 24.2335C23.1488 24.0963 22.9157 23.9585 22.6826 23.822L21.9378 23.3815C21.5239 23.1359 21.1101 22.8903 20.6963 22.6473C20.3892 22.4657 20.082 22.2848 19.7749 22.1038C19.468 21.923 19.1611 21.7422 18.8541 21.5607C18.6112 21.4165 18.3676 21.273 18.1239 21.1295C17.8803 20.986 17.6367 20.8425 17.3938 20.6984C16.9426 20.4314 16.4914 20.1644 16.0375 19.9001C15.9504 19.8492 15.9225 19.8238 15.8947 19.824C15.8671 19.8242 15.8397 19.8495 15.7545 19.9001L14.2087 20.8132L12.9192 21.5741C12.6817 21.7142 12.4449 21.8542 12.208 21.9943C11.971 22.1346 11.7339 22.2748 11.4961 22.4151C11.3026 22.5299 11.1084 22.644 10.9141 22.7581C10.7199 22.8723 10.5257 22.9864 10.3321 23.1012C10.0892 23.2454 9.84354 23.3895 9.59792 23.5337C9.24283 23.742 8.89042 23.9502 8.538 24.1584C8.2283 24.3427 7.92128 24.5242 7.61158 24.7058C7.60571 24.7087 7.59822 24.7108 7.59045 24.713C7.58409 24.7148 7.57754 24.7167 7.57153 24.7191C7.57153 24.7191 7.56619 24.7138 7.56619 24.7111C7.56701 24.7062 7.56757 24.7016 7.56812 24.6971C7.56936 24.6869 7.57049 24.6777 7.5742 24.6684L7.73439 24.2679C7.87989 23.9048 8.02539 23.5411 8.17089 23.1773C8.3164 22.8136 8.46191 22.4498 8.60742 22.0867C8.77827 21.6582 8.94979 21.2297 9.12131 20.8013C9.29286 20.3727 9.46441 19.9442 9.63529 19.5156C9.72474 19.2927 9.81351 19.0698 9.90229 18.8468C9.99106 18.6239 10.0798 18.401 10.1693 18.1781C10.232 18.0206 10.2954 17.863 10.3588 17.7055C10.4222 17.548 10.4856 17.3905 10.5484 17.233C10.6618 16.9499 10.7746 16.6669 10.8874 16.3839C11.0002 16.1009 11.113 15.8179 11.2265 15.535C11.2946 15.3668 11.3613 15.1986 11.4281 15.0304C11.4948 14.8622 11.5616 14.694 11.6296 14.5258C11.6577 14.455 11.6677 14.4209 11.6871 14.4143C11.7064 14.4077 11.7351 14.4284 11.8005 14.467C12.0274 14.6045 12.255 14.7427 12.4826 14.8809C12.7102 15.019 12.9378 15.1572 13.1648 15.2947C13.2235 15.3294 13.2796 15.3641 13.3356 15.3988C13.4905 15.4976 13.5839 15.6364 13.624 15.8153C13.6507 15.9354 13.64 16.0529 13.5973 16.165C13.5745 16.2273 13.55 16.2879 13.5253 16.3494C13.5181 16.367 13.511 16.3848 13.5038 16.4026L13.5037 16.4029C13.3997 16.6671 13.2956 16.9314 13.1888 17.1956C13.074 17.4812 12.9593 17.7675 12.8445 18.0537C12.7297 18.3401 12.6148 18.6265 12.5 18.9123C12.492 18.931 12.4866 18.947 12.484 18.9657C12.4821 18.9695 12.4856 18.9747 12.4888 18.9793C12.49 18.9811 12.4912 18.9828 12.492 18.9844H12.5027C12.512 18.979 12.522 18.9743 12.532 18.9697C12.542 18.965 12.5521 18.9603 12.5614 18.955L12.562 18.9546C12.8848 18.7625 13.2077 18.5704 13.5332 18.3783C13.7643 18.2407 13.9963 18.104 14.2288 17.9672C14.375 17.881 14.5215 17.7948 14.6679 17.7082C15.055 17.4813 15.4448 17.2516 15.8319 17.022C15.8426 17.014 15.8559 17.006 15.8693 17.0007C15.88 16.998 15.8933 16.998 15.9013 17.0007C15.9168 17.0065 15.9308 17.0151 15.9445 17.0234C15.9497 17.0266 15.9549 17.0298 15.9601 17.0327C16.3262 17.2508 16.6938 17.4676 17.0607 17.6839C17.1967 17.7641 17.3327 17.8443 17.4685 17.9244C17.7115 18.0686 17.9551 18.2121 18.1987 18.3556C18.4423 18.4991 18.6859 18.6426 18.9289 18.7868L18.9289 18.7868C19.017 18.8402 19.1051 18.8936 19.1959 18.9443C19.2092 18.951 19.2226 18.957 19.2359 18.963C19.2493 18.969 19.2626 18.975 19.276 18.9817C19.284 18.9763 19.2893 18.971 19.2947 18.9657C19.2893 18.939 19.284 18.9149 19.2733 18.8909C19.2186 18.7535 19.1639 18.6167 19.1092 18.4799C19.0544 18.3431 18.9997 18.2062 18.9449 18.0686C18.8541 17.843 18.764 17.6167 18.6739 17.3904C18.5838 17.1642 18.4937 16.9379 18.4029 16.7123C18.3389 16.5468 18.2721 16.3813 18.2054 16.2184C18.1707 16.141 18.152 16.0582 18.1466 15.9728C18.1413 15.9061 18.152 15.8393 18.1707 15.7752C18.2134 15.6204 18.3042 15.4976 18.4403 15.4095C18.5364 15.3481 18.6352 15.2893 18.734 15.2306C18.7386 15.2278 18.7431 15.2247 18.7477 15.2215C18.7647 15.21 18.7824 15.198 18.8034 15.1959C18.8274 15.1772 18.8515 15.1612 18.8755 15.1452L18.8755 15.1452C19.2519 14.9156 19.6311 14.686 20.0102 14.4564C20.1009 14.4003 20.1036 14.4003 20.141 14.4964C20.2117 14.669 20.2808 14.8433 20.3495 15.0166C20.369 15.0658 20.3885 15.1149 20.408 15.1639C20.4136 15.177 20.4166 15.1887 20.4197 15.201Z" fill="#2E3192"/>
<path d="M18.8248 17.5027C18.8355 17.508 18.8382 17.5187 18.8382 17.5294C18.8355 17.5401 18.8302 17.5401 18.8222 17.5347C18.8168 17.5294 18.8115 17.524 18.8088 17.5214C18.8141 17.5134 18.8195 17.508 18.8248 17.5027Z" fill="#2E3192"/>
</g>
<path fill-rule="evenodd" clip-rule="evenodd" d="M19.7192 13.5033H18.8221C18.681 13.5033 18.5391 13.504 18.397 13.5046C18.2541 13.5053 18.111 13.506 17.9678 13.506C17.869 13.506 17.7676 13.5006 17.6715 13.4739C17.4045 13.4018 17.2016 13.247 17.0654 13.0067C17.036 12.956 17.012 12.9026 16.9907 12.8465L16.398 11.3648C16.3125 11.1485 16.2271 10.9323 16.139 10.716C16.1336 10.7027 16.1283 10.6893 16.1203 10.676C16.115 10.6706 16.107 10.6653 16.1016 10.6626C16.0989 10.66 16.0936 10.6653 16.0936 10.668C16.0829 10.6893 16.0722 10.7134 16.0616 10.7374L16.0615 10.7376C15.7518 11.5091 15.4421 12.2806 15.1351 13.0521C15.0898 13.1642 15.0337 13.263 14.9402 13.3431C14.8415 13.4259 14.7293 13.4793 14.6012 13.4926C14.5531 13.498 14.5051 13.5006 14.457 13.5006H12.4386C12.4119 13.5006 12.3879 13.5006 12.3612 13.498C12.3505 13.498 12.3425 13.4819 12.3452 13.4739C12.3612 13.4312 12.3772 13.3885 12.3932 13.3485C12.6042 12.8225 12.8151 12.2939 13.026 11.7653C13.405 10.8177 13.784 9.86945 14.1631 8.92121C14.5423 7.97255 14.9215 7.02389 15.3007 6.0759C15.4275 5.75819 15.5543 5.44115 15.6811 5.1241C15.8079 4.80707 15.9347 4.49003 16.0616 4.17233C16.0666 4.15732 16.0737 4.14336 16.0809 4.12913C16.0852 4.12058 16.0896 4.11193 16.0936 4.10291C16.0936 4.10024 16.107 4.10291 16.1096 4.10558C16.123 4.12961 16.1336 4.15097 16.1443 4.175C16.2524 4.44104 16.3589 4.70869 16.465 4.97545C16.4952 5.05135 16.5253 5.12718 16.5555 5.20287C16.7143 5.60068 16.8739 5.99848 17.0334 6.39629C17.1929 6.79409 17.3524 7.19188 17.5113 7.58968C17.7716 8.24114 18.0326 8.89259 18.2936 9.54405C18.5545 10.1955 18.8155 10.8469 19.0758 11.4983C19.1999 11.8093 19.3234 12.1197 19.4469 12.4301C19.5704 12.7404 19.6938 13.0508 19.818 13.3618C19.8287 13.3849 19.837 13.4081 19.8453 13.4312C19.8494 13.4428 19.8536 13.4544 19.858 13.4659C19.8634 13.4819 19.8527 13.498 19.8393 13.5006C19.834 13.5006 19.8287 13.5013 19.8233 13.502C19.818 13.5026 19.8126 13.5033 19.8073 13.5033H19.7192ZM20.636 15.4069C20.6373 15.4121 20.6386 15.4175 20.6402 15.4231C20.6531 15.4359 20.6601 15.4516 20.6672 15.4673C20.6719 15.4778 20.6766 15.4882 20.683 15.4979C20.8111 15.8156 20.9366 16.1306 21.0621 16.4456C21.2543 16.9315 21.4492 17.4201 21.6441 17.906C21.7882 18.2663 21.9323 18.6259 22.0764 18.9855C22.2206 19.3454 22.3649 19.7053 22.5091 20.0659C22.7055 20.5562 22.9019 21.0472 23.0983 21.5381C23.2943 22.0283 23.4904 22.5185 23.6865 23.008C23.796 23.2817 23.9061 23.556 24.0162 23.8304C24.1264 24.1047 24.2365 24.379 24.3459 24.6526C24.3806 24.7381 24.4154 24.8262 24.4474 24.9116C24.4474 24.9116 24.4474 24.9196 24.4447 24.9196C24.4439 24.92 24.443 24.9205 24.442 24.921C24.4369 24.9238 24.4305 24.9272 24.426 24.9249C24.4127 24.9223 24.3993 24.9143 24.386 24.9063C24.3019 24.8569 24.2178 24.8068 24.1337 24.7567C24.0496 24.7067 23.9655 24.6566 23.8814 24.6072C23.7869 24.5515 23.6922 24.4955 23.5973 24.4394C23.3652 24.3022 23.132 24.1644 22.8989 24.0279L22.154 23.5874C21.7402 23.3417 21.3264 23.0961 20.9126 22.8532C20.6055 22.6716 20.2985 22.4907 19.9915 22.3099C19.6845 22.129 19.3774 21.9481 19.0704 21.7666C18.8274 21.6224 18.5837 21.4788 18.34 21.3353C18.0965 21.1918 17.8529 21.0483 17.61 20.9042C17.1588 20.6372 16.7076 20.3703 16.2538 20.1059C16.1667 20.0551 16.1388 20.0297 16.111 20.0299C16.0834 20.03 16.0559 20.0554 15.9708 20.1059L14.4249 21.019L13.1354 21.7799C12.8977 21.9202 12.6606 22.0604 12.4235 22.2007C12.1867 22.3408 11.9499 22.4808 11.7124 22.6209C11.5189 22.7357 11.3247 22.8498 11.1305 22.9639C10.9363 23.0781 10.742 23.1922 10.5484 23.307C10.3054 23.4512 10.0598 23.5954 9.81418 23.7395C9.45953 23.9475 9.10755 24.1555 8.75556 24.3635L8.75427 24.3643C8.44457 24.5485 8.13754 24.73 7.82784 24.9116C7.82197 24.9145 7.81448 24.9167 7.80671 24.9189C7.80035 24.9207 7.7938 24.9225 7.7878 24.9249C7.7878 24.9249 7.78246 24.9196 7.78246 24.9169C7.78327 24.912 7.78384 24.9074 7.78438 24.9029C7.78562 24.8928 7.78675 24.8835 7.79046 24.8742L7.95065 24.4737C8.09615 24.1107 8.24165 23.7469 8.38715 23.3832C8.53266 23.0194 8.67817 22.6556 8.82368 22.2925C8.99454 21.864 9.16608 21.4355 9.33761 21.007C9.50915 20.5785 9.68068 20.15 9.85156 19.7215C9.941 19.4985 10.0298 19.2756 10.1186 19.0527C10.2073 18.8297 10.2961 18.6068 10.3855 18.3839C10.4483 18.2264 10.5117 18.0689 10.5751 17.9114C10.6385 17.7538 10.7019 17.5963 10.7646 17.4388C10.8781 17.1558 10.9909 16.8728 11.1037 16.5898C11.2165 16.3068 11.3293 16.0238 11.4428 15.7408C11.5108 15.5726 11.5776 15.4044 11.6443 15.2362C11.7111 15.068 11.7778 14.8998 11.8459 14.7316C11.874 14.6608 11.884 14.6268 11.9033 14.6201C11.9227 14.6135 11.9514 14.6342 12.0168 14.6729C12.2437 14.8104 12.4713 14.9485 12.6989 15.0867C12.9265 15.2249 13.1541 15.363 13.381 15.5005C13.4398 15.5352 13.4958 15.5699 13.5519 15.6046C13.7068 15.7034 13.8002 15.8423 13.8402 16.0211C13.8669 16.1413 13.8563 16.2587 13.8135 16.3709C13.7907 16.4331 13.7663 16.4937 13.7415 16.5552C13.7344 16.5729 13.7273 16.5906 13.7201 16.6085L13.72 16.6087C13.6159 16.873 13.5118 17.1372 13.4051 17.4014C13.2903 17.687 13.1755 17.9733 13.0607 18.2596C12.9459 18.546 12.8311 18.8324 12.7163 19.1181C12.7082 19.1368 12.7029 19.1528 12.7002 19.1715C12.6983 19.1753 12.7019 19.1805 12.7051 19.1851C12.7063 19.1869 12.7075 19.1887 12.7082 19.1902H12.7189C12.7283 19.1849 12.7383 19.1802 12.7483 19.1755C12.7583 19.1708 12.7683 19.1662 12.7777 19.1608L12.7782 19.1605C13.1011 18.9684 13.424 18.7763 13.7495 18.5841C13.9805 18.4465 14.2126 18.3099 14.445 18.173C14.5913 18.0869 14.7377 18.0006 14.8841 17.914C15.2713 17.6871 15.6611 17.4575 16.0482 17.2279C16.0589 17.2199 16.0722 17.2119 16.0856 17.2065C16.0962 17.2039 16.1096 17.2039 16.1176 17.2065C16.133 17.2123 16.1471 17.2209 16.1607 17.2293C16.166 17.2324 16.1712 17.2356 16.1763 17.2386C16.5425 17.4567 16.91 17.6734 17.2769 17.8897C17.413 17.9699 17.549 18.0501 17.6848 18.1303C17.9277 18.2745 18.1713 18.418 18.415 18.5615C18.6586 18.705 18.9022 18.8485 19.1452 18.9926L19.1452 18.9927C19.2333 19.046 19.3214 19.0994 19.4121 19.1501C19.4255 19.1568 19.4388 19.1628 19.4522 19.1688C19.4655 19.1748 19.4789 19.1809 19.4922 19.1875C19.5002 19.1822 19.5056 19.1768 19.5109 19.1715C19.5056 19.1448 19.5002 19.1208 19.4896 19.0968C19.4349 18.9593 19.3801 18.8226 19.3254 18.6858C19.2707 18.5489 19.2159 18.412 19.1612 18.2745C19.0704 18.0488 18.9803 17.8225 18.8902 17.5962C18.8001 17.37 18.71 17.1438 18.6192 16.9182C18.5551 16.7527 18.4884 16.5871 18.4216 16.4243C18.3869 16.3469 18.3682 16.2641 18.3629 16.1787C18.3576 16.1119 18.3682 16.0452 18.3869 15.9811C18.4296 15.8262 18.5204 15.7034 18.6566 15.6153C18.7527 15.5539 18.8515 15.4952 18.9503 15.4364C18.9548 15.4336 18.9594 15.4305 18.964 15.4274C18.981 15.4158 18.9987 15.4038 19.0197 15.4017C19.0437 15.3831 19.0677 15.367 19.0917 15.351L19.0918 15.351C19.4682 15.1214 19.8473 14.8918 20.2264 14.6622C20.3172 14.6061 20.3199 14.6061 20.3572 14.7022C20.428 14.8749 20.497 15.0491 20.5658 15.2224C20.5853 15.2716 20.6048 15.3207 20.6242 15.3697C20.6298 15.3828 20.6328 15.3946 20.636 15.4069Z" fill="white"/>
<path d="M19.0411 17.7082C19.0518 17.7136 19.0544 17.7243 19.0544 17.7349C19.0518 17.7456 19.0464 17.7456 19.0384 17.7403C19.0331 17.7349 19.0277 17.7296 19.0251 17.7269C19.0277 17.7189 19.0331 17.7136 19.0411 17.7082Z" fill="white"/>
<defs>
<linearGradient id="paint0_linear_958_15696" x1="1.51904" y1="30.3683" x2="30.4864" y2="30.3683" gradientUnits="userSpaceOnUse">
<stop stop-color="#7B61FF"/>
<stop offset="0.337" stop-color="#6549FF"/>
<stop offset="0.7445" stop-color="#5132FF"/>
<stop offset="1" stop-color="#4929FF"/>
</linearGradient>
<linearGradient id="paint1_linear_958_15696" x1="13.0151" y1="-1.47279" x2="-0.610221" y2="18.7275" gradientUnits="userSpaceOnUse">
<stop stop-color="#5132FF"/>
<stop offset="0.2703" stop-color="#5232FD"/>
<stop offset="0.4139" stop-color="#5831F5"/>
<stop offset="0.5277" stop-color="#6030E7"/>
<stop offset="0.6259" stop-color="#6D2FD4"/>
<stop offset="0.714" stop-color="#7D2DBB"/>
<stop offset="0.795" stop-color="#912B9C"/>
<stop offset="0.8704" stop-color="#A82878"/>
<stop offset="0.9395" stop-color="#C3254F"/>
<stop offset="1" stop-color="#DE2224"/>
</linearGradient>
</defs>
</svg>
