<svg width="384" height="384" viewBox="0 0 384 384" fill="none" xmlns="http://www.w3.org/2000/svg">
<g clip-path="url(#clip0_3_2)">
<path d="M318.359 0H65.641C39.9973 25.6423 25.6438 39.9949 0 65.6373V318.341C25.6438 343.983 39.9973 358.336 65.641 383.978H166.881V279.505H134.389C122.705 267.822 116.163 261.28 104.457 249.575V134.403C116.141 122.719 122.683 116.178 134.389 104.473H249.589C261.273 116.156 267.815 122.698 279.521 134.403V249.596C267.837 261.28 261.295 267.822 249.589 279.527H219.395V384H318.359C344.003 358.358 358.356 344.005 384 318.363V65.6373C358.356 39.9949 344.003 25.6423 318.359 0Z" fill="black"/>
</g>
<defs>
<clipPath id="clip0_3_2">
<rect width="384" height="384" fill="white"/>
</clipPath>
</defs>
</svg>
