<svg xmlns="http://www.w3.org/2000/svg" width="10" height="12" viewBox="0 0 10 12">
    <path fill="#b3b0af" fill-rule="nonzero" d="M.442 2.953l.375 7.51c0 .849.702 1.537 1.57 1.537H7.57c.867 0 1.57-.688 1.57-1.538l.36-7.509H.442zm9.498-.532l.003-.36c0-.825-.489-1.278-1.145-1.278L6.972.785C6.972.35 6.55 0 6.116 0H3.843c-.434 0-.87.351-.87.785L1.144.783C.42.783 0 1.335 0 2.062l.003.359H9.94zM6.542 4.927a.433.433 0 1 1 .867 0v4.965a.433.433 0 1 1-.867 0V4.927zm-2.004 0a.433.433 0 1 1 .867 0v4.965a.433.433 0 1 1-.867 0V4.927zm-2.003 0a.434.434 0 0 1 .867 0v4.965a.433.433 0 1 1-.867 0V4.927z"/>
</svg>
