<svg id="logosandtypes_com" data-name="logosandtypes com" xmlns="http://www.w3.org/2000/svg" viewBox="0 0 150 150"><defs><style>.cls-1{fill:none;}.cls-2{fill:#2bbdf7;}.cls-3{fill:#2891f9;}.cls-4{fill:#2b6def;}</style></defs><g id="Layer_2" data-name="Layer 2"><path id="Layer_3" data-name="Layer 3" class="cls-1" d="M0,.2H150v150H0Z" transform="translate(0 -0.2)"/></g><g id="Group-6"><polygon id="Path" class="cls-2" points="60.52 66.06 75.34 98.37 97.35 85.86 97.39 85.86 97.39 60.83 60.52 66.06"/><polygon id="Path-2" class="cls-3" points="125.82 42.05 112.08 36.97 97.39 35.79 97.39 60.83 97.39 60.83 97.39 113.8 97.39 113.8 119.43 126.32 137.01 91.06 125.86 57.12 125.82 42.05"/><polygon id="Path-3" class="cls-2" points="124.54 35.79 119.43 48.31 119.43 48.31 119.43 126.13 141.47 113.6 141.47 35.79 124.54 35.79"/><polygon id="Path-4" class="cls-4" points="119.43 23.28 97.39 35.79 119.43 48.31 141.47 35.79 119.43 23.28"/><polygon id="Path-5" class="cls-3" points="75.34 73.34 75.34 73.34 53.3 49.02 9.21 35.79 9.21 113.6 9.21 113.6 31.25 126.13 37.56 83.06 53.3 85.86 53.3 85.86 75.34 98.37 75.34 73.34 75.34 73.34"/><polygon id="Path-6" class="cls-4" points="31.25 23.28 9.21 35.79 75.34 73.34 85.33 67.68 97.39 60.83 31.25 23.28"/><polygon id="Path-7" class="cls-2" points="31.25 73.34 31.25 73.34 31.25 126.13 53.3 113.6 53.3 113.6 53.3 85.86 53.3 85.86 31.25 73.34"/></g></svg>
