<?xml version="1.0" encoding="UTF-8"?>
<svg width="100" height="100" xmlns="http://www.w3.org/2000/svg" xmlns:xlink="http://www.w3.org/1999/xlink" viewBox="0 0 1000 1000" preserveAspectRatio="xMidYMid meet">
	<desc>Celo US Dollar Currency Symbol</desc>
	<circle fill="#45CD85" cx="500" cy="500" r="500"/>
  <path d="M479 772c104 0 196-69 226-170h-81c-25 57-82 94-145 94-88 0-159-71-159-159 0-63 37-120 94-145v-81c-101 30-170 122-170 226 0 129 106 235 235 235zm139-297v-57c22 7 30 15 30 27 0 14-11 25-30 30zm-58 98h60v-32c59-10 97-47 97-96 0-68-52-86-99-95v-66c24 4 49 13 71 26v-74c-23-9-46-14-69-16v-31h-60v31c-59 10-96 45-96 93 0 68 51 88 98 97v65c-27-6-58-18-96-40v76c32 17 64 27 94 30v32zm2-232c-21-6-29-14-29-28s10-24 29-28v56z" fill="#35C071"/>
  <path d="M479 762c98 0 181-63 212-150h-61c-27 56-85 94-151 94-93 0-169-76-169-169 0-66 38-124 94-151v-61c-87 31-150 114-150 212 0 124 101 225 225 225zm129-275v-82c28 7 50 16 50 40 0 22-19 38-50 42zm-38 76h40v-31c59-7 97-41 97-87 0-64-51-78-99-87v-85c23 2 48 9 71 20v-50c-22-8-46-13-69-14v-30h-40v30c-61 7-96 41-96 84 0 65 50 80 98 89v85c-29-4-60-16-96-35v53c31 15 63 25 94 27v31zm2-209c-28-6-49-16-49-41 0-23 18-37 49-40v81z" fill="#FFF"/>
</svg>
