<?xml version="1.0" encoding="UTF-8"?>
<svg width="100" height="100" xmlns="http://www.w3.org/2000/svg" xmlns:xlink="http://www.w3.org/1999/xlink" viewBox="0 0 1000 1000" preserveAspectRatio="xMidYMid meet">
	<desc>Celo Brazil Real Currency Symbol</desc>
	<circle fill="#45CD85" cx="500" cy="500" r="500"/>
	<path d="M435 789c104 0 196-69 226-170h-81c-25 57-82 94-145 94-88 0-159-71-159-159 0-63 37-120 94-145v-81c-101 30-170 122-170 226 0 129 106 235 235 235zm-25-222h70V442l8-1 42 126h77l-59-145c27-18 43-52 43-90 0-65-42-101-118-101h-63v336zm70-187v-86c30 0 41 12 41 43 0 30-11 42-41 43zm218 115l6-50c6 5 8 12 8 21 0 14-5 24-14 29zm-62 101h54l4-35c48-7 82-46 82-98 0-42-21-73-61-90l8-68c13 6 27 15 39 26v-76c-9-7-20-12-31-15l5-38h-54l-3 35c-48 8-79 45-79 96 0 42 21 75 58 92l-7 66c-16-6-33-16-50-28v76c16 8 29 14 40 17l-5 40zm33-245c-3-5-5-11-5-20 0-13 4-22 11-27l-6 47z" fill="#35C071"/>
  <path d="M435 779c98 0 181-63 212-150h-61c-27 56-85 94-151 94-93 0-169-76-169-169 0-66 38-124 94-151v-61c-87 31-150 114-150 212 0 124 101 225 225 225zm-15-222h50V432h4c7 0 15-1 21-1l42 126h55l-56-139c26-14 45-46 45-86 0-59-37-91-108-91h-53v316zm50-167V284h8c37 0 53 16 53 53 0 36-16 53-53 53h-8zm216 118l10-81c16 8 26 20 26 39 0 23-12 40-36 42zm-39 78h34l4-34c48-3 81-40 81-89 0-37-18-68-62-84l10-87c12 3 25 9 38 18v-50c-10-6-21-10-32-12l5-36h-34l-3 34c-48 4-78 39-78 87 0 47 28 74 59 86l-10 85c-14-4-30-11-48-22v51c14 7 28 13 41 16l-5 37zm30-216c-16-8-23-21-23-39 0-24 11-39 33-42l-10 81z" fill="#FFF"/>
</svg>
