<svg xmlns="http://www.w3.org/2000/svg" width="470.287" height="514.251" xml:space="preserve"><path fill="#2D374B" d="m291.134 237.469 35.654-60.5 96.103 149.684.046 28.727-.313-197.672a14.893 14.893 0 0 0-6.887-11.859L242.715 46.324c-4.045-1.99-9.18-1.967-13.22.063-.546.272-1.06.57-1.548.895l-.604.379-167.944 97.322-.651.296c-.838.385-1.686.875-2.48 1.444a14.832 14.832 0 0 0-5.983 9.448 14.89 14.89 0 0 0-.214 1.749l.264 161.083 89.515-138.745c11.271-18.397 35.825-24.323 58.62-24.001l26.753.706L67.588 409.765l18.582 10.697L245.692 157.22l70.51-.256-159.111 269.885 66.306 38.138 7.922 4.556c3.351 1.362 7.302 1.431 10.681.21l175.453-101.678-33.544 19.438-92.775-150.044zm13.602 195.926-66.969-105.108 40.881-69.371L366.6 397.544l-61.864 35.851z"/><path fill="#28A0F0" d="m237.768 328.286 66.968 105.109 61.865-35.852-87.953-138.628zM422.937 355.379l-.046-28.727-96.103-149.684-35.654 60.5 92.774 150.043 33.544-19.438a14.87 14.87 0 0 0 5.49-10.825l-.005-1.869z"/><path fill="#FFF" d="m20.219 382.469 47.369 27.296 157.634-252.801-26.753-.706c-22.795-.322-47.35 5.604-58.62 24.001L50.334 319.004l-30.115 46.271v17.194zM316.202 156.964l-70.51.256L86.17 420.462l55.758 32.103 15.163-25.716z"/><path fill="#96BEDC" d="M452.65 156.601c-.59-14.746-8.574-28.245-21.08-36.104L256.28 19.692c-12.371-6.229-27.825-6.237-40.218-.004-1.465.739-170.465 98.752-170.465 98.752a44.953 44.953 0 0 0-6.711 3.975c-11.164 8.001-17.969 20.435-18.668 34.095v208.765l30.115-46.271-.263-161.083c.035-.589.109-1.169.214-1.741a14.834 14.834 0 0 1 5.983-9.456c.795-.569 172.682-100.064 173.228-100.337 4.04-2.029 9.175-2.053 13.22-.063l173.022 99.523a14.893 14.893 0 0 1 6.887 11.859v199.542c-.209 4.231-1.882 8.152-5.172 10.825l-33.544 19.438-17.308 10.031-61.864 35.852-62.737 36.357c-3.379 1.221-7.33 1.152-10.681-.21l-74.228-42.693-15.163 25.717 66.706 38.406c2.206 1.255 4.171 2.367 5.784 3.272 2.497 1.4 4.199 2.337 4.8 2.629 4.741 2.303 11.563 3.643 17.71 3.643a44.596 44.596 0 0 0 16.332-3.072l182.225-105.531c10.459-8.104 16.612-20.325 17.166-33.564V156.601z"/></svg>