<svg width="108" height="96" viewBox="0 0 108 96" fill="none" xmlns="http://www.w3.org/2000/svg">
<path fill-rule="evenodd" clip-rule="evenodd" d="M54 4C79.405 4 100 24.595 100 50C100 75.405 79.405 96 54 96C28.595 96 8 75.405 8 50C8 24.595 28.595 4 54 4Z" fill="#F6F7F8"/>
<path fill-rule="evenodd" clip-rule="evenodd" d="M37.3327 60.8333L37.3327 66.6663H70.6663V60.8333C70.6663 60.6037 70.6663 58.3333 72.7496 58.3333C74.833 58.3333 74.833 60.6037 74.833 60.8333V68.7503C74.8325 68.7503 74.8321 68.7503 74.8317 68.7503C74.8313 69.8959 73.8961 70.833 72.7484 70.833H35.2484C34.1025 70.833 33.165 69.8955 33.165 68.7496C33.165 68.7284 33.1654 68.7073 33.166 68.6862L33.166 60.8333C33.166 60.6037 33.166 58.3333 35.2493 58.3333C37.3327 58.3333 37.3327 60.6037 37.3327 60.8333Z" fill="#B2B5B2"/>
<path fill-rule="evenodd" clip-rule="evenodd" d="M51.9156 36.2792V60.4105C51.9156 61.5626 52.849 62.4938 53.999 62.4938C55.151 62.4938 56.0823 61.5626 56.0823 60.4105V36.2792L64.6698 44.8647C65.4844 45.6793 66.8031 45.6793 67.6156 44.8647C68.4302 44.0501 68.4302 42.7334 67.6156 41.9188L55.8302 30.1334C55.7698 30.073 55.7052 30.0167 55.6406 29.9667C55.2573 29.4772 54.6656 29.1667 53.999 29.1667C53.3344 29.1667 52.7406 29.4772 52.3594 29.9667C52.2948 30.0167 52.2281 30.073 52.1698 30.1334L40.3844 41.9188C39.5698 42.7334 39.5698 44.0501 40.3844 44.8647C41.1969 45.6793 42.5156 45.6793 43.3302 44.8647L51.9156 36.2792Z" fill="#B2B5B2"/>
<circle cx="80" cy="74" r="17" fill="#F6F7F8"/>
<rect x="78.25" y="63.5" width="3.5" height="14" rx="1" fill="#F02525"/>
<path d="M80 80.5625C81.2081 80.5625 82.1875 81.5419 82.1875 82.75C82.1875 83.9581 81.2081 84.9375 80 84.9375C78.7919 84.9375 77.8125 83.9581 77.8125 82.75C77.8125 81.5419 78.7919 80.5625 80 80.5625Z" fill="#F02525"/>
<path fill-rule="evenodd" clip-rule="evenodd" d="M97.5 74C97.5 83.665 89.665 91.5 80 91.5C70.335 91.5 62.5 83.665 62.5 74C62.5 64.335 70.335 56.5 80 56.5C89.665 56.5 97.5 64.335 97.5 74ZM66 74C66 81.732 72.268 88 80 88C87.732 88 94 81.732 94 74C94 66.268 87.732 60 80 60C72.268 60 66 66.268 66 74Z" fill="#F02525"/>
</svg>
