<svg width="108" height="96" viewBox="0 0 108 96" fill="none" xmlns="http://www.w3.org/2000/svg">
<path fill-rule="evenodd" clip-rule="evenodd" d="M54 4C79.405 4 100 24.595 100 50C100 75.405 79.405 96 54 96C28.595 96 8 75.405 8 50C8 24.595 28.595 4 54 4Z" fill="#F6F7F8"/>
<path fill-rule="evenodd" clip-rule="evenodd" d="M37.3329 60.8333L37.3329 66.6663H70.6665V60.8333C70.6665 60.6037 70.6665 58.3333 72.7499 58.3333C74.8332 58.3333 74.8332 60.6037 74.8332 60.8333V68.7503C74.8328 68.7503 74.8324 68.7503 74.8319 68.7503C74.8316 69.8959 73.8963 70.833 72.7486 70.833H35.2486C34.1028 70.833 33.1653 69.8955 33.1653 68.7496C33.1653 68.7284 33.1656 68.7073 33.1662 68.6862L33.1662 60.8333C33.1662 60.6037 33.1662 58.3333 35.2496 58.3333C37.3329 58.3333 37.3329 60.6037 37.3329 60.8333Z" fill="#B2B5B2"/>
<path fill-rule="evenodd" clip-rule="evenodd" d="M51.9161 36.2791V60.4104C51.9161 61.5625 52.8494 62.4937 53.9994 62.4937C55.1515 62.4937 56.0828 61.5625 56.0828 60.4104V36.2791L64.6703 44.8645C65.4849 45.6791 66.8036 45.6791 67.6161 44.8645C68.4307 44.05 68.4307 42.7333 67.6161 41.9187L55.8307 30.1333C55.7703 30.0729 55.7057 30.0166 55.6411 29.9666C55.2578 29.477 54.6661 29.1666 53.9994 29.1666C53.3349 29.1666 52.7411 29.477 52.3599 29.9666C52.2953 30.0166 52.2286 30.0729 52.1703 30.1333L40.3849 41.9187C39.5703 42.7333 39.5703 44.05 40.3849 44.8645C41.1974 45.6791 42.5161 45.6791 43.3307 44.8645L51.9161 36.2791Z" fill="#B2B5B2"/>
<circle cx="80" cy="74" r="17" fill="#F6F7F8"/>
<path fill-rule="evenodd" clip-rule="evenodd" d="M97.5 74C97.5 83.665 89.665 91.5 80 91.5C70.335 91.5 62.5 83.665 62.5 74C62.5 64.335 70.335 56.5 80 56.5C89.665 56.5 97.5 64.335 97.5 74ZM66 74C66 81.732 72.268 88 80 88C87.732 88 94 81.732 94 74C94 66.268 87.732 60 80 60C72.268 60 66 66.268 66 74Z" fill="#008C73"/>
<path d="M72.443 70.9826C71.7373 70.3222 70.6299 70.3588 69.9694 71.0644C69.309 71.77 69.3456 72.8775 70.0512 73.5379L77.2979 80.3209C77.9934 80.9719 79.0818 80.947 79.7468 80.265L89.1041 70.668C89.7788 69.976 89.7648 68.868 89.0728 68.1933C88.3808 67.5186 87.2728 67.5326 86.5981 68.2246L78.4379 76.5939L72.443 70.9826Z" fill="#008C73"/>
</svg>
