<svg width="108" height="96" viewBox="0 0 108 96" fill="none" xmlns="http://www.w3.org/2000/svg">
<path fill-rule="evenodd" clip-rule="evenodd" d="M54 4C79.405 4 100 24.595 100 50C100 75.405 79.405 96 54 96C28.595 96 8 75.405 8 50C8 24.595 28.595 4 54 4Z" fill="#F6F7F8"/>
<path fill-rule="evenodd" clip-rule="evenodd" d="M37.3327 60.8333L37.3327 66.6663H70.6663V60.8333C70.6663 60.6037 70.6663 58.3333 72.7496 58.3333C74.833 58.3333 74.833 60.6037 74.833 60.8333V68.7503C74.8325 68.7503 74.8321 68.7503 74.8317 68.7503C74.8313 69.8959 73.8961 70.833 72.7484 70.833H35.2484C34.1025 70.833 33.165 69.8955 33.165 68.7496C33.165 68.7284 33.1654 68.7073 33.166 68.6862L33.166 60.8333C33.166 60.6037 33.166 58.3333 35.2493 58.3333C37.3327 58.3333 37.3327 60.6037 37.3327 60.8333Z" fill="#B2B5B2"/>
<circle cx="80" cy="74" r="17" fill="#F6F7F8"/>
<path fill-rule="evenodd" clip-rule="evenodd" d="M73.871 80C73.243 80 72.63 79.7078 72.2767 79.1771C71.7366 78.3629 72.0114 77.2989 72.8898 76.7984L78.2621 73.7429V66.7287C78.2621 65.7736 79.0994 65 80.131 65C81.1636 65 82 65.7736 82 66.7287V74.7093C82 75.3091 81.6636 75.8675 81.1104 76.1821L74.8484 79.7442C74.5429 79.917 74.2046 80 73.871 80Z" fill="#5D6D74"/>
<path fill-rule="evenodd" clip-rule="evenodd" d="M97.5 74C97.5 83.665 89.665 91.5 80 91.5C70.335 91.5 62.5 83.665 62.5 74C62.5 64.335 70.335 56.5 80 56.5C89.665 56.5 97.5 64.335 97.5 74ZM66 74C66 81.732 72.268 88 80 88C87.732 88 94 81.732 94 74C94 66.268 87.732 60 80 60C72.268 60 66 66.268 66 74Z" fill="#5D6D74"/>
<path fill-rule="evenodd" clip-rule="evenodd" d="M51.9156 36.2791V60.4104C51.9156 61.5625 52.849 62.4937 53.999 62.4937C55.151 62.4937 56.0823 61.5625 56.0823 60.4104V36.2791L64.6698 44.8645C65.4844 45.6791 66.8031 45.6791 67.6156 44.8645C68.4302 44.05 68.4302 42.7333 67.6156 41.9187L55.8302 30.1333C55.7698 30.0729 55.7052 30.0166 55.6406 29.9666C55.2573 29.477 54.6656 29.1666 53.999 29.1666C53.3344 29.1666 52.7406 29.477 52.3594 29.9666C52.2948 30.0166 52.2281 30.0729 52.1698 30.1333L40.3844 41.9187C39.5698 42.7333 39.5698 44.05 40.3844 44.8645C41.1969 45.6791 42.5156 45.6791 43.3302 44.8645L51.9156 36.2791Z" fill="#B2B5B2"/>
</svg>
