<svg id="Layer_1" data-name="Layer 1" xmlns="http://www.w3.org/2000/svg" viewBox="0 0 960 330"><title>gnosis_safe_teams_2019_logo_all_rgb</title><path d="M161,14.2A146.54,146.54,0,1,0,307.56,160.74,146.54,146.54,0,0,0,161,14.2ZM268.27,168.74h-68a41.41,41.41,0,1,1,.32-14.41h67.68a7.21,7.21,0,1,1,0,14.41Z"/><path d="M347.28,203.9h9.86l29.27,51.46h.22l29.26-51.46h9.76v79.6h-9.76V222.84h-.22l-25.9,44.62h-6.62l-25.89-44.62h-.12V283.5h-9.86Z"/><path d="M442.8,261.41V228.9h9.08v29.93c0,12.33,4.71,17,13.34,17s16.26-7.51,16.26-20.51V228.9h9.08v54.6h-9.08v-9.42h-.11a21.28,21.28,0,0,1-18.05,10.09C450.76,284.17,442.8,277,442.8,261.41Z"/><path d="M507.71,201h9.08V283.5h-9.08Z"/><path d="M535.74,267.24V236.75h-7.06V228.9h7.06V210.29l9.08-1V228.9h18v7.85h-18V265.9c0,6.61,1.46,9.75,6.62,9.75a20.58,20.58,0,0,0,9.3-2.8l2.36,8c-3,1.79-6.73,3.36-13.23,3.36C540.22,284.17,535.74,278.23,535.74,267.24Z"/><path d="M573.3,212.42a6.62,6.62,0,1,1,6.61,6.5A6.53,6.53,0,0,1,573.3,212.42Zm2,16.48h9.08v54.6h-9.08Z"/><path d="M597.29,276.43l4.6-6.95c4.26,4.15,9.08,6.62,16.7,6.62,6.62,0,10.43-3.25,10.43-7.4,0-4.82-5-6.17-13-9.08-8.85-3.14-16.36-6.73-16.36-16.71,0-8.41,7.62-14.68,17.93-14.68A28.46,28.46,0,0,1,636.42,235l-4.71,7.18a20.61,20.61,0,0,0-14.46-5.83c-4.26,0-8.41,2.46-8.41,6.61s4.37,6.39,10.31,8.52c11.55,4.49,19.17,6.51,19.06,17.16,0,8.52-6.5,15.58-19.62,15.58A31.37,31.37,0,0,1,597.29,276.43Z"/><path d="M649.76,212.42a6.62,6.62,0,1,1,6.61,6.5A6.53,6.53,0,0,1,649.76,212.42Zm2,16.48h9.08v54.6h-9.08Z"/><path d="M680.48,300.43l2.24-8.08c6.28,3.59,11.77,5.72,19.62,5.72,12.33,0,18.27-7.17,18.27-16.37V273h-.22c-4,5.83-10.54,9.53-18.95,9.53-14.91,0-26.46-10.76-26.46-27,0-15.58,10.77-27.24,26.13-27.24a23.6,23.6,0,0,1,19.17,9.41h.22V228.9h9.08v50.56c0,15.7-7.85,26.91-26.9,26.91A42.46,42.46,0,0,1,680.48,300.43ZM720.84,255c0-11-8-18.39-18.16-18.39-11.1,0-18.5,8-18.5,18.61,0,11.55,8.07,18.84,18.38,18.84C713.55,274.08,720.84,265.9,720.84,255Z"/><path d="M341.67,132.53c0-23.1,14.91-41,40.36-41,11.55,0,24.11,4.82,32.29,14.24l-13.23,11.21A26.79,26.79,0,0,0,382,109.09c-11.32,0-20.74,8.64-20.74,23.44,0,12.89,8,23.43,21.53,23.43a27.69,27.69,0,0,0,13.79-3.48v-9.42H381.14V127.59h33.41v35.77c-7.29,5.6-19.4,9.75-31.73,9.75C359.84,173.11,341.67,158.42,341.67,132.53Z"/><path d="M426.09,117.39h17.49v6.39h.23a21.26,21.26,0,0,1,16.48-7.4c11.32,0,19.62,5.61,19.62,23v32.84H462.42V143.63c0-9.09-3-11.66-8.75-11.66-6.05,0-10.09,4.14-10.09,12.66v27.58H426.09Z"/><path d="M488.65,144.86c0-16.71,12-28.48,29.71-28.48,17.27,0,29.6,11.55,29.6,28.48s-12.33,28.36-29.6,28.36C500.65,173.22,488.65,161.45,488.65,144.86Zm41.6,0c0-7.63-5-12.89-11.89-12.89-7.06,0-12,5.38-12,12.89,0,7.29,5,12.89,12,12.89C525,157.75,530.25,152.37,530.25,144.86Z"/><path d="M553.12,165.15l8.18-11.32c4.6,4.15,9.31,6.16,14.35,6.16,3.48,0,5.27-1.23,5.27-3.25,0-1.79-1.68-2.91-8.52-5-9.2-2.81-17.27-7.29-17.27-17.83,0-11.1,9.09-17.49,20.52-17.49a32.3,32.3,0,0,1,20.74,6.84l-8.3,12.22c-3.81-3.81-8.52-5.72-12.22-5.72-2,0-4.37.9-4.37,3,0,1.68,2,2.92,7.51,4.82,12.11,4.15,18.73,7.29,18.73,18.05,0,10.2-7.29,17.6-22.31,17.6C566.79,173.22,559.17,170.53,553.12,165.15Z"/><path d="M605.58,100.46c0-5.38,4.38-9.86,10.43-9.86s10.54,4.37,10.54,9.86c0,5.72-4.49,10.09-10.54,10.09S605.58,106.18,605.58,100.46Zm1.69,16.93h17.48v54.82H607.27Z"/><path d="M633.16,165.15l8.19-11.32c4.59,4.15,9.3,6.16,14.35,6.16,3.47,0,5.27-1.23,5.27-3.25,0-1.79-1.69-2.91-8.52-5-9.2-2.81-17.27-7.29-17.27-17.83,0-11.1,9.08-17.49,20.52-17.49a32.31,32.31,0,0,1,20.74,6.84l-8.3,12.22c-3.81-3.81-8.52-5.72-12.22-5.72-2,0-4.37.9-4.37,3,0,1.68,2,2.92,7.51,4.82,12.11,4.15,18.72,7.29,18.72,18.05,0,10.2-7.28,17.6-22.31,17.6C646.84,173.22,639.22,170.53,633.16,165.15Z"/><path d="M710,160.55l11-13.34c6.06,6.62,13.35,9.42,18.84,9.42,6.28,0,9-3.14,9-6.73,0-4.37-2.8-6.27-11.77-9.3-12.11-4.15-24.22-9.87-24.22-25.56,0-13.23,11.32-23.21,26.12-23.44,10.43-.22,20,3.82,27.58,10.32L755.92,115.6c-6.84-5.38-11.77-7.51-16.25-7.51s-7.4,2.35-7.4,6.16,2.8,5.83,11.43,9.19c14,5.39,24.78,9,24.78,24.33,0,18.73-16,25.45-29.26,25.45A40.52,40.52,0,0,1,710,160.55Z"/><path d="M774.87,144.86c0-16.82,10.87-28.48,25-28.48A19.66,19.66,0,0,1,815,123.22l.22-.11v-5.72h17.6v54.82h-16.7V166.5l-.23-.12c-3.58,4.6-8.52,6.84-15.13,6.84C785.74,173.22,774.87,161.79,774.87,144.86Zm41.15,0c0-7.51-5-13-11.55-13-6.73,0-11.77,5.16-11.77,13s4.82,12.89,11.77,12.89C810.75,157.75,816,152.71,816,144.86Z"/><path d="M846.51,131.52h-5.27V117.39h5.27v-8.63c0-13.57,7.06-20.18,18-20.18a27.42,27.42,0,0,1,14.8,4.26l-3.25,12.67a17.51,17.51,0,0,0-6.84-2c-3.14,0-5.16,1.57-5.16,5.94v8h10.43v14.13H864.11v40.69h-17.6Z"/><path d="M932.84,149.45H895.5c1.12,6.28,6.39,9.53,13.12,9.53A17.29,17.29,0,0,0,921.4,153l10.09,10.32c-4.6,5.72-12.22,9.86-24.66,9.86-16.6,0-28.71-11.43-28.71-28.47,0-16.6,11.66-28.37,28.26-28.37,15.47,0,26.79,11.55,26.79,27.81C933.17,145.76,933,148.33,932.84,149.45ZM895.62,139h20.51c-1.12-5.38-4.71-8.75-10-8.75S896.74,133.54,895.62,139Z"/></svg>