<svg xmlns="http://www.w3.org/2000/svg" width="16" height="16" viewBox="0 0 16 16">
    <g fill="none" fill-rule="evenodd">
        <g>
            <g>
                <path d="M0 0H16V16H0z" transform="translate(-260 -550) translate(260 550)"/>
                <path fill="#F02525" d="M8 5.996c.553 0 1 .447 1 1v.998c0 .553-.447 1-1 1-.552 0-1-.447-1-1v-.998c0-.553.448-1 1-1M8 9.895c.607 0 1.101.492 1.101 1.1 0 .607-.494 1.1-1.1 1.1-.608 0-1.1-.493-1.1-1.1 0-.608.492-1.1 1.1-1.1" transform="translate(-260 -550) translate(260 550)"/>
                <path fill="#F02525" d="M8 0c-.383 0-.766.193-.975.581L.133 13.373c-.396.734.138 1.624.974 1.624h13.786c.836 0 1.37-.89.974-1.624L8.974.581C8.766.193 8.384 0 8 0m0 3l5.386 9.997H2.613L8 3" transform="translate(-260 -550) translate(260 550)"/>
            </g>
        </g>
    </g>
</svg>
